<svg xmlns="http://www.w3.org/2000/svg" xmlns:xlink="http://www.w3.org/1999/xlink" contentStyleType="text/css" data-diagram-type="WBS" height="2136px" preserveAspectRatio="none" style="width:2065px;height:2136px;background:#FFFFFF;" version="1.1" viewBox="0 0 2065 2136" width="2065px" zoomAndPan="magnify"><defs/><g><line style="stroke:#181818;stroke-width:1.5;" x1="77.0004" x2="77.0004" y1="66.3441" y2="86.3441"/><rect fill="#F1F1F1" height="36.3441" style="stroke:#181818;stroke-width:1.5;" width="134.0008" x="10" y="86.3441"/><text fill="#000000" font-family="sans-serif" font-size="12" lengthAdjust="spacing" textLength="114.0008" x="20" y="109.1722">1. Flux control plane</text><line style="stroke:#181818;stroke-width:1.5;" x1="77.0004" x2="87.0004" y1="155.8603" y2="155.8603"/><rect fill="#F1F1F1" height="36.3441" style="stroke:#181818;stroke-width:1.5;" width="97.9646" x="87.0004" y="137.6882"/><text fill="#000000" font-family="sans-serif" font-size="12" lengthAdjust="spacing" textLength="77.9646" x="97.0004" y="160.5163">Flux Operator</text><line style="stroke:#181818;stroke-width:1.5;" x1="135.9827" x2="145.9827" y1="207.2044" y2="207.2044"/><rect fill="#F1F1F1" height="36.3441" style="stroke:#181818;stroke-width:1.5;" width="203.9373" x="145.9827" y="189.0323"/><text fill="#000000" font-family="sans-serif" font-size="12" lengthAdjust="spacing" textLength="183.9373" x="155.9827" y="211.8604">manages Flux controller lifecycle</text><line style="stroke:#181818;stroke-width:1.5;" x1="135.9827" x2="135.9827" y1="174.0323" y2="207.2044"/><line style="stroke:#181818;stroke-width:1.5;" x1="77.0004" x2="87.0004" y1="258.5485" y2="258.5485"/><rect fill="#F1F1F1" height="36.3441" style="stroke:#181818;stroke-width:1.5;" width="116.7807" x="87.0004" y="240.3765"/><text fill="#000000" font-family="sans-serif" font-size="12" lengthAdjust="spacing" textLength="96.7807" x="97.0004" y="263.2045">FluxInstance/flux</text><line style="stroke:#181818;stroke-width:1.5;" x1="145.3907" x2="155.3907" y1="309.8926" y2="309.8926"/><rect fill="#F1F1F1" height="36.3441" style="stroke:#181818;stroke-width:1.5;" width="162.213" x="155.3907" y="291.7206"/><text fill="#000000" font-family="sans-serif" font-size="12" lengthAdjust="spacing" textLength="142.213" x="165.3907" y="314.5487">sync.kind = GitRepository</text><line style="stroke:#181818;stroke-width:1.5;" x1="145.3907" x2="155.3907" y1="361.2367" y2="361.2367"/><rect fill="#F1F1F1" height="36.3441" style="stroke:#181818;stroke-width:1.5;" width="244.8816" x="155.3907" y="343.0647"/><text fill="#000000" font-family="sans-serif" font-size="12" lengthAdjust="spacing" textLength="224.8816" x="165.3907" y="365.8928">sync.path = ./clusters/&lt;topology&gt;-&lt;env&gt;</text><line style="stroke:#181818;stroke-width:1.5;" x1="145.3907" x2="145.3907" y1="276.7206" y2="361.2367"/><line style="stroke:#181818;stroke-width:1.5;" x1="77.0004" x2="87.0004" y1="412.5809" y2="412.5809"/><rect fill="#F1F1F1" height="36.3441" style="stroke:#181818;stroke-width:1.5;" width="150.117" x="87.0004" y="394.4088"/><text fill="#000000" font-family="sans-serif" font-size="12" lengthAdjust="spacing" textLength="130.117" x="97.0004" y="417.2369">GitRepository/platform</text><line style="stroke:#181818;stroke-width:1.5;" x1="162.0589" x2="172.0589" y1="463.925" y2="463.925"/><rect fill="#F1F1F1" height="36.3441" style="stroke:#181818;stroke-width:1.5;" width="158.073" x="172.0589" y="445.7529"/><text fill="#000000" font-family="sans-serif" font-size="12" lengthAdjust="spacing" textLength="138.073" x="182.0589" y="468.581">reads remote Git branch</text><line style="stroke:#181818;stroke-width:1.5;" x1="162.0589" x2="162.0589" y1="430.7529" y2="463.925"/><line style="stroke:#181818;stroke-width:1.5;" x1="77.0004" x2="87.0004" y1="515.2691" y2="515.2691"/><rect fill="#F1F1F1" height="36.3441" style="stroke:#181818;stroke-width:1.5;" width="149.0249" x="87.0004" y="497.097"/><text fill="#000000" font-family="sans-serif" font-size="12" lengthAdjust="spacing" textLength="129.0249" x="97.0004" y="519.9251">Staged Kustomizations</text><line style="stroke:#181818;stroke-width:1.5;" x1="161.5129" x2="171.5129" y1="566.6132" y2="566.6132"/><rect fill="#F1F1F1" height="36.3441" style="stroke:#181818;stroke-width:1.5;" width="150.9809" x="171.5129" y="548.4411"/><text fill="#000000" font-family="sans-serif" font-size="12" lengthAdjust="spacing" textLength="130.9809" x="181.5129" y="571.2692">platform-infrastructure</text><line style="stroke:#181818;stroke-width:1.5;" x1="161.5129" x2="171.5129" y1="617.9573" y2="617.9573"/><rect fill="#F1F1F1" height="36.3441" style="stroke:#181818;stroke-width:1.5;" width="113.0487" x="171.5129" y="599.7853"/><text fill="#000000" font-family="sans-serif" font-size="12" lengthAdjust="spacing" textLength="93.0487" x="181.5129" y="622.6133">platform-secrets</text><line style="stroke:#181818;stroke-width:1.5;" x1="161.5129" x2="171.5129" y1="669.3014" y2="669.3014"/><rect fill="#F1F1F1" height="36.3441" style="stroke:#181818;stroke-width:1.5;" width="140.9969" x="171.5129" y="651.1294"/><text fill="#000000" font-family="sans-serif" font-size="12" lengthAdjust="spacing" textLength="120.9969" x="181.5129" y="673.9575">platform-applications</text><line style="stroke:#181818;stroke-width:1.5;" x1="161.5129" x2="161.5129" y1="533.4411" y2="669.3014"/><line style="stroke:#181818;stroke-width:1.5;" x1="77.0004" x2="77.0004" y1="122.6882" y2="515.2691"/><line style="stroke:#181818;stroke-width:1.5;" x1="504.0488" x2="504.0488" y1="66.3441" y2="86.3441"/><rect fill="#F1F1F1" height="36.3441" style="stroke:#181818;stroke-width:1.5;" width="167.5531" x="420.2723" y="86.3441"/><text fill="#000000" font-family="sans-serif" font-size="12" lengthAdjust="spacing" textLength="147.5531" x="430.2723" y="109.1722">2. North-south traffic path</text><line style="stroke:#181818;stroke-width:1.5;" x1="504.0488" x2="514.0488" y1="155.8603" y2="155.8603"/><rect fill="#F1F1F1" height="36.3441" style="stroke:#181818;stroke-width:1.5;" width="99.9086" x="514.0488" y="137.6882"/><text fill="#000000" font-family="sans-serif" font-size="12" lengthAdjust="spacing" textLength="79.9086" x="524.0488" y="160.5163">External client</text><line style="stroke:#181818;stroke-width:1.5;" x1="564.0031" x2="574.0031" y1="207.2044" y2="207.2044"/><rect fill="#F1F1F1" height="36.3441" style="stroke:#181818;stroke-width:1.5;" width="162.813" x="574.0031" y="189.0323"/><text fill="#000000" font-family="sans-serif" font-size="12" lengthAdjust="spacing" textLength="142.813" x="584.0031" y="211.8604">sends HTTP /v1 and /mcp</text><line style="stroke:#181818;stroke-width:1.5;" x1="564.0031" x2="564.0031" y1="174.0323" y2="207.2044"/><line style="stroke:#181818;stroke-width:1.5;" x1="504.0488" x2="514.0488" y1="258.5485" y2="258.5485"/><rect fill="#F1F1F1" height="36.3441" style="stroke:#181818;stroke-width:1.5;" width="162.513" x="514.0488" y="240.3765"/><text fill="#000000" font-family="sans-serif" font-size="12" lengthAdjust="spacing" textLength="142.513" x="524.0488" y="263.2045">kgateway public-gateway</text><line style="stroke:#181818;stroke-width:1.5;" x1="595.3053" x2="605.3053" y1="309.8926" y2="309.8926"/><rect fill="#F1F1F1" height="36.3441" style="stroke:#181818;stroke-width:1.5;" width="152.7329" x="605.3053" y="291.7206"/><text fill="#000000" font-family="sans-serif" font-size="12" lengthAdjust="spacing" textLength="132.7329" x="615.3053" y="314.5487">north-south entry point</text><line style="stroke:#181818;stroke-width:1.5;" x1="595.3053" x2="605.3053" y1="361.2367" y2="361.2367"/><rect fill="#F1F1F1" height="36.3441" style="stroke:#181818;stroke-width:1.5;" width="226.6175" x="605.3053" y="343.0647"/><text fill="#000000" font-family="sans-serif" font-size="12" lengthAdjust="spacing" textLength="206.6175" x="615.3053" y="365.8928">routes traffic to agentgateway-proxy</text><line style="stroke:#181818;stroke-width:1.5;" x1="595.3053" x2="595.3053" y1="276.7206" y2="361.2367"/><line style="stroke:#181818;stroke-width:1.5;" x1="504.0488" x2="514.0488" y1="412.5809" y2="412.5809"/><rect fill="#F1F1F1" height="36.3441" style="stroke:#181818;stroke-width:1.5;" width="136.0528" x="514.0488" y="394.4088"/><text fill="#000000" font-family="sans-serif" font-size="12" lengthAdjust="spacing" textLength="116.0528" x="524.0488" y="417.2369">agentgateway-proxy</text><line style="stroke:#181818;stroke-width:1.5;" x1="582.0752" x2="592.0752" y1="463.925" y2="463.925"/><rect fill="#F1F1F1" height="36.3441" style="stroke:#181818;stroke-width:1.5;" width="171.2611" x="592.0752" y="445.7529"/><text fill="#000000" font-family="sans-serif" font-size="12" lengthAdjust="spacing" textLength="151.2611" x="602.0752" y="468.581">protocol-aware AI gateway</text><line style="stroke:#181818;stroke-width:1.5;" x1="582.0752" x2="592.0752" y1="515.2691" y2="515.2691"/><rect fill="#F1F1F1" height="36.3441" style="stroke:#181818;stroke-width:1.5;" width="198.4773" x="592.0752" y="497.097"/><text fill="#000000" font-family="sans-serif" font-size="12" lengthAdjust="spacing" textLength="178.4773" x="602.0752" y="519.9251">/v1 -&gt; litellm-upstream backend</text><line style="stroke:#181818;stroke-width:1.5;" x1="582.0752" x2="592.0752" y1="566.6132" y2="566.6132"/><rect fill="#F1F1F1" height="36.3441" style="stroke:#181818;stroke-width:1.5;" width="216.3214" x="592.0752" y="548.4411"/><text fill="#000000" font-family="sans-serif" font-size="12" lengthAdjust="spacing" textLength="196.3214" x="602.0752" y="571.2692">/mcp -&gt; kagent-tools-mcp-backend</text><line style="stroke:#181818;stroke-width:1.5;" x1="582.0752" x2="582.0752" y1="430.7529" y2="566.6132"/><line style="stroke:#181818;stroke-width:1.5;" x1="504.0488" x2="514.0488" y1="617.9573" y2="617.9573"/><rect fill="#F1F1F1" height="36.3441" style="stroke:#181818;stroke-width:1.5;" width="63.9443" x="514.0488" y="599.7853"/><text fill="#000000" font-family="sans-serif" font-size="12" lengthAdjust="spacing" textLength="43.9443" x="524.0488" y="622.6133">LiteLLM</text><line style="stroke:#181818;stroke-width:1.5;" x1="546.021" x2="556.021" y1="669.3014" y2="669.3014"/><rect fill="#F1F1F1" height="36.3441" style="stroke:#181818;stroke-width:1.5;" width="184.2692" x="556.021" y="651.1294"/><text fill="#000000" font-family="sans-serif" font-size="12" lengthAdjust="spacing" textLength="164.2692" x="566.021" y="673.9575">remote provider default path</text><line style="stroke:#181818;stroke-width:1.5;" x1="546.021" x2="556.021" y1="720.6455" y2="720.6455"/><rect fill="#F1F1F1" height="36.3441" style="stroke:#181818;stroke-width:1.5;" width="204.5733" x="556.021" y="702.4735"/><text fill="#000000" font-family="sans-serif" font-size="12" lengthAdjust="spacing" textLength="184.5733" x="566.021" y="725.3016">optional external LM Studio path</text><line style="stroke:#181818;stroke-width:1.5;" x1="546.021" x2="556.021" y1="771.9897" y2="771.9897"/><rect fill="#F1F1F1" height="36.3441" style="stroke:#181818;stroke-width:1.5;" width="199.4493" x="556.021" y="753.8176"/><text fill="#000000" font-family="sans-serif" font-size="12" lengthAdjust="spacing" textLength="179.4493" x="566.021" y="776.6457">optional in-cluster runtime path</text><line style="stroke:#181818;stroke-width:1.5;" x1="546.021" x2="546.021" y1="636.1294" y2="771.9897"/><line style="stroke:#181818;stroke-width:1.5;" x1="504.0488" x2="514.0488" y1="823.3338" y2="823.3338"/><rect fill="#F1F1F1" height="36.3441" style="stroke:#181818;stroke-width:1.5;" width="153.3089" x="514.0488" y="805.1617"/><text fill="#000000" font-family="sans-serif" font-size="12" lengthAdjust="spacing" textLength="133.3089" x="524.0488" y="827.9898">agentregistry-inventory</text><line style="stroke:#181818;stroke-width:1.5;" x1="590.7033" x2="600.7033" y1="874.6779" y2="874.6779"/><rect fill="#F1F1F1" height="36.3441" style="stroke:#181818;stroke-width:1.5;" width="186.6812" x="600.7033" y="856.5058"/><text fill="#000000" font-family="sans-serif" font-size="12" lengthAdjust="spacing" textLength="166.6812" x="610.7033" y="879.3339">internal control-plane catalog</text><line style="stroke:#181818;stroke-width:1.5;" x1="590.7033" x2="600.7033" y1="926.022" y2="926.022"/><rect fill="#F1F1F1" height="36.3441" style="stroke:#181818;stroke-width:1.5;" width="194.2893" x="600.7033" y="907.8499"/><text fill="#000000" font-family="sans-serif" font-size="12" lengthAdjust="spacing" textLength="174.2893" x="610.7033" y="930.678">default access via port-forward</text><line style="stroke:#181818;stroke-width:1.5;" x1="590.7033" x2="600.7033" y1="977.3661" y2="977.3661"/><rect fill="#F1F1F1" height="36.3441" style="stroke:#181818;stroke-width:1.5;" width="238.2575" x="600.7033" y="959.1941"/><text fill="#000000" font-family="sans-serif" font-size="12" lengthAdjust="spacing" textLength="218.2575" x="610.7033" y="982.0221">not on the default public gateway path</text><line style="stroke:#181818;stroke-width:1.5;" x1="590.7033" x2="590.7033" y1="841.5058" y2="977.3661"/><line style="stroke:#181818;stroke-width:1.5;" x1="504.0488" x2="514.0488" y1="1028.7102" y2="1028.7102"/><rect fill="#F1F1F1" height="36.3441" style="stroke:#181818;stroke-width:1.5;" width="180.8611" x="514.0488" y="1010.5382"/><text fill="#000000" font-family="sans-serif" font-size="12" lengthAdjust="spacing" textLength="160.8611" x="524.0488" y="1033.3663">MCP Governance dashboard</text><line style="stroke:#181818;stroke-width:1.5;" x1="604.4794" x2="614.4794" y1="1080.0543" y2="1080.0543"/><rect fill="#F1F1F1" height="36.3441" style="stroke:#181818;stroke-width:1.5;" width="226.0055" x="614.4794" y="1061.8823"/><text fill="#000000" font-family="sans-serif" font-size="12" lengthAdjust="spacing" textLength="206.0055" x="624.4794" y="1084.7104">internal-only access via port-forward</text><line style="stroke:#181818;stroke-width:1.5;" x1="604.4794" x2="614.4794" y1="1131.3985" y2="1131.3985"/><rect fill="#F1F1F1" height="36.3441" style="stroke:#181818;stroke-width:1.5;" width="267.4898" x="614.4794" y="1113.2264"/><text fill="#000000" font-family="sans-serif" font-size="12" lengthAdjust="spacing" textLength="247.4898" x="624.4794" y="1136.0545">backed by mcp-governance controller scans</text><line style="stroke:#181818;stroke-width:1.5;" x1="604.4794" x2="604.4794" y1="1046.8823" y2="1131.3985"/><line style="stroke:#181818;stroke-width:1.5;" x1="504.0488" x2="504.0488" y1="122.6882" y2="1028.7102"/><line style="stroke:#181818;stroke-width:1.5;" x1="975.3596" x2="975.3596" y1="66.3441" y2="86.3441"/><rect fill="#F1F1F1" height="36.3441" style="stroke:#181818;stroke-width:1.5;" width="146.7809" x="901.9692" y="86.3441"/><text fill="#000000" font-family="sans-serif" font-size="12" lengthAdjust="spacing" textLength="126.7809" x="911.9692" y="109.1722">3. Cluster components</text><line style="stroke:#181818;stroke-width:1.5;" x1="975.3596" x2="985.3596" y1="155.8603" y2="155.8603"/><rect fill="#F1F1F1" height="36.3441" style="stroke:#181818;stroke-width:1.5;" width="126.6087" x="985.3596" y="137.6882"/><text fill="#000000" font-family="sans-serif" font-size="12" lengthAdjust="spacing" textLength="106.6087" x="995.3596" y="160.5163">platform plumbing</text><line style="stroke:#181818;stroke-width:1.5;" x1="1048.664" x2="1058.664" y1="207.2044" y2="207.2044"/><rect fill="#F1F1F1" height="36.3441" style="stroke:#181818;stroke-width:1.5;" width="204.8853" x="1058.664" y="189.0323"/><text fill="#000000" font-family="sans-serif" font-size="12" lengthAdjust="spacing" textLength="184.8853" x="1068.664" y="211.8604">namespaces from apps/platform</text><line style="stroke:#181818;stroke-width:1.5;" x1="1048.664" x2="1058.664" y1="258.5485" y2="258.5485"/><rect fill="#F1F1F1" height="36.3441" style="stroke:#181818;stroke-width:1.5;" width="298.33" x="1058.664" y="240.3765"/><text fill="#000000" font-family="sans-serif" font-size="12" lengthAdjust="spacing" textLength="278.33" x="1068.664" y="263.2045">cluster wrappers from clusters/&lt;topology&gt;-&lt;env&gt;</text><line style="stroke:#181818;stroke-width:1.5;" x1="1048.664" x2="1048.664" y1="174.0323" y2="258.5485"/><line style="stroke:#181818;stroke-width:1.5;" x1="975.3596" x2="985.3596" y1="309.8926" y2="309.8926"/><rect fill="#F1F1F1" height="36.3441" style="stroke:#181818;stroke-width:1.5;" width="117.7047" x="985.3596" y="291.7206"/><text fill="#000000" font-family="sans-serif" font-size="12" lengthAdjust="spacing" textLength="97.7047" x="995.3596" y="314.5487">kgateway-system</text><line style="stroke:#181818;stroke-width:1.5;" x1="1044.212" x2="1054.212" y1="361.2367" y2="361.2367"/><rect fill="#F1F1F1" height="36.3441" style="stroke:#181818;stroke-width:1.5;" width="131.9248" x="1054.212" y="343.0647"/><text fill="#000000" font-family="sans-serif" font-size="12" lengthAdjust="spacing" textLength="111.9248" x="1064.212" y="365.8928">kgateway controller</text><line style="stroke:#181818;stroke-width:1.5;" x1="1044.212" x2="1054.212" y1="412.5809" y2="412.5809"/><rect fill="#F1F1F1" height="36.3441" style="stroke:#181818;stroke-width:1.5;" width="105.4886" x="1054.212" y="394.4088"/><text fill="#000000" font-family="sans-serif" font-size="12" lengthAdjust="spacing" textLength="85.4886" x="1064.212" y="417.2369">public-gateway</text><line style="stroke:#181818;stroke-width:1.5;" x1="1044.212" x2="1044.212" y1="328.0647" y2="412.5809"/><line style="stroke:#181818;stroke-width:1.5;" x1="975.3596" x2="985.3596" y1="463.925" y2="463.925"/><rect fill="#F1F1F1" height="36.3441" style="stroke:#181818;stroke-width:1.5;" width="143.9249" x="985.3596" y="445.7529"/><text fill="#000000" font-family="sans-serif" font-size="12" lengthAdjust="spacing" textLength="123.9249" x="995.3596" y="468.581">agentgateway-system</text><line style="stroke:#181818;stroke-width:1.5;" x1="1057.3221" x2="1067.3221" y1="515.2691" y2="515.2691"/><rect fill="#F1F1F1" height="36.3441" style="stroke:#181818;stroke-width:1.5;" width="158.145" x="1067.3221" y="497.097"/><text fill="#000000" font-family="sans-serif" font-size="12" lengthAdjust="spacing" textLength="138.145" x="1077.3221" y="519.9251">agentgateway controller</text><line style="stroke:#181818;stroke-width:1.5;" x1="1057.3221" x2="1067.3221" y1="566.6132" y2="566.6132"/><rect fill="#F1F1F1" height="36.3441" style="stroke:#181818;stroke-width:1.5;" width="136.0528" x="1067.3221" y="548.4411"/><text fill="#000000" font-family="sans-serif" font-size="12" lengthAdjust="spacing" textLength="116.0528" x="1077.3221" y="571.2692">agentgateway-proxy</text><line style="stroke:#181818;stroke-width:1.5;" x1="1057.3221" x2="1067.3221" y1="617.9573" y2="617.9573"/><rect fill="#F1F1F1" height="36.3441" style="stroke:#181818;stroke-width:1.5;" width="207.8253" x="1067.3221" y="599.7853"/><text fill="#000000" font-family="sans-serif" font-size="12" lengthAdjust="spacing" textLength="187.8253" x="1077.3221" y="622.6133">AgentgatewayBackend resources</text><line style="stroke:#181818;stroke-width:1.5;" x1="1057.3221" x2="1067.3221" y1="669.3014" y2="669.3014"/><rect fill="#F1F1F1" height="36.3441" style="stroke:#181818;stroke-width:1.5;" width="133.6528" x="1067.3221" y="651.1294"/><text fill="#000000" font-family="sans-serif" font-size="12" lengthAdjust="spacing" textLength="113.6528" x="1077.3221" y="673.9575">AgentgatewayPolicy</text><line style="stroke:#181818;stroke-width:1.5;" x1="1057.3221" x2="1057.3221" y1="482.097" y2="669.3014"/><line style="stroke:#181818;stroke-width:1.5;" x1="975.3596" x2="985.3596" y1="720.6455" y2="720.6455"/><rect fill="#F1F1F1" height="36.3441" style="stroke:#181818;stroke-width:1.5;" width="59.0363" x="985.3596" y="702.4735"/><text fill="#000000" font-family="sans-serif" font-size="12" lengthAdjust="spacing" textLength="39.0363" x="995.3596" y="725.3016">kagent</text><line style="stroke:#181818;stroke-width:1.5;" x1="1014.8778" x2="1024.8778" y1="771.9897" y2="771.9897"/><rect fill="#F1F1F1" height="36.3441" style="stroke:#181818;stroke-width:1.5;" width="117.8007" x="1024.8778" y="753.8176"/><text fill="#000000" font-family="sans-serif" font-size="12" lengthAdjust="spacing" textLength="97.8007" x="1034.8778" y="776.6457">kagent-controller</text><line style="stroke:#181818;stroke-width:1.5;" x1="1014.8778" x2="1024.8778" y1="823.3338" y2="823.3338"/><rect fill="#F1F1F1" height="36.3441" style="stroke:#181818;stroke-width:1.5;" width="73.4124" x="1024.8778" y="805.1617"/><text fill="#000000" font-family="sans-serif" font-size="12" lengthAdjust="spacing" textLength="53.4124" x="1034.8778" y="827.9898">kagent-ui</text><line style="stroke:#181818;stroke-width:1.5;" x1="1014.8778" x2="1024.8778" y1="874.6779" y2="874.6779"/><rect fill="#F1F1F1" height="36.3441" style="stroke:#181818;stroke-width:1.5;" width="90.5965" x="1024.8778" y="856.5058"/><text fill="#000000" font-family="sans-serif" font-size="12" lengthAdjust="spacing" textLength="70.5965" x="1034.8778" y="879.3339">kagent-tools</text><line style="stroke:#181818;stroke-width:1.5;" x1="1014.8778" x2="1024.8778" y1="926.022" y2="926.022"/><rect fill="#F1F1F1" height="36.3441" style="stroke:#181818;stroke-width:1.5;" width="139.6048" x="1024.8778" y="907.8499"/><text fill="#000000" font-family="sans-serif" font-size="12" lengthAdjust="spacing" textLength="119.6048" x="1034.8778" y="930.678">Agent: k8s-a2a-agent</text><line style="stroke:#181818;stroke-width:1.5;" x1="1014.8778" x2="1024.8778" y1="977.3661" y2="977.3661"/><rect fill="#F1F1F1" height="36.3441" style="stroke:#181818;stroke-width:1.5;" width="236.0136" x="1024.8778" y="959.1941"/><text fill="#000000" font-family="sans-serif" font-size="12" lengthAdjust="spacing" textLength="216.0136" x="1034.8778" y="982.0221">RemoteMCPServer: kagent-tool-server</text><line style="stroke:#181818;stroke-width:1.5;" x1="1014.8778" x2="1014.8778" y1="738.8176" y2="977.3661"/><line style="stroke:#181818;stroke-width:1.5;" x1="975.3596" x2="985.3596" y1="1028.7102" y2="1028.7102"/><rect fill="#F1F1F1" height="36.3441" style="stroke:#181818;stroke-width:1.5;" width="81.1884" x="985.3596" y="1010.5382"/><text fill="#000000" font-family="sans-serif" font-size="12" lengthAdjust="spacing" textLength="61.1884" x="995.3596" y="1033.3663">ai-gateway</text><line style="stroke:#181818;stroke-width:1.5;" x1="1025.9538" x2="1035.9538" y1="1080.0543" y2="1080.0543"/><rect fill="#F1F1F1" height="36.3441" style="stroke:#181818;stroke-width:1.5;" width="63.9443" x="1035.9538" y="1061.8823"/><text fill="#000000" font-family="sans-serif" font-size="12" lengthAdjust="spacing" textLength="43.9443" x="1045.9538" y="1084.7104">LiteLLM</text><line style="stroke:#181818;stroke-width:1.5;" x1="1025.9538" x2="1025.9538" y1="1046.8823" y2="1080.0543"/><line style="stroke:#181818;stroke-width:1.5;" x1="975.3596" x2="985.3596" y1="1131.3985" y2="1131.3985"/><rect fill="#F1F1F1" height="36.3441" style="stroke:#181818;stroke-width:1.5;" width="75.1644" x="985.3596" y="1113.2264"/><text fill="#000000" font-family="sans-serif" font-size="12" lengthAdjust="spacing" textLength="55.1644" x="995.3596" y="1136.0545">ai-models</text><line style="stroke:#181818;stroke-width:1.5;" x1="1022.9418" x2="1032.9418" y1="1182.7426" y2="1182.7426"/><rect fill="#F1F1F1" height="36.3441" style="stroke:#181818;stroke-width:1.5;" width="108.5966" x="1032.9418" y="1164.5705"/><text fill="#000000" font-family="sans-serif" font-size="12" lengthAdjust="spacing" textLength="88.5966" x="1042.9418" y="1187.3986">tei-embeddings</text><line style="stroke:#181818;stroke-width:1.5;" x1="1022.9418" x2="1032.9418" y1="1234.0867" y2="1234.0867"/><rect fill="#F1F1F1" height="36.3441" style="stroke:#181818;stroke-width:1.5;" width="136.3168" x="1032.9418" y="1215.9146"/><text fill="#000000" font-family="sans-serif" font-size="12" lengthAdjust="spacing" textLength="116.3168" x="1042.9418" y="1238.7427">KServe control plane</text><line style="stroke:#181818;stroke-width:1.5;" x1="1022.9418" x2="1032.9418" y1="1285.4308" y2="1285.4308"/><rect fill="#F1F1F1" height="36.3441" style="stroke:#181818;stroke-width:1.5;" width="186.9332" x="1032.9418" y="1267.2587"/><text fill="#000000" font-family="sans-serif" font-size="12" lengthAdjust="spacing" textLength="166.9332" x="1042.9418" y="1290.0868">optional Ollama or vLLM path</text><line style="stroke:#181818;stroke-width:1.5;" x1="1022.9418" x2="1022.9418" y1="1149.5705" y2="1285.4308"/><line style="stroke:#181818;stroke-width:1.5;" x1="975.3596" x2="985.3596" y1="1336.7749" y2="1336.7749"/><rect fill="#F1F1F1" height="36.3441" style="stroke:#181818;stroke-width:1.5;" width="62.2163" x="985.3596" y="1318.6029"/><text fill="#000000" font-family="sans-serif" font-size="12" lengthAdjust="spacing" textLength="42.2163" x="995.3596" y="1341.4309">context</text><line style="stroke:#181818;stroke-width:1.5;" x1="1016.4678" x2="1026.4678" y1="1388.119" y2="1388.119"/><rect fill="#F1F1F1" height="36.3441" style="stroke:#181818;stroke-width:1.5;" width="60.1883" x="1026.4678" y="1369.947"/><text fill="#000000" font-family="sans-serif" font-size="12" lengthAdjust="spacing" textLength="40.1883" x="1036.4678" y="1392.7751">Qdrant</text><line style="stroke:#181818;stroke-width:1.5;" x1="1016.4678" x2="1026.4678" y1="1439.4631" y2="1439.4631"/><rect fill="#F1F1F1" height="36.3441" style="stroke:#181818;stroke-width:1.5;" width="85.9525" x="1026.4678" y="1421.2911"/><text fill="#000000" font-family="sans-serif" font-size="12" lengthAdjust="spacing" textLength="65.9525" x="1036.4678" y="1444.1192">PostgreSQL</text><line style="stroke:#181818;stroke-width:1.5;" x1="1016.4678" x2="1026.4678" y1="1490.8073" y2="1490.8073"/><rect fill="#F1F1F1" height="36.3441" style="stroke:#181818;stroke-width:1.5;" width="50.4562" x="1026.4678" y="1472.6352"/><text fill="#000000" font-family="sans-serif" font-size="12" lengthAdjust="spacing" textLength="30.4562" x="1036.4678" y="1495.4633">Redis</text><line style="stroke:#181818;stroke-width:1.5;" x1="1016.4678" x2="1016.4678" y1="1354.947" y2="1490.8073"/><line style="stroke:#181818;stroke-width:1.5;" x1="975.3596" x2="985.3596" y1="1542.1514" y2="1542.1514"/><rect fill="#F1F1F1" height="36.3441" style="stroke:#181818;stroke-width:1.5;" width="95.9845" x="985.3596" y="1523.9793"/><text fill="#000000" font-family="sans-serif" font-size="12" lengthAdjust="spacing" textLength="75.9845" x="995.3596" y="1546.8074">agentregistry</text><line style="stroke:#181818;stroke-width:1.5;" x1="1033.3519" x2="1043.3519" y1="1593.4955" y2="1593.4955"/><rect fill="#F1F1F1" height="36.3441" style="stroke:#181818;stroke-width:1.5;" width="153.3089" x="1043.3519" y="1575.3234"/><text fill="#000000" font-family="sans-serif" font-size="12" lengthAdjust="spacing" textLength="133.3089" x="1053.3519" y="1598.1515">agentregistry-inventory</text><line style="stroke:#181818;stroke-width:1.5;" x1="1033.3519" x2="1043.3519" y1="1644.8396" y2="1644.8396"/><rect fill="#F1F1F1" height="36.3441" style="stroke:#181818;stroke-width:1.5;" width="141.8369" x="1043.3519" y="1626.6675"/><text fill="#000000" font-family="sans-serif" font-size="12" lengthAdjust="spacing" textLength="121.8369" x="1053.3519" y="1649.4956">DiscoveryConfig/local</text><line style="stroke:#181818;stroke-width:1.5;" x1="1033.3519" x2="1033.3519" y1="1560.3234" y2="1644.8396"/><line style="stroke:#181818;stroke-width:1.5;" x1="975.3596" x2="985.3596" y1="1696.1837" y2="1696.1837"/><rect fill="#F1F1F1" height="36.3441" style="stroke:#181818;stroke-width:1.5;" width="158.577" x="985.3596" y="1678.0117"/><text fill="#000000" font-family="sans-serif" font-size="12" lengthAdjust="spacing" textLength="138.577" x="995.3596" y="1700.8397">mcp-governance-system</text><line style="stroke:#181818;stroke-width:1.5;" x1="1064.6481" x2="1074.6481" y1="1747.5278" y2="1747.5278"/><rect fill="#F1F1F1" height="36.3441" style="stroke:#181818;stroke-width:1.5;" width="173.5411" x="1074.6481" y="1729.3558"/><text fill="#000000" font-family="sans-serif" font-size="12" lengthAdjust="spacing" textLength="153.5411" x="1084.6481" y="1752.1839">mcp-governance-controller</text><line style="stroke:#181818;stroke-width:1.5;" x1="1064.6481" x2="1074.6481" y1="1798.8719" y2="1798.8719"/><rect fill="#F1F1F1" height="36.3441" style="stroke:#181818;stroke-width:1.5;" width="179.6251" x="1074.6481" y="1780.6999"/><text fill="#000000" font-family="sans-serif" font-size="12" lengthAdjust="spacing" textLength="159.6251" x="1084.6481" y="1803.528">mcp-governance-dashboard</text><line style="stroke:#181818;stroke-width:1.5;" x1="1064.6481" x2="1074.6481" y1="1850.2161" y2="1850.2161"/><rect fill="#F1F1F1" height="36.3441" style="stroke:#181818;stroke-width:1.5;" width="146.2289" x="1074.6481" y="1832.044"/><text fill="#000000" font-family="sans-serif" font-size="12" lengthAdjust="spacing" textLength="126.2289" x="1084.6481" y="1854.8721">MCPGovernancePolicy</text><line style="stroke:#181818;stroke-width:1.5;" x1="1064.6481" x2="1074.6481" y1="1901.5602" y2="1901.5602"/><rect fill="#F1F1F1" height="36.3441" style="stroke:#181818;stroke-width:1.5;" width="146.7569" x="1074.6481" y="1883.3881"/><text fill="#000000" font-family="sans-serif" font-size="12" lengthAdjust="spacing" textLength="126.7569" x="1084.6481" y="1906.2162">GovernanceEvaluation</text><line style="stroke:#181818;stroke-width:1.5;" x1="1064.6481" x2="1064.6481" y1="1714.3558" y2="1901.5602"/><line style="stroke:#181818;stroke-width:1.5;" x1="975.3596" x2="985.3596" y1="1952.9043" y2="1952.9043"/><rect fill="#F1F1F1" height="36.3441" style="stroke:#181818;stroke-width:1.5;" width="92.0605" x="985.3596" y="1934.7322"/><text fill="#000000" font-family="sans-serif" font-size="12" lengthAdjust="spacing" textLength="72.0605" x="995.3596" y="1957.5603">observability</text><line style="stroke:#181818;stroke-width:1.5;" x1="1031.3899" x2="1041.3899" y1="2004.2484" y2="2004.2484"/><rect fill="#F1F1F1" height="36.3441" style="stroke:#181818;stroke-width:1.5;" width="89.1445" x="1041.3899" y="1986.0763"/><text fill="#000000" font-family="sans-serif" font-size="12" lengthAdjust="spacing" textLength="69.1445" x="1051.3899" y="2008.9044">Prometheus</text><line style="stroke:#181818;stroke-width:1.5;" x1="1031.3899" x2="1041.3899" y1="2055.5925" y2="2055.5925"/><rect fill="#F1F1F1" height="36.3441" style="stroke:#181818;stroke-width:1.5;" width="65.4323" x="1041.3899" y="2037.4205"/><text fill="#000000" font-family="sans-serif" font-size="12" lengthAdjust="spacing" textLength="45.4323" x="1051.3899" y="2060.2485">Grafana</text><line style="stroke:#181818;stroke-width:1.5;" x1="1031.3899" x2="1041.3899" y1="2106.9366" y2="2106.9366"/><rect fill="#F1F1F1" height="36.3441" style="stroke:#181818;stroke-width:1.5;" width="43.0522" x="1041.3899" y="2088.7646"/><text fill="#000000" font-family="sans-serif" font-size="12" lengthAdjust="spacing" textLength="23.0522" x="1051.3899" y="2111.5927">Loki</text><line style="stroke:#181818;stroke-width:1.5;" x1="1031.3899" x2="1031.3899" y1="1971.0763" y2="2106.9366"/><line style="stroke:#181818;stroke-width:1.5;" x1="975.3596" x2="975.3596" y1="122.6882" y2="1952.9043"/><line style="stroke:#181818;stroke-width:1.5;" x1="1460.3685" x2="1460.3685" y1="66.3441" y2="86.3441"/><rect fill="#F1F1F1" height="36.3441" style="stroke:#181818;stroke-width:1.5;" width="166.749" x="1376.994" y="86.3441"/><text fill="#000000" font-family="sans-serif" font-size="12" lengthAdjust="spacing" textLength="146.749" x="1386.994" y="109.1722">4. Request and data paths</text><line style="stroke:#181818;stroke-width:1.5;" x1="1460.3685" x2="1470.3685" y1="155.8603" y2="155.8603"/><rect fill="#F1F1F1" height="36.3441" style="stroke:#181818;stroke-width:1.5;" width="122.2167" x="1470.3685" y="137.6882"/><text fill="#000000" font-family="sans-serif" font-size="12" lengthAdjust="spacing" textLength="102.2167" x="1480.3685" y="160.5163">UI and agent path</text><line style="stroke:#181818;stroke-width:1.5;" x1="1531.4769" x2="1541.4769" y1="207.2044" y2="207.2044"/><rect fill="#F1F1F1" height="36.3441" style="stroke:#181818;stroke-width:1.5;" width="188.1812" x="1541.4769" y="189.0323"/><text fill="#000000" font-family="sans-serif" font-size="12" lengthAdjust="spacing" textLength="168.1812" x="1551.4769" y="211.8604">kagent-ui -&gt; kagent-controller</text><line style="stroke:#181818;stroke-width:1.5;" x1="1531.4769" x2="1541.4769" y1="258.5485" y2="258.5485"/><rect fill="#F1F1F1" height="36.3441" style="stroke:#181818;stroke-width:1.5;" width="214.4734" x="1541.4769" y="240.3765"/><text fill="#000000" font-family="sans-serif" font-size="12" lengthAdjust="spacing" textLength="194.4734" x="1551.4769" y="263.2045">k8s-a2a-agent -&gt; kagent-controller</text><line style="stroke:#181818;stroke-width:1.5;" x1="1531.4769" x2="1541.4769" y1="309.8926" y2="309.8926"/><rect fill="#F1F1F1" height="36.3441" style="stroke:#181818;stroke-width:1.5;" width="235.4375" x="1541.4769" y="291.7206"/><text fill="#000000" font-family="sans-serif" font-size="12" lengthAdjust="spacing" textLength="215.4375" x="1551.4769" y="314.5487">kagent-controller -&gt; agentgateway /v1</text><line style="stroke:#181818;stroke-width:1.5;" x1="1531.4769" x2="1531.4769" y1="174.0323" y2="309.8926"/><line style="stroke:#181818;stroke-width:1.5;" x1="1460.3685" x2="1470.3685" y1="361.2367" y2="361.2367"/><rect fill="#F1F1F1" height="36.3441" style="stroke:#181818;stroke-width:1.5;" width="74.7084" x="1470.3685" y="343.0647"/><text fill="#000000" font-family="sans-serif" font-size="12" lengthAdjust="spacing" textLength="54.7084" x="1480.3685" y="365.8928">MCP path</text><line style="stroke:#181818;stroke-width:1.5;" x1="1507.7227" x2="1517.7227" y1="412.5809" y2="412.5809"/><rect fill="#F1F1F1" height="36.3441" style="stroke:#181818;stroke-width:1.5;" width="329.7703" x="1517.7227" y="394.4088"/><text fill="#000000" font-family="sans-serif" font-size="12" lengthAdjust="spacing" textLength="309.7703" x="1527.7227" y="417.2369">RemoteMCPServer -&gt; agentgateway /mcp/kagent-tools</text><line style="stroke:#181818;stroke-width:1.5;" x1="1507.7227" x2="1517.7227" y1="463.925" y2="463.925"/><rect fill="#F1F1F1" height="36.3441" style="stroke:#181818;stroke-width:1.5;" width="238.6535" x="1517.7227" y="445.7529"/><text fill="#000000" font-family="sans-serif" font-size="12" lengthAdjust="spacing" textLength="218.6535" x="1527.7227" y="468.581">agentgateway -&gt; kagent-tools backend</text><line style="stroke:#181818;stroke-width:1.5;" x1="1507.7227" x2="1507.7227" y1="379.4088" y2="463.925"/><line style="stroke:#181818;stroke-width:1.5;" x1="1460.3685" x2="1470.3685" y1="515.2691" y2="515.2691"/><rect fill="#F1F1F1" height="36.3441" style="stroke:#181818;stroke-width:1.5;" width="72.4404" x="1470.3685" y="497.097"/><text fill="#000000" font-family="sans-serif" font-size="12" lengthAdjust="spacing" textLength="52.4404" x="1480.3685" y="519.9251">LLM path</text><line style="stroke:#181818;stroke-width:1.5;" x1="1506.5887" x2="1516.5887" y1="566.6132" y2="566.6132"/><rect fill="#F1F1F1" height="36.3441" style="stroke:#181818;stroke-width:1.5;" width="161.037" x="1516.5887" y="548.4411"/><text fill="#000000" font-family="sans-serif" font-size="12" lengthAdjust="spacing" textLength="141.037" x="1526.5887" y="571.2692">agentgateway -&gt; LiteLLM</text><line style="stroke:#181818;stroke-width:1.5;" x1="1506.5887" x2="1516.5887" y1="617.9573" y2="617.9573"/><rect fill="#F1F1F1" height="36.3441" style="stroke:#181818;stroke-width:1.5;" width="391.9067" x="1516.5887" y="599.7853"/><text fill="#000000" font-family="sans-serif" font-size="12" lengthAdjust="spacing" textLength="371.9067" x="1526.5887" y="622.6133">LiteLLM -&gt; Gemini / OpenAI / Anthropic / Bedrock / Vertex / others</text><line style="stroke:#181818;stroke-width:1.5;" x1="1506.5887" x2="1516.5887" y1="669.3014" y2="669.3014"/><rect fill="#F1F1F1" height="36.3441" style="stroke:#181818;stroke-width:1.5;" width="241.1376" x="1516.5887" y="651.1294"/><text fill="#000000" font-family="sans-serif" font-size="12" lengthAdjust="spacing" textLength="221.1376" x="1526.5887" y="673.9575">LiteLLM -&gt; optional LM Studio endpoint</text><line style="stroke:#181818;stroke-width:1.5;" x1="1506.5887" x2="1516.5887" y1="720.6455" y2="720.6455"/><rect fill="#F1F1F1" height="36.3441" style="stroke:#181818;stroke-width:1.5;" width="247.8456" x="1516.5887" y="702.4735"/><text fill="#000000" font-family="sans-serif" font-size="12" lengthAdjust="spacing" textLength="227.8456" x="1526.5887" y="725.3016">LiteLLM -&gt; optional Ollama or vLLM path</text><line style="stroke:#181818;stroke-width:1.5;" x1="1506.5887" x2="1506.5887" y1="533.4411" y2="720.6455"/><line style="stroke:#181818;stroke-width:1.5;" x1="1460.3685" x2="1470.3685" y1="771.9897" y2="771.9897"/><rect fill="#F1F1F1" height="36.3441" style="stroke:#181818;stroke-width:1.5;" width="93.0205" x="1470.3685" y="753.8176"/><text fill="#000000" font-family="sans-serif" font-size="12" lengthAdjust="spacing" textLength="73.0205" x="1480.3685" y="776.6457">Context path</text><line style="stroke:#181818;stroke-width:1.5;" x1="1516.8788" x2="1526.8788" y1="823.3338" y2="823.3338"/><rect fill="#F1F1F1" height="36.3441" style="stroke:#181818;stroke-width:1.5;" width="223.3655" x="1526.8788" y="805.1617"/><text fill="#000000" font-family="sans-serif" font-size="12" lengthAdjust="spacing" textLength="203.3655" x="1536.8788" y="827.9898">kagent-controller -&gt; tei-embeddings</text><line style="stroke:#181818;stroke-width:1.5;" x1="1516.8788" x2="1526.8788" y1="874.6779" y2="874.6779"/><rect fill="#F1F1F1" height="36.3441" style="stroke:#181818;stroke-width:1.5;" width="174.9571" x="1526.8788" y="856.5058"/><text fill="#000000" font-family="sans-serif" font-size="12" lengthAdjust="spacing" textLength="154.9571" x="1536.8788" y="879.3339">kagent-controller -&gt; Qdrant</text><line style="stroke:#181818;stroke-width:1.5;" x1="1516.8788" x2="1526.8788" y1="926.022" y2="926.022"/><rect fill="#F1F1F1" height="36.3441" style="stroke:#181818;stroke-width:1.5;" width="200.7213" x="1526.8788" y="907.8499"/><text fill="#000000" font-family="sans-serif" font-size="12" lengthAdjust="spacing" textLength="180.7213" x="1536.8788" y="930.678">kagent-controller -&gt; PostgreSQL</text><line style="stroke:#181818;stroke-width:1.5;" x1="1516.8788" x2="1526.8788" y1="977.3661" y2="977.3661"/><rect fill="#F1F1F1" height="36.3441" style="stroke:#181818;stroke-width:1.5;" width="165.2251" x="1526.8788" y="959.1941"/><text fill="#000000" font-family="sans-serif" font-size="12" lengthAdjust="spacing" textLength="145.2251" x="1536.8788" y="982.0221">kagent-controller -&gt; Redis</text><line style="stroke:#181818;stroke-width:1.5;" x1="1516.8788" x2="1516.8788" y1="790.1617" y2="977.3661"/><line style="stroke:#181818;stroke-width:1.5;" x1="1460.3685" x2="1470.3685" y1="1028.7102" y2="1028.7102"/><rect fill="#F1F1F1" height="36.3441" style="stroke:#181818;stroke-width:1.5;" width="103.4126" x="1470.3685" y="1010.5382"/><text fill="#000000" font-family="sans-serif" font-size="12" lengthAdjust="spacing" textLength="83.4126" x="1480.3685" y="1033.3663">Inventory path</text><line style="stroke:#181818;stroke-width:1.5;" x1="1522.0748" x2="1532.0748" y1="1080.0543" y2="1080.0543"/><rect fill="#F1F1F1" height="36.3441" style="stroke:#181818;stroke-width:1.5;" width="301.906" x="1532.0748" y="1061.8823"/><text fill="#000000" font-family="sans-serif" font-size="12" lengthAdjust="spacing" textLength="281.906" x="1542.0748" y="1084.7104">agentregistry-inventory -&gt; catalogs kagent Agents</text><line style="stroke:#181818;stroke-width:1.5;" x1="1522.0748" x2="1532.0748" y1="1131.3985" y2="1131.3985"/><rect fill="#F1F1F1" height="36.3441" style="stroke:#181818;stroke-width:1.5;" width="415.7389" x="1532.0748" y="1113.2264"/><text fill="#000000" font-family="sans-serif" font-size="12" lengthAdjust="spacing" textLength="395.7389" x="1542.0748" y="1136.0545">agentregistry-inventory -&gt; catalogs MCPServer and RemoteMCPServer</text><line style="stroke:#181818;stroke-width:1.5;" x1="1522.0748" x2="1532.0748" y1="1182.7426" y2="1182.7426"/><rect fill="#F1F1F1" height="36.3441" style="stroke:#181818;stroke-width:1.5;" width="374.0625" x="1532.0748" y="1164.5705"/><text fill="#000000" font-family="sans-serif" font-size="12" lengthAdjust="spacing" textLength="354.0625" x="1542.0748" y="1187.3986">operator -&gt; port-forward -&gt; inventory UI and public catalog API</text><line style="stroke:#181818;stroke-width:1.5;" x1="1522.0748" x2="1522.0748" y1="1046.8823" y2="1182.7426"/><line style="stroke:#181818;stroke-width:1.5;" x1="1460.3685" x2="1470.3685" y1="1234.0867" y2="1234.0867"/><rect fill="#F1F1F1" height="36.3441" style="stroke:#181818;stroke-width:1.5;" width="116.8887" x="1470.3685" y="1215.9146"/><text fill="#000000" font-family="sans-serif" font-size="12" lengthAdjust="spacing" textLength="96.8887" x="1480.3685" y="1238.7427">Governance path</text><line style="stroke:#181818;stroke-width:1.5;" x1="1528.8129" x2="1538.8129" y1="1285.4308" y2="1285.4308"/><rect fill="#F1F1F1" height="36.3441" style="stroke:#181818;stroke-width:1.5;" width="515.9996" x="1538.8129" y="1267.2587"/><text fill="#000000" font-family="sans-serif" font-size="12" lengthAdjust="spacing" textLength="495.9996" x="1548.8129" y="1290.0868">mcp-governance-controller -&gt; scans agentgateway, kagent, and agentregistry resources</text><line style="stroke:#181818;stroke-width:1.5;" x1="1528.8129" x2="1538.8129" y1="1336.7749" y2="1336.7749"/><rect fill="#F1F1F1" height="36.3441" style="stroke:#181818;stroke-width:1.5;" width="357.9944" x="1538.8129" y="1318.6029"/><text fill="#000000" font-family="sans-serif" font-size="12" lengthAdjust="spacing" textLength="337.9944" x="1548.8129" y="1341.4309">GovernanceEvaluation -&gt; policyRef -&gt; MCPGovernancePolicy</text><line style="stroke:#181818;stroke-width:1.5;" x1="1528.8129" x2="1538.8129" y1="1388.119" y2="1388.119"/><rect fill="#F1F1F1" height="36.3441" style="stroke:#181818;stroke-width:1.5;" width="272.0618" x="1538.8129" y="1369.947"/><text fill="#000000" font-family="sans-serif" font-size="12" lengthAdjust="spacing" textLength="252.0618" x="1548.8129" y="1392.7751">operator -&gt; port-forward -&gt; mcpg dashboard</text><line style="stroke:#181818;stroke-width:1.5;" x1="1528.8129" x2="1528.8129" y1="1252.2587" y2="1388.119"/><line style="stroke:#181818;stroke-width:1.5;" x1="1460.3685" x2="1460.3685" y1="122.6882" y2="1234.0867"/><line style="stroke:#181818;stroke-width:1.5;" x1="77.0004" x2="1460.3685" y1="66.3441" y2="66.3441"/><rect fill="#F1F1F1" height="36.3441" style="stroke:#181818;stroke-width:1.5;" width="482.4594" x="527.4548" y="10"/><text fill="#000000" font-family="sans-serif" font-size="12" lengthAdjust="spacing" textLength="462.4594" x="537.4548" y="32.8281">AgenticNativePlatform - Runtime Flow With Flux Operator And Static Cluster Roots</text><line style="stroke:#181818;stroke-width:1.5;" x1="768.6845" x2="768.6845" y1="46.3441" y2="66.3441"/><!--SRC=[ZLVRSXev47tdA_eneJ8G4sVBIoMksDZnOaD2ZEDz5Xe1AZJIhAJ1Phz-MnhD7LpxGesaxbPVpkaMtumbshwiJAyFLnicBQS_YELxjX34hfLE88B73BSJ1j-5Ue6_kTtYL_OAFrEcYLKQhcGCIujQ52OYCvPfU5JAeia-d0roOQgarKf0AeXaUD1lsd0xVKY891jc6Xe2hGc-PlH0HQKubUYtf6ounaMkR0wI3dOSVVaATzm-ibGPZgOFjUEKeFDVOJ2akPzc-CMgL0crELn6NvZSN_eR6kh3D6GYjwCPYGt-9ieo9mWhZOvilHucOSDYU43RAk7_OaQKDBbQOIJYSgs9iJgZDjEiTMWOrSosLKYQ2aw3DPVKqG1-A6staL4P1cGrMQyn-IuwxyVjAyOcYG0gE9Oq9819TFolfwS53FTdG31HmuIcNc6t8PQza0EasGglYi8oLvIrgz2QHYd52wiQjx5YXGjM0N4e2WQYLAjNR-R4DaQfbLLKYOYy4CtWQWgDovshqIKYm38XaYXBCNMC9B0YT8S11I6Cmqdj_2MHLKgO2FUYcXJCqCHiDY-gwEk7b-zvZ0YBsPfamfOfx8DANRunXwn8vcoE1SvYhev9SHa5J84ET2dBuRtIRCFHzmC2O8_B4fUOoL2h7E-HPmXWkGd2CfSfl2EKCcDWpmcMGDi8qO59YuioML0Ix9PLqVXgGbdSmg7vP05tQk_kHGv1JCnsfKf3XKUHakBmzfq-lp6i3k2olQbCriXhA0cm_JGe-mDLIQeavi5ZlOGwVcJ9YiiGjoG9Cob11s2jLG981DEYOv7q5us7IEXSy6rw5sYFp06bWg6I0fNh0Q0TIZInN3TIF-WOEiM0gzh-TGvOn2VoJMFWNP65GdToFtAy1_zpxBSl3TiPRomzGsgcnx2xC14PaQXcyT5p1B6oP1eBEwuhOwToUtasUBDVr8ZcpX8Li-8ootZ4aXMBOwnns7lmvhi3eaQkdqAGX02EcZqQhd3iT92UkVIl61jn-5ueOpUQBN_DYb1YRhfShDNb53rlkA4EreU9ack-6Gf5YV2MceXlmA1rrAv9wxX5FqnunSsgsFqQOs_tH6H-7dXFrCfLWwmuTiaWkq0MC6m5MKZo7VPd7AwXG6h7FI7F1vYPVp9ch1y7CVOSdzmyLR-dVjUdfzRoIaJLEcu7TNKqlINNtdQo3H9X_ozRLkL32vfTBKpni8lrXanhNa1ZLjHGrbLhJ9AmSFjtBE6Imz2zQYGEiY6-ZEnMgnHxy12kMQmLtU7NCzC8M_nGM25jEdPAt5SJ1nsh3TrZigSuCiavqYrWC-d7c7bKi4wpem9jxXqLgWWvBVZMJdYNaKunp4KJpERjo_n_jGep3jij71Lj9xnhKQy-yjowCXhO4KPii0zNYscloTLQM2VRWhFinsG3QXz2Z1yg6XR1jUV3iTQGk-_QnoDRkyN9nl9MmEZpflP0-8P0T7yMUlZtGDhVyncWGUDkEnkCFeu-3yxVBOc5-qp2w0BEFeq__ZaUVOR9xV89tFdxthlvz0bovo5smV1LvjnztxidUrByrnXx3jtVF9H_Fcxbdcib4pUUxf_dbS0Vvz4rFiD3LP_dlPlm-hcLL3aqZ-7tq_VeeZSZSfDX6iV8fjv4PUufYsVB_m00]--></g></svg>