<svg xmlns="http://www.w3.org/2000/svg" xmlns:xlink="http://www.w3.org/1999/xlink" contentStyleType="text/css" data-diagram-type="WBS" height="804.8px" preserveAspectRatio="none" style="width:2106px;height:804px;background:#FFFFFF;" version="1.1" viewBox="0 0 2106 804" width="2106.4px" zoomAndPan="magnify"><defs/><g><line style="stroke:#181818;stroke-width:1.2;" x1="80.2773" x2="80.2773" y1="53.0753" y2="69.0753"/><rect fill="#F1F1F1" height="29.0753" style="stroke:#181818;stroke-width:1.2;" width="144.5545" x="8" y="69.0753"/><text fill="#000000" font-family="sans-serif" font-size="9.6" lengthAdjust="spacing" textLength="128.5545" x="16" y="87.3378">1. Repository source of truth</text><line style="stroke:#181818;stroke-width:1.2;" x1="80.2773" x2="88.2773" y1="124.6882" y2="124.6882"/><rect fill="#F1F1F1" height="29.0753" style="stroke:#181818;stroke-width:1.2;" width="82.1541" x="88.2773" y="110.1506"/><text fill="#000000" font-family="sans-serif" font-size="9.6" lengthAdjust="spacing" textLength="66.1541" x="96.2773" y="128.4131">Top-level trees</text><line style="stroke:#181818;stroke-width:1.2;" x1="129.3543" x2="137.3543" y1="165.7635" y2="165.7635"/><rect fill="#F1F1F1" height="29.0753" style="stroke:#181818;stroke-width:1.2;" width="59.9203" x="137.3543" y="151.2259"/><text fill="#000000" font-family="sans-serif" font-size="9.6" lengthAdjust="spacing" textLength="43.9203" x="145.3543" y="169.4883">clusters/*</text><line style="stroke:#181818;stroke-width:1.2;" x1="129.3543" x2="137.3543" y1="206.8388" y2="206.8388"/><rect fill="#F1F1F1" height="29.0753" style="stroke:#181818;stroke-width:1.2;" width="87.2709" x="137.3543" y="192.3012"/><text fill="#000000" font-family="sans-serif" font-size="9.6" lengthAdjust="spacing" textLength="71.2709" x="145.3543" y="210.5636">infrastructure/*</text><line style="stroke:#181818;stroke-width:1.2;" x1="129.3543" x2="137.3543" y1="247.9141" y2="247.9141"/><rect fill="#F1F1F1" height="29.0753" style="stroke:#181818;stroke-width:1.2;" width="46.653" x="137.3543" y="233.3765"/><text fill="#000000" font-family="sans-serif" font-size="9.6" lengthAdjust="spacing" textLength="30.653" x="145.3543" y="251.6389">apps/*</text><line style="stroke:#181818;stroke-width:1.2;" x1="129.3543" x2="137.3543" y1="288.9894" y2="288.9894"/><rect fill="#F1F1F1" height="29.0753" style="stroke:#181818;stroke-width:1.2;" width="53.5459" x="137.3543" y="274.4517"/><text fill="#000000" font-family="sans-serif" font-size="9.6" lengthAdjust="spacing" textLength="37.5459" x="145.3543" y="292.7142">values/*</text><line style="stroke:#181818;stroke-width:1.2;" x1="129.3543" x2="137.3543" y1="330.0647" y2="330.0647"/><rect fill="#F1F1F1" height="29.0753" style="stroke:#181818;stroke-width:1.2;" width="56.9251" x="137.3543" y="315.527"/><text fill="#000000" font-family="sans-serif" font-size="9.6" lengthAdjust="spacing" textLength="40.9251" x="145.3543" y="333.7895">secrets/*</text><line style="stroke:#181818;stroke-width:1.2;" x1="129.3543" x2="137.3543" y1="371.14" y2="371.14"/><rect fill="#F1F1F1" height="29.0753" style="stroke:#181818;stroke-width:1.2;" width="52.8163" x="137.3543" y="356.6023"/><text fill="#000000" font-family="sans-serif" font-size="9.6" lengthAdjust="spacing" textLength="36.8163" x="145.3543" y="374.8648">charts/*</text><line style="stroke:#181818;stroke-width:1.2;" x1="129.3543" x2="129.3543" y1="139.2259" y2="371.14"/><line style="stroke:#181818;stroke-width:1.2;" x1="80.2773" x2="88.2773" y1="412.2153" y2="412.2153"/><rect fill="#F1F1F1" height="29.0753" style="stroke:#181818;stroke-width:1.2;" width="101.479" x="88.2773" y="397.6776"/><text fill="#000000" font-family="sans-serif" font-size="9.6" lengthAdjust="spacing" textLength="85.479" x="96.2773" y="415.9401">Operator workflow</text><line style="stroke:#181818;stroke-width:1.2;" x1="139.0168" x2="147.0168" y1="453.2906" y2="453.2906"/><rect fill="#F1F1F1" height="29.0753" style="stroke:#181818;stroke-width:1.2;" width="170.5899" x="147.0168" y="438.7529"/><text fill="#000000" font-family="sans-serif" font-size="9.6" lengthAdjust="spacing" textLength="154.5899" x="155.0168" y="457.0154">edits committed manifests in repo</text><line style="stroke:#181818;stroke-width:1.2;" x1="139.0168" x2="147.0168" y1="494.3659" y2="494.3659"/><rect fill="#F1F1F1" height="29.0753" style="stroke:#181818;stroke-width:1.2;" width="221.0383" x="147.0168" y="479.8282"/><text fill="#000000" font-family="sans-serif" font-size="9.6" lengthAdjust="spacing" textLength="205.0383" x="155.0168" y="498.0907">commits and pushes to remote Git repository</text><line style="stroke:#181818;stroke-width:1.2;" x1="257.5359" x2="265.5359" y1="535.4411" y2="535.4411"/><rect fill="#F1F1F1" height="29.0753" style="stroke:#181818;stroke-width:1.2;" width="155.0282" x="265.5359" y="520.9035"/><text fill="#000000" font-family="sans-serif" font-size="9.6" lengthAdjust="spacing" textLength="139.0282" x="273.5359" y="539.166">GIT_REPO_URL @ GIT_BRANCH</text><line style="stroke:#181818;stroke-width:1.2;" x1="257.5359" x2="257.5359" y1="508.9035" y2="535.4411"/><line style="stroke:#181818;stroke-width:1.2;" x1="139.0168" x2="139.0168" y1="426.7529" y2="494.3659"/><line style="stroke:#181818;stroke-width:1.2;" x1="80.2773" x2="88.2773" y1="576.5164" y2="576.5164"/><rect fill="#F1F1F1" height="29.0753" style="stroke:#181818;stroke-width:1.2;" width="88.1733" x="88.2773" y="561.9788"/><text fill="#000000" font-family="sans-serif" font-size="9.6" lengthAdjust="spacing" textLength="72.1733" x="96.2773" y="580.2413">Layout principle</text><line style="stroke:#181818;stroke-width:1.2;" x1="132.3639" x2="140.3639" y1="617.5917" y2="617.5917"/><rect fill="#F1F1F1" height="29.0753" style="stroke:#181818;stroke-width:1.2;" width="395.75" x="140.3639" y="603.0541"/><text fill="#000000" font-family="sans-serif" font-size="9.6" lengthAdjust="spacing" textLength="379.75" x="148.3639" y="621.3166">committed cluster roots and shared top-level trees define the GitOps source of truth</text><line style="stroke:#181818;stroke-width:1.2;" x1="132.3639" x2="132.3639" y1="591.0541" y2="617.5917"/><line style="stroke:#181818;stroke-width:1.2;" x1="80.2773" x2="80.2773" y1="98.1506" y2="576.5164"/><line style="stroke:#181818;stroke-width:1.2;" x1="594.4245" x2="594.4245" y1="53.0753" y2="69.0753"/><rect fill="#F1F1F1" height="29.0753" style="stroke:#181818;stroke-width:1.2;" width="84.6213" x="552.1139" y="69.0753"/><text fill="#000000" font-family="sans-serif" font-size="9.6" lengthAdjust="spacing" textLength="68.6213" x="560.1139" y="87.3378">2. Cluster roots</text><line style="stroke:#181818;stroke-width:1.2;" x1="594.4245" x2="602.4245" y1="124.6882" y2="124.6882"/><rect fill="#F1F1F1" height="29.0753" style="stroke:#181818;stroke-width:1.2;" width="115.2263" x="602.4245" y="110.1506"/><text fill="#000000" font-family="sans-serif" font-size="9.6" lengthAdjust="spacing" textLength="99.2263" x="610.4245" y="128.4131">Committed sync roots</text><line style="stroke:#181818;stroke-width:1.2;" x1="660.0377" x2="668.0377" y1="165.7635" y2="165.7635"/><rect fill="#F1F1F1" height="29.0753" style="stroke:#181818;stroke-width:1.2;" width="94.6726" x="668.0377" y="151.2259"/><text fill="#000000" font-family="sans-serif" font-size="9.6" lengthAdjust="spacing" textLength="78.6726" x="676.0377" y="169.4883">clusters/local-dev</text><line style="stroke:#181818;stroke-width:1.2;" x1="660.0377" x2="668.0377" y1="206.8388" y2="206.8388"/><rect fill="#F1F1F1" height="29.0753" style="stroke:#181818;stroke-width:1.2;" width="154.2698" x="668.0377" y="192.3012"/><text fill="#000000" font-family="sans-serif" font-size="9.6" lengthAdjust="spacing" textLength="138.2698" x="676.0377" y="210.5636">clusters/github-codespace-dev</text><line style="stroke:#181818;stroke-width:1.2;" x1="660.0377" x2="668.0377" y1="247.9141" y2="247.9141"/><rect fill="#F1F1F1" height="29.0753" style="stroke:#181818;stroke-width:1.2;" width="104.2918" x="668.0377" y="233.3765"/><text fill="#000000" font-family="sans-serif" font-size="9.6" lengthAdjust="spacing" textLength="88.2918" x="676.0377" y="251.6389">clusters/minipc-dev</text><line style="stroke:#181818;stroke-width:1.2;" x1="660.0377" x2="668.0377" y1="288.9894" y2="288.9894"/><rect fill="#F1F1F1" height="29.0753" style="stroke:#181818;stroke-width:1.2;" width="102.9958" x="668.0377" y="274.4517"/><text fill="#000000" font-family="sans-serif" font-size="9.6" lengthAdjust="spacing" textLength="86.9958" x="676.0377" y="292.7142">clusters/hybrid-dev</text><line style="stroke:#181818;stroke-width:1.2;" x1="660.0377" x2="668.0377" y1="330.0647" y2="330.0647"/><rect fill="#F1F1F1" height="29.0753" style="stroke:#181818;stroke-width:1.2;" width="139.1305" x="668.0377" y="315.527"/><text fill="#000000" font-family="sans-serif" font-size="9.6" lengthAdjust="spacing" textLength="123.1305" x="676.0377" y="333.7895">clusters/hybrid-remote-dev</text><line style="stroke:#181818;stroke-width:1.2;" x1="660.0377" x2="660.0377" y1="139.2259" y2="330.0647"/><line style="stroke:#181818;stroke-width:1.2;" x1="594.4245" x2="602.4245" y1="371.14" y2="371.14"/><rect fill="#F1F1F1" height="29.0753" style="stroke:#181818;stroke-width:1.2;" width="109.9175" x="602.4245" y="356.6023"/><text fill="#000000" font-family="sans-serif" font-size="9.6" lengthAdjust="spacing" textLength="93.9175" x="610.4245" y="374.8648">Per-cluster wrappers</text><line style="stroke:#181818;stroke-width:1.2;" x1="657.3833" x2="665.3833" y1="412.2153" y2="412.2153"/><rect fill="#F1F1F1" height="29.0753" style="stroke:#181818;stroke-width:1.2;" width="81.9813" x="665.3833" y="397.6776"/><text fill="#000000" font-family="sans-serif" font-size="9.6" lengthAdjust="spacing" textLength="65.9813" x="673.3833" y="415.9401">infrastructure/</text><line style="stroke:#181818;stroke-width:1.2;" x1="706.3739" x2="714.3739" y1="453.2906" y2="453.2906"/><rect fill="#F1F1F1" height="29.0753" style="stroke:#181818;stroke-width:1.2;" width="307.2948" x="714.3739" y="438.7529"/><text fill="#000000" font-family="sans-serif" font-size="9.6" lengthAdjust="spacing" textLength="291.2948" x="722.3739" y="457.0154">cluster-scoped wrapper around shared infrastructure and values</text><line style="stroke:#181818;stroke-width:1.2;" x1="706.3739" x2="706.3739" y1="426.7529" y2="453.2906"/><line style="stroke:#181818;stroke-width:1.2;" x1="657.3833" x2="665.3833" y1="494.3659" y2="494.3659"/><rect fill="#F1F1F1" height="29.0753" style="stroke:#181818;stroke-width:1.2;" width="51.6355" x="665.3833" y="479.8282"/><text fill="#000000" font-family="sans-serif" font-size="9.6" lengthAdjust="spacing" textLength="35.6355" x="673.3833" y="498.0907">secrets/</text><line style="stroke:#181818;stroke-width:1.2;" x1="691.201" x2="699.201" y1="535.4411" y2="535.4411"/><rect fill="#F1F1F1" height="29.0753" style="stroke:#181818;stroke-width:1.2;" width="234.92" x="699.201" y="520.9035"/><text fill="#000000" font-family="sans-serif" font-size="9.6" lengthAdjust="spacing" textLength="218.92" x="707.201" y="539.166">cluster-scoped wrapper around topology secrets</text><line style="stroke:#181818;stroke-width:1.2;" x1="691.201" x2="691.201" y1="508.9035" y2="535.4411"/><line style="stroke:#181818;stroke-width:1.2;" x1="657.3833" x2="665.3833" y1="576.5164" y2="576.5164"/><rect fill="#F1F1F1" height="29.0753" style="stroke:#181818;stroke-width:1.2;" width="41.3634" x="665.3833" y="561.9788"/><text fill="#000000" font-family="sans-serif" font-size="9.6" lengthAdjust="spacing" textLength="25.3634" x="673.3833" y="580.2413">apps/</text><line style="stroke:#181818;stroke-width:1.2;" x1="686.065" x2="694.065" y1="617.5917" y2="617.5917"/><rect fill="#F1F1F1" height="29.0753" style="stroke:#181818;stroke-width:1.2;" width="290.4564" x="694.065" y="603.0541"/><text fill="#000000" font-family="sans-serif" font-size="9.6" lengthAdjust="spacing" textLength="274.4564" x="702.065" y="621.3166">cluster-scoped wrapper around shared application manifests</text><line style="stroke:#181818;stroke-width:1.2;" x1="686.065" x2="686.065" y1="591.0541" y2="617.5917"/><line style="stroke:#181818;stroke-width:1.2;" x1="657.3833" x2="665.3833" y1="658.667" y2="658.667"/><rect fill="#F1F1F1" height="29.0753" style="stroke:#181818;stroke-width:1.2;" width="153.4058" x="665.3833" y="644.1294"/><text fill="#000000" font-family="sans-serif" font-size="9.6" lengthAdjust="spacing" textLength="137.4058" x="673.3833" y="662.3918">flux-system/flux-instance.yaml</text><line style="stroke:#181818;stroke-width:1.2;" x1="742.0862" x2="750.0862" y1="699.7423" y2="699.7423"/><rect fill="#F1F1F1" height="29.0753" style="stroke:#181818;stroke-width:1.2;" width="245.7777" x="750.0862" y="685.2047"/><text fill="#000000" font-family="sans-serif" font-size="9.6" lengthAdjust="spacing" textLength="229.7777" x="758.0862" y="703.4671">committed template with url/ref/path placeholders</text><line style="stroke:#181818;stroke-width:1.2;" x1="742.0862" x2="742.0862" y1="673.2047" y2="699.7423"/><line style="stroke:#181818;stroke-width:1.2;" x1="657.3833" x2="657.3833" y1="385.6776" y2="658.667"/><line style="stroke:#181818;stroke-width:1.2;" x1="594.4245" x2="594.4245" y1="98.1506" y2="371.14"/><line style="stroke:#181818;stroke-width:1.2;" x1="1091.2691" x2="1091.2691" y1="53.0753" y2="69.0753"/><rect fill="#F1F1F1" height="29.0753" style="stroke:#181818;stroke-width:1.2;" width="107.2006" x="1037.6687" y="69.0753"/><text fill="#000000" font-family="sans-serif" font-size="9.6" lengthAdjust="spacing" textLength="91.2006" x="1045.6687" y="87.3378">3. Flux control plane</text><line style="stroke:#181818;stroke-width:1.2;" x1="1091.2691" x2="1099.2691" y1="124.6882" y2="124.6882"/><rect fill="#F1F1F1" height="29.0753" style="stroke:#181818;stroke-width:1.2;" width="78.3716" x="1099.2691" y="110.1506"/><text fill="#000000" font-family="sans-serif" font-size="9.6" lengthAdjust="spacing" textLength="62.3716" x="1107.2691" y="128.4131">Flux Operator</text><line style="stroke:#181818;stroke-width:1.2;" x1="1138.4549" x2="1146.4549" y1="165.7635" y2="165.7635"/><rect fill="#F1F1F1" height="29.0753" style="stroke:#181818;stroke-width:1.2;" width="183.2044" x="1146.4549" y="151.2259"/><text fill="#000000" font-family="sans-serif" font-size="9.6" lengthAdjust="spacing" textLength="167.2044" x="1154.4549" y="169.4883">installs and manages Flux controllers</text><line style="stroke:#181818;stroke-width:1.2;" x1="1138.4549" x2="1138.4549" y1="139.2259" y2="165.7635"/><line style="stroke:#181818;stroke-width:1.2;" x1="1091.2691" x2="1099.2691" y1="206.8388" y2="206.8388"/><rect fill="#F1F1F1" height="29.0753" style="stroke:#181818;stroke-width:1.2;" width="93.4245" x="1099.2691" y="192.3012"/><text fill="#000000" font-family="sans-serif" font-size="9.6" lengthAdjust="spacing" textLength="77.4245" x="1107.2691" y="210.5636">FluxInstance/flux</text><line style="stroke:#181818;stroke-width:1.2;" x1="1145.9813" x2="1153.9813" y1="247.9141" y2="247.9141"/><rect fill="#F1F1F1" height="29.0753" style="stroke:#181818;stroke-width:1.2;" width="129.7704" x="1153.9813" y="233.3765"/><text fill="#000000" font-family="sans-serif" font-size="9.6" lengthAdjust="spacing" textLength="113.7704" x="1161.9813" y="251.6389">sync.kind = GitRepository</text><line style="stroke:#181818;stroke-width:1.2;" x1="1145.9813" x2="1153.9813" y1="288.9894" y2="288.9894"/><rect fill="#F1F1F1" height="29.0753" style="stroke:#181818;stroke-width:1.2;" width="195.9053" x="1153.9813" y="274.4517"/><text fill="#000000" font-family="sans-serif" font-size="9.6" lengthAdjust="spacing" textLength="179.9053" x="1161.9813" y="292.7142">sync.path = ./clusters/&lt;topology&gt;-&lt;env&gt;</text><line style="stroke:#181818;stroke-width:1.2;" x1="1145.9813" x2="1145.9813" y1="221.3765" y2="288.9894"/><line style="stroke:#181818;stroke-width:1.2;" x1="1091.2691" x2="1099.2691" y1="330.0647" y2="330.0647"/><rect fill="#F1F1F1" height="29.0753" style="stroke:#181818;stroke-width:1.2;" width="120.0936" x="1099.2691" y="315.527"/><text fill="#000000" font-family="sans-serif" font-size="9.6" lengthAdjust="spacing" textLength="104.0936" x="1107.2691" y="333.7895">GitRepository/platform</text><line style="stroke:#181818;stroke-width:1.2;" x1="1159.3158" x2="1167.3158" y1="371.14" y2="371.14"/><rect fill="#F1F1F1" height="29.0753" style="stroke:#181818;stroke-width:1.2;" width="281.2595" x="1167.3158" y="356.6023"/><text fill="#000000" font-family="sans-serif" font-size="9.6" lengthAdjust="spacing" textLength="265.2595" x="1175.3158" y="374.8648">Flux reconciles remote Git state, not local unpublished files</text><line style="stroke:#181818;stroke-width:1.2;" x1="1159.3158" x2="1159.3158" y1="344.6023" y2="371.14"/><line style="stroke:#181818;stroke-width:1.2;" x1="1091.2691" x2="1091.2691" y1="98.1506" y2="330.0647"/><line style="stroke:#181818;stroke-width:1.2;" x1="1525.1933" x2="1525.1933" y1="53.0753" y2="69.0753"/><rect fill="#F1F1F1" height="29.0753" style="stroke:#181818;stroke-width:1.2;" width="121.2359" x="1464.5753" y="69.0753"/><text fill="#000000" font-family="sans-serif" font-size="9.6" lengthAdjust="spacing" textLength="105.2359" x="1472.5753" y="87.3378">4. Staged reconciliation</text><line style="stroke:#181818;stroke-width:1.2;" x1="1525.1933" x2="1533.1933" y1="124.6882" y2="124.6882"/><rect fill="#F1F1F1" height="29.0753" style="stroke:#181818;stroke-width:1.2;" width="120.7848" x="1533.1933" y="110.1506"/><text fill="#000000" font-family="sans-serif" font-size="9.6" lengthAdjust="spacing" textLength="104.7848" x="1541.1933" y="128.4131">platform-infrastructure</text><line style="stroke:#181818;stroke-width:1.2;" x1="1593.5857" x2="1601.5857" y1="165.7635" y2="165.7635"/><rect fill="#F1F1F1" height="29.0753" style="stroke:#181818;stroke-width:1.2;" width="229.7263" x="1601.5857" y="151.2259"/><text fill="#000000" font-family="sans-serif" font-size="9.6" lengthAdjust="spacing" textLength="213.7263" x="1609.5857" y="169.4883">reads clusters/&lt;topology&gt;-&lt;env&gt;/infrastructure</text><line style="stroke:#181818;stroke-width:1.2;" x1="1593.5857" x2="1601.5857" y1="206.8388" y2="206.8388"/><rect fill="#F1F1F1" height="29.0753" style="stroke:#181818;stroke-width:1.2;" width="130.1928" x="1601.5857" y="192.3012"/><text fill="#000000" font-family="sans-serif" font-size="9.6" lengthAdjust="spacing" textLength="114.1928" x="1609.5857" y="210.5636">composes infrastructure/</text><line style="stroke:#181818;stroke-width:1.2;" x1="1593.5857" x2="1601.5857" y1="247.9141" y2="247.9141"/><rect fill="#F1F1F1" height="29.0753" style="stroke:#181818;stroke-width:1.2;" width="96.4678" x="1601.5857" y="233.3765"/><text fill="#000000" font-family="sans-serif" font-size="9.6" lengthAdjust="spacing" textLength="80.4678" x="1609.5857" y="251.6389">composes values/</text><line style="stroke:#181818;stroke-width:1.2;" x1="1593.5857" x2="1593.5857" y1="139.2259" y2="247.9141"/><line style="stroke:#181818;stroke-width:1.2;" x1="1525.1933" x2="1533.1933" y1="288.9894" y2="288.9894"/><rect fill="#F1F1F1" height="29.0753" style="stroke:#181818;stroke-width:1.2;" width="90.439" x="1533.1933" y="274.4517"/><text fill="#000000" font-family="sans-serif" font-size="9.6" lengthAdjust="spacing" textLength="74.439" x="1541.1933" y="292.7142">platform-secrets</text><line style="stroke:#181818;stroke-width:1.2;" x1="1578.4128" x2="1586.4128" y1="330.0647" y2="330.0647"/><rect fill="#F1F1F1" height="29.0753" style="stroke:#181818;stroke-width:1.2;" width="175.7835" x="1586.4128" y="315.527"/><text fill="#000000" font-family="sans-serif" font-size="9.6" lengthAdjust="spacing" textLength="159.7835" x="1594.4128" y="333.7895">dependsOn platform-infrastructure</text><line style="stroke:#181818;stroke-width:1.2;" x1="1578.4128" x2="1586.4128" y1="371.14" y2="371.14"/><rect fill="#F1F1F1" height="29.0753" style="stroke:#181818;stroke-width:1.2;" width="199.3805" x="1586.4128" y="356.6023"/><text fill="#000000" font-family="sans-serif" font-size="9.6" lengthAdjust="spacing" textLength="183.3805" x="1594.4128" y="374.8648">reads clusters/&lt;topology&gt;-&lt;env&gt;/secrets</text><line style="stroke:#181818;stroke-width:1.2;" x1="1578.4128" x2="1586.4128" y1="412.2153" y2="412.2153"/><rect fill="#F1F1F1" height="29.0753" style="stroke:#181818;stroke-width:1.2;" width="154.4714" x="1586.4128" y="397.6776"/><text fill="#000000" font-family="sans-serif" font-size="9.6" lengthAdjust="spacing" textLength="138.4714" x="1594.4128" y="415.9401">composes secrets/&lt;topology&gt;/</text><line style="stroke:#181818;stroke-width:1.2;" x1="1578.4128" x2="1578.4128" y1="303.527" y2="412.2153"/><line style="stroke:#181818;stroke-width:1.2;" x1="1525.1933" x2="1533.1933" y1="453.2906" y2="453.2906"/><rect fill="#F1F1F1" height="29.0753" style="stroke:#181818;stroke-width:1.2;" width="112.7975" x="1533.1933" y="438.7529"/><text fill="#000000" font-family="sans-serif" font-size="9.6" lengthAdjust="spacing" textLength="96.7975" x="1541.1933" y="457.0154">platform-applications</text><line style="stroke:#181818;stroke-width:1.2;" x1="1589.592" x2="1597.592" y1="494.3659" y2="494.3659"/><rect fill="#F1F1F1" height="29.0753" style="stroke:#181818;stroke-width:1.2;" width="145.4377" x="1597.592" y="479.8282"/><text fill="#000000" font-family="sans-serif" font-size="9.6" lengthAdjust="spacing" textLength="129.4377" x="1605.592" y="498.0907">dependsOn platform-secrets</text><line style="stroke:#181818;stroke-width:1.2;" x1="1589.592" x2="1597.592" y1="535.4411" y2="535.4411"/><rect fill="#F1F1F1" height="29.0753" style="stroke:#181818;stroke-width:1.2;" width="189.1084" x="1597.592" y="520.9035"/><text fill="#000000" font-family="sans-serif" font-size="9.6" lengthAdjust="spacing" textLength="173.1084" x="1605.592" y="539.166">reads clusters/&lt;topology&gt;-&lt;env&gt;/apps</text><line style="stroke:#181818;stroke-width:1.2;" x1="1589.592" x2="1597.592" y1="576.5164" y2="576.5164"/><rect fill="#F1F1F1" height="29.0753" style="stroke:#181818;stroke-width:1.2;" width="89.5749" x="1597.592" y="561.9788"/><text fill="#000000" font-family="sans-serif" font-size="9.6" lengthAdjust="spacing" textLength="73.5749" x="1605.592" y="580.2413">composes apps/</text><line style="stroke:#181818;stroke-width:1.2;" x1="1589.592" x2="1589.592" y1="467.8282" y2="576.5164"/><line style="stroke:#181818;stroke-width:1.2;" x1="1525.1933" x2="1525.1933" y1="98.1506" y2="453.2906"/><line style="stroke:#181818;stroke-width:1.2;" x1="1894.0387" x2="1894.0387" y1="53.0753" y2="69.0753"/><rect fill="#F1F1F1" height="29.0753" style="stroke:#181818;stroke-width:1.2;" width="93.4534" x="1847.312" y="69.0753"/><text fill="#000000" font-family="sans-serif" font-size="9.6" lengthAdjust="spacing" textLength="77.4534" x="1855.312" y="87.3378">5. OCI-ready split</text><line style="stroke:#181818;stroke-width:1.2;" x1="1894.0387" x2="1902.0387" y1="124.6882" y2="124.6882"/><rect fill="#F1F1F1" height="29.0753" style="stroke:#181818;stroke-width:1.2;" width="81.9813" x="1902.0387" y="110.1506"/><text fill="#000000" font-family="sans-serif" font-size="9.6" lengthAdjust="spacing" textLength="65.9813" x="1910.0387" y="128.4131">infrastructure/</text><line style="stroke:#181818;stroke-width:1.2;" x1="1943.0293" x2="1951.0293" y1="165.7635" y2="165.7635"/><rect fill="#F1F1F1" height="29.0753" style="stroke:#181818;stroke-width:1.2;" width="50.9251" x="1951.0293" y="151.2259"/><text fill="#000000" font-family="sans-serif" font-size="9.6" lengthAdjust="spacing" textLength="34.9251" x="1959.0293" y="169.4883">sources</text><line style="stroke:#181818;stroke-width:1.2;" x1="1943.0293" x2="1951.0293" y1="206.8388" y2="206.8388"/><rect fill="#F1F1F1" height="29.0753" style="stroke:#181818;stroke-width:1.2;" width="64.5188" x="1951.0293" y="192.3012"/><text fill="#000000" font-family="sans-serif" font-size="9.6" lengthAdjust="spacing" textLength="48.5188" x="1959.0293" y="210.5636">controllers</text><line style="stroke:#181818;stroke-width:1.2;" x1="1943.0293" x2="1951.0293" y1="247.9141" y2="247.9141"/><rect fill="#F1F1F1" height="29.0753" style="stroke:#181818;stroke-width:1.2;" width="53.2579" x="1951.0293" y="233.3765"/><text fill="#000000" font-family="sans-serif" font-size="9.6" lengthAdjust="spacing" textLength="37.2579" x="1959.0293" y="251.6389">network</text><line style="stroke:#181818;stroke-width:1.2;" x1="1943.0293" x2="1951.0293" y1="288.9894" y2="288.9894"/><rect fill="#F1F1F1" height="29.0753" style="stroke:#181818;stroke-width:1.2;" width="73.6484" x="1951.0293" y="274.4517"/><text fill="#000000" font-family="sans-serif" font-size="9.6" lengthAdjust="spacing" textLength="57.6484" x="1959.0293" y="292.7142">observability</text><line style="stroke:#181818;stroke-width:1.2;" x1="1943.0293" x2="1951.0293" y1="330.0647" y2="330.0647"/><rect fill="#F1F1F1" height="29.0753" style="stroke:#181818;stroke-width:1.2;" width="51.3571" x="1951.0293" y="315.527"/><text fill="#000000" font-family="sans-serif" font-size="9.6" lengthAdjust="spacing" textLength="35.3571" x="1959.0293" y="333.7895">security</text><line style="stroke:#181818;stroke-width:1.2;" x1="1943.0293" x2="1943.0293" y1="139.2259" y2="330.0647"/><line style="stroke:#181818;stroke-width:1.2;" x1="1894.0387" x2="1902.0387" y1="371.14" y2="371.14"/><rect fill="#F1F1F1" height="29.0753" style="stroke:#181818;stroke-width:1.2;" width="41.3634" x="1902.0387" y="356.6023"/><text fill="#000000" font-family="sans-serif" font-size="9.6" lengthAdjust="spacing" textLength="25.3634" x="1910.0387" y="374.8648">apps/</text><line style="stroke:#181818;stroke-width:1.2;" x1="1922.7203" x2="1930.7203" y1="412.2153" y2="412.2153"/><rect fill="#F1F1F1" height="29.0753" style="stroke:#181818;stroke-width:1.2;" width="55.2835" x="1930.7203" y="397.6776"/><text fill="#000000" font-family="sans-serif" font-size="9.6" lengthAdjust="spacing" textLength="39.2835" x="1938.7203" y="415.9401">platform</text><line style="stroke:#181818;stroke-width:1.2;" x1="1922.7203" x2="1930.7203" y1="453.2906" y2="453.2906"/><rect fill="#F1F1F1" height="29.0753" style="stroke:#181818;stroke-width:1.2;" width="64.9507" x="1930.7203" y="438.7529"/><text fill="#000000" font-family="sans-serif" font-size="9.6" lengthAdjust="spacing" textLength="48.9507" x="1938.7203" y="457.0154">ai-gateway</text><line style="stroke:#181818;stroke-width:1.2;" x1="1922.7203" x2="1930.7203" y1="494.3659" y2="494.3659"/><rect fill="#F1F1F1" height="29.0753" style="stroke:#181818;stroke-width:1.2;" width="60.1315" x="1930.7203" y="479.8282"/><text fill="#000000" font-family="sans-serif" font-size="9.6" lengthAdjust="spacing" textLength="44.1315" x="1938.7203" y="498.0907">ai-models</text><line style="stroke:#181818;stroke-width:1.2;" x1="1922.7203" x2="1930.7203" y1="535.4411" y2="535.4411"/><rect fill="#F1F1F1" height="29.0753" style="stroke:#181818;stroke-width:1.2;" width="49.773" x="1930.7203" y="520.9035"/><text fill="#000000" font-family="sans-serif" font-size="9.6" lengthAdjust="spacing" textLength="33.773" x="1938.7203" y="539.166">context</text><line style="stroke:#181818;stroke-width:1.2;" x1="1922.7203" x2="1922.7203" y1="385.6776" y2="535.4411"/><line style="stroke:#181818;stroke-width:1.2;" x1="1894.0387" x2="1902.0387" y1="576.5164" y2="576.5164"/><rect fill="#F1F1F1" height="29.0753" style="stroke:#181818;stroke-width:1.2;" width="48.2562" x="1902.0387" y="561.9788"/><text fill="#000000" font-family="sans-serif" font-size="9.6" lengthAdjust="spacing" textLength="32.2562" x="1910.0387" y="580.2413">values/</text><line style="stroke:#181818;stroke-width:1.2;" x1="1926.1668" x2="1934.1668" y1="617.5917" y2="617.5917"/><rect fill="#F1F1F1" height="29.0753" style="stroke:#181818;stroke-width:1.2;" width="85.8405" x="1934.1668" y="603.0541"/><text fill="#000000" font-family="sans-serif" font-size="9.6" lengthAdjust="spacing" textLength="69.8405" x="1942.1668" y="621.3166">non-secret only</text><line style="stroke:#181818;stroke-width:1.2;" x1="1926.1668" x2="1934.1668" y1="658.667" y2="658.667"/><rect fill="#F1F1F1" height="29.0753" style="stroke:#181818;stroke-width:1.2;" width="144.8521" x="1934.1668" y="644.1294"/><text fill="#000000" font-family="sans-serif" font-size="9.6" lengthAdjust="spacing" textLength="128.8521" x="1942.1668" y="662.3918">future OCI artifact candidate</text><line style="stroke:#181818;stroke-width:1.2;" x1="1926.1668" x2="1926.1668" y1="591.0541" y2="658.667"/><line style="stroke:#181818;stroke-width:1.2;" x1="1894.0387" x2="1902.0387" y1="699.7423" y2="699.7423"/><rect fill="#F1F1F1" height="29.0753" style="stroke:#181818;stroke-width:1.2;" width="51.6355" x="1902.0387" y="685.2047"/><text fill="#000000" font-family="sans-serif" font-size="9.6" lengthAdjust="spacing" textLength="35.6355" x="1910.0387" y="703.4671">secrets/</text><line style="stroke:#181818;stroke-width:1.2;" x1="1927.8564" x2="1935.8564" y1="740.8176" y2="740.8176"/><rect fill="#F1F1F1" height="29.0753" style="stroke:#181818;stroke-width:1.2;" width="95.7094" x="1935.8564" y="726.28"/><text fill="#000000" font-family="sans-serif" font-size="9.6" lengthAdjust="spacing" textLength="79.7094" x="1943.8564" y="744.5424">SOPS by topology</text><line style="stroke:#181818;stroke-width:1.2;" x1="1927.8564" x2="1935.8564" y1="781.8929" y2="781.8929"/><rect fill="#F1F1F1" height="29.0753" style="stroke:#181818;stroke-width:1.2;" width="161.9883" x="1935.8564" y="767.3552"/><text fill="#000000" font-family="sans-serif" font-size="9.6" lengthAdjust="spacing" textLength="145.9883" x="1943.8564" y="785.6177">separate from non-secret values</text><line style="stroke:#181818;stroke-width:1.2;" x1="1927.8564" x2="1927.8564" y1="714.28" y2="781.8929"/><line style="stroke:#181818;stroke-width:1.2;" x1="1894.0387" x2="1894.0387" y1="98.1506" y2="699.7423"/><line style="stroke:#181818;stroke-width:1.2;" x1="80.2773" x2="1894.0387" y1="53.0753" y2="53.0753"/><rect fill="#F1F1F1" height="29.0753" style="stroke:#181818;stroke-width:1.2;" width="365.7786" x="804.2686" y="8"/><text fill="#000000" font-family="sans-serif" font-size="9.6" lengthAdjust="spacing" textLength="349.7786" x="812.2686" y="26.2625">AgenticNativePlatform - Static GitOps Layout And Staged Cluster Composition</text><line style="stroke:#181818;stroke-width:1.2;" x1="987.158" x2="987.158" y1="37.0753" y2="53.0753"/><!--SRC=[fLPRSzCu57xthpYFa5axDBGCcm6c9HIstPPqafHNHf6F4msovD4bmVz-Z-HBucuwiBDlEVTFv_8vbzOnu_PhcupWQeFA2VwLER731ybSeKq9AImTQJXy4MvUMRXZjVOEhbGU31lCOIQzTMXWfijAM-64Libe16SPB30gjAd1QcyuWYx06U-sv322bQvIYJkKf4EqGJS2tcIpur4Z2rKOPYc8Es-mqxAgwZrsJ7hi9OlSeEj5lgNtjHBCApICuC1Ucn-5rFl61tFXB71Tbi8vUb39b2ZGaaueCFI6DbLqiC3ewPMtMxJWDDbBxJ1q9xespuq18_Xoi_g-k7wOVtzStC5b53ykhhxE_efesavMHYWkAed7LGACjXDWj6whMdeC6TomRv1Z8HI2ss8tfAVT3lEOPFsaOiQ8OTPNixNY1yFH7AJcJAOvxfxeDy9j_JhbEaTRCOudN4gXHCLF6BRrseZyUKFJrCuE3sZIhXjxGxCdrvFRqVQzzKqjrnKzhGq1PhG_T74O6llRRD9mZtuh9Kr4IxsfkwYZ9Vqla4Wd1MVXWWvBsEGgfF-PsffobEFuMoWwNSKngrafkoBzDCcjeWj6sDEKm1ivDbYCAqO2wJbkjSn34yDYlCxWCsMaQEMCbi51nMLirDtHT0sdib8s-qWOYG7i85osiudAcnPaXDpsbVOi-o4e-dtOriNmPXfpnFaUid6_5- -w3dz8tw7QVOWL1k7ZgcMi9a-4P910SI49uj6P4YI7Vu3I3k9kWrULNqj15vr34RnZMywpZk2wD8Art3Q2hbWwtAAcja6MMtWM-_XK38_aYVRaHX-iBTSDCGoMBiSALMxdwlzX7EJiotT7SN1_0kLeWv_7CyZzAo3XY9wWQEugpEWYW_di9WqvwFQej4kUOuMM4_jSWsKTWK8NFWgDeDSMpOwjQUIkxkd0crOwEcmORXqJwOQMQy_gNYw97-LHLVpPO3oQ95NNgkqAQ2NRuC97Og874aquKJ3kWDFPYPnA9F_YA5ZE7vQmhdiowe1Np0GcA8mkZmkrP7T9qmdV_uI- -Ceztj_1ZfeI6EWicxoQN6JdBvRCmQrNC7aBPw-dh_wSJYvWThrSGR2_J5xStwowBqukgErYxSC2l4nksOx1mjE_YXAdWKZKxQU_EmLSgvqmMfNqhoEv_NP_S7XpddwaErtI38WYlzqddx1WNZgAeA-DK9ifFAu-fs-JEwOsdavq2gYI6J6fCpNPbly0]--></g></svg>