<svg xmlns="http://www.w3.org/2000/svg" width="1200" height="980" viewBox="0 0 1200 980" role="img" aria-labelledby="title desc">
  <title id="title">Current platform architecture</title>
  <desc id="desc">Current request flow and component relationships for the Agentic Kubernetes Native Platform.</desc>
  <defs>
    <style>
      .bg { fill: #f8fafc; }
      .lane { fill: #ffffff; stroke: #cbd5e1; stroke-width: 2; rx: 18; ry: 18; }
      .node { fill: #ffffff; stroke: #0f172a; stroke-width: 2; rx: 12; ry: 12; }
      .node-accent { fill: #ecfeff; stroke: #155e75; stroke-width: 2; rx: 12; ry: 12; }
      .node-runtime { fill: #f0fdf4; stroke: #166534; stroke-width: 2; rx: 12; ry: 12; }
      .node-provider { fill: #fff7ed; stroke: #9a3412; stroke-width: 2; rx: 12; ry: 12; }
      .label { font-family: Arial, Helvetica, sans-serif; font-size: 20px; font-weight: 700; fill: #0f172a; }
      .text { font-family: Arial, Helvetica, sans-serif; font-size: 18px; fill: #0f172a; }
      .small { font-family: Arial, Helvetica, sans-serif; font-size: 16px; fill: #334155; }
      .arrow { stroke: #0f172a; stroke-width: 3; fill: none; marker-end: url(#arrowhead); }
      .arrow-soft { stroke: #475569; stroke-width: 2.5; fill: none; stroke-dasharray: 9 7; marker-end: url(#arrowhead-soft); }
    </style>
    <marker id="arrowhead" markerWidth="10" markerHeight="10" refX="8" refY="5" orient="auto">
      <polygon points="0 0, 10 5, 0 10" fill="#0f172a" />
    </marker>
    <marker id="arrowhead-soft" markerWidth="10" markerHeight="10" refX="8" refY="5" orient="auto">
      <polygon points="0 0, 10 5, 0 10" fill="#475569" />
    </marker>
  </defs>

  <rect class="bg" x="0" y="0" width="1200" height="980" />

  <text class="label" x="60" y="52">Agentic Kubernetes Native Platform: current architecture</text>
  <text class="small" x="60" y="82">North-south ingress flows through kgateway and agentgateway. LLM traffic reaches providers through LiteLLM, while MCP traffic routes separately to kmcp-managed servers.</text>

  <rect class="lane" x="40" y="110" width="680" height="430" />
  <text class="label" x="60" y="145">Ingress and routing path</text>

  <rect class="lane" x="760" y="110" width="400" height="430" />
  <text class="label" x="780" y="145">Providers and runtimes</text>

  <rect class="lane" x="40" y="580" width="1120" height="330" />
  <text class="label" x="60" y="615">Agent and platform services</text>

  <rect class="node" x="290" y="170" width="180" height="56" />
  <text class="text" x="360" y="205" text-anchor="middle">Internet / clients</text>

  <rect class="node" x="290" y="255" width="180" height="56" />
  <text class="text" x="360" y="290" text-anchor="middle">LoadBalancer Service</text>

  <rect class="node-accent" x="290" y="340" width="180" height="56" />
  <text class="text" x="360" y="375" text-anchor="middle">kgateway</text>

  <rect class="node" x="290" y="425" width="180" height="56" />
  <text class="text" x="360" y="460" text-anchor="middle">Istio Ambient mesh</text>

  <rect class="node-accent" x="290" y="510" width="180" height="56" />
  <text class="text" x="360" y="545" text-anchor="middle">agentgateway</text>

  <rect class="node-accent" x="540" y="510" width="180" height="56" />
  <text class="text" x="630" y="545" text-anchor="middle">LiteLLM</text>

  <path class="arrow" d="M360 226 L360 255" />
  <path class="arrow" d="M360 311 L360 340" />
  <path class="arrow" d="M360 396 L360 425" />
  <path class="arrow" d="M360 481 L360 510" />
  <path class="arrow" d="M470 538 L540 538" />

  <rect class="node-provider" x="840" y="180" width="220" height="56" />
  <text class="text" x="950" y="215" text-anchor="middle">Gemini</text>

  <rect class="node-provider" x="840" y="265" width="220" height="56" />
  <text class="text" x="950" y="300" text-anchor="middle">OpenAI</text>

  <rect class="node-provider" x="840" y="350" width="220" height="56" />
  <text class="text" x="950" y="385" text-anchor="middle">Bedrock</text>

  <rect class="node-runtime" x="840" y="435" width="220" height="56" />
  <text class="text" x="950" y="470" text-anchor="middle">LM Studio external endpoint</text>

  <rect class="node-runtime" x="840" y="520" width="220" height="56" />
  <text class="text" x="950" y="555" text-anchor="middle">Ollama runtime</text>

  <rect class="node-runtime" x="840" y="605" width="220" height="56" />
  <text class="text" x="950" y="640" text-anchor="middle">vLLM runtime</text>

  <path class="arrow" d="M720 538 L780 538 L780 208 L840 208" />
  <path class="arrow" d="M720 538 L795 538 L795 293 L840 293" />
  <path class="arrow" d="M720 538 L810 538 L810 378 L840 378" />
  <path class="arrow" d="M720 538 L825 538 L825 463 L840 463" />
  <path class="arrow" d="M720 538 L840 538" />
  <path class="arrow" d="M720 538 L810 538 L810 633 L840 633" />

  <rect class="node-accent" x="110" y="670" width="220" height="56" />
  <text class="text" x="220" y="705" text-anchor="middle">kagent agents</text>

  <rect class="node-runtime" x="400" y="670" width="220" height="56" />
  <text class="text" x="510" y="698" text-anchor="middle">
    <tspan x="510" dy="0">kmcp-managed</tspan>
    <tspan x="510" dy="20">MCP servers</tspan>
  </text>

  <rect class="node" x="670" y="670" width="180" height="56" />
  <text class="text" x="760" y="705" text-anchor="middle">Qdrant</text>

  <rect class="node" x="920" y="670" width="180" height="56" />
  <text class="text" x="1010" y="705" text-anchor="middle">PostgreSQL</text>

  <rect class="node" x="420" y="790" width="180" height="56" />
  <text class="text" x="510" y="825" text-anchor="middle">Redis</text>

  <rect class="node" x="670" y="790" width="180" height="56" />
  <text class="text" x="760" y="825" text-anchor="middle">KServe control plane</text>

  <path class="arrow" d="M330 698 L400 698" />
  <path class="arrow" d="M330 698 L630 698 L630 560" />
  <path class="arrow-soft" d="M220 726 L220 818 L420 818" />
  <path class="arrow-soft" d="M330 698 L670 698" />
  <path class="arrow-soft" d="M330 698 L920 698" />
  <path class="arrow-soft" d="M850 818 L950 818 L950 661" />

  <text class="small" x="60" y="940">Canonical LLM path: kagent -&gt; agentgateway -&gt; LiteLLM -&gt; providers or optional local runtimes.</text>
  <text class="small" x="60" y="962">KServe is shown as the installed model-serving control plane and future evolution path, not as the only active runtime hop today.</text>
</svg>
