<svg xmlns="http://www.w3.org/2000/svg" xmlns:xlink="http://www.w3.org/1999/xlink" contentStyleType="text/css" data-diagram-type="DESCRIPTION" height="585.6px" preserveAspectRatio="none" style="width:1362px;height:585px;background:#FFFFFF;" version="1.1" viewBox="0 0 1362 585" width="1362.4px" zoomAndPan="magnify"><title>AgenticNativePlatform - Static GitOps Layout And Staged Cluster Composition</title><defs/><g><g class="title" data-source-line="2"><text fill="#000000" font-family="sans-serif" font-size="11.2" font-weight="bold" lengthAdjust="spacing" textLength="436.1487" x="457.1256" y="19.9727">AgenticNativePlatform - Static GitOps Layout And Staged Cluster Composition</text></g><!--cluster Repository source of truth--><g class="cluster" data-entity="Repository source of truth" data-source-line="15" data-uid="ent0004" id="cluster_Repository source of truth"><rect fill="none" height="276" rx="2" ry="2" style="stroke:#181818;stroke-width:0.8;" width="159.2" x="667.2" y="186.0543"/><text fill="#000000" font-family="sans-serif" font-size="11.2" font-weight="bold" lengthAdjust="spacing" textLength="147.1115" x="673.2443" y="199.6271">Repository source of truth</text></g><!--cluster Committed cluster roots--><g class="cluster" data-entity="Committed cluster roots" data-source-line="23" data-uid="ent0010" id="cluster_Committed cluster roots"><rect fill="none" height="244.8" rx="2" ry="2" style="stroke:#181818;stroke-width:0.8;" width="190.4" x="902.4" y="72.4543"/><text fill="#000000" font-family="sans-serif" font-size="11.2" font-weight="bold" lengthAdjust="spacing" textLength="136.7739" x="929.2131" y="86.0271">Committed cluster roots</text></g><!--cluster One cluster root--><g class="cluster" data-entity="One cluster root" data-source-line="31" data-uid="ent0016" id="cluster_One cluster root"><rect fill="none" height="244.8" rx="2" ry="2" style="stroke:#181818;stroke-width:0.8;" width="188.8" x="1168.8" y="253.2543"/><text fill="#000000" font-family="sans-serif" font-size="11.2" font-weight="bold" lengthAdjust="spacing" textLength="91.1901" x="1217.605" y="266.8271">One cluster root</text></g><!--cluster flux-system--><g class="cluster" data-entity="flux-system" data-source-line="38" data-uid="ent0021" id="cluster_flux-system"><polygon fill="none" points="11.2,514.0543,19.2,506.0543,1334,506.0543,1334,564.4543,1326,572.4543,11.2,572.4543,11.2,514.0543" style="stroke:#181818;stroke-width:0.8;"/><line style="stroke:#181818;stroke-width:0.8;" x1="1326" x2="1334" y1="514.0543" y2="506.0543"/><line style="stroke:#181818;stroke-width:0.8;" x1="11.2" x2="1326" y1="514.0543" y2="514.0543"/><line style="stroke:#181818;stroke-width:0.8;" x1="1326" x2="1326" y1="514.0543" y2="572.4543"/><text fill="#000000" font-family="sans-serif" font-size="11.2" font-weight="bold" lengthAdjust="spacing" textLength="65.1726" x="636.8137" y="528.4271">flux-system</text></g><!--entity Operator--><g class="entity" data-entity="Operator" data-source-line="12" data-uid="ent0002" id="entity_Operator"><ellipse cx="62.1527" cy="331.6543" fill="#F1F1F1" rx="6.4" ry="6.4" style="stroke:#181818;stroke-width:0.4;"/><path d="M62.1527,338.0543 L62.1527,359.6543 M51.7527,344.4543 L72.5527,344.4543 M62.1527,359.6543 L51.7527,371.6543 M62.1527,359.6543 L72.5527,371.6543" fill="none" style="stroke:#181818;stroke-width:0.4;"/><text fill="#000000" font-family="sans-serif" font-size="11.2" lengthAdjust="spacing" textLength="48.3054" x="38" y="384.8271">Operator</text></g><!--entity RemoteRepo--><g class="entity" data-entity="RemoteRepo" data-source-line="13" data-uid="ent0003" id="entity_RemoteRepo"><rect fill="#F1F1F1" height="61.763" rx="2" ry="2" style="stroke:#181818;stroke-width:0.4;" width="131.8188" x="224.8" y="432.0543"/><text fill="#000000" font-family="sans-serif" font-size="11.2" lengthAdjust="spacing" textLength="40.891" x="232.8" y="452.0271">Remote</text><text fill="#000000" font-family="sans-serif" font-size="11.2" lengthAdjust="spacing" textLength="2.912" x="273.691" y="452.0271">&#160;</text><text fill="#000000" font-family="sans-serif" font-size="11.2" lengthAdjust="spacing" textLength="15.0863" x="276.603" y="452.0271">Git</text><text fill="#000000" font-family="sans-serif" font-size="11.2" lengthAdjust="spacing" textLength="2.912" x="291.6894" y="452.0271">&#160;</text><text fill="#000000" font-family="sans-serif" font-size="11.2" lengthAdjust="spacing" textLength="54.0174" x="294.6014" y="452.0271">repository</text><text fill="#000000" font-family="sans-serif" font-size="11.2" lengthAdjust="spacing" textLength="77.8621" x="245.288" y="467.2814">GIT_REPO_URL</text><text fill="#000000" font-family="sans-serif" font-size="11.2" lengthAdjust="spacing" textLength="2.912" x="323.15" y="467.2814">&#160;</text><text fill="#000000" font-family="sans-serif" font-size="11.2" lengthAdjust="spacing" textLength="10.0688" x="326.062" y="467.2814">@</text><text fill="#000000" font-family="sans-serif" font-size="11.2" lengthAdjust="spacing" textLength="68.4429" x="256.4879" y="482.5357">GIT_BRANCH</text></g><g class="entity" data-entity="GMN57" data-source-line="84" data-uid="ent0058" id="entity_GMN57"><path d="M678.8,35.2543 L678.8,87.1885 L715.9392,219.4942 L678.8,93.5885 L678.8,99.9136 A0,0 0 0 0 678.8,99.9136 L814.3889,99.9136 A0,0 0 0 0 814.3889,99.9136 L814.3889,43.2543 L806.3889,35.2543 L678.8,35.2543 A0,0 0 0 0 678.8,35.2543" fill="#FEFFDD" style="stroke:#181818;stroke-width:0.4;"/><path d="M806.3889,35.2543 L806.3889,43.2543 L814.3889,43.2543 L806.3889,35.2543" fill="#FEFFDD" style="stroke:#181818;stroke-width:0.4;"/><text fill="#000000" font-family="sans-serif" font-size="10.4" lengthAdjust="spacing" textLength="54.7665" x="683.6" y="50.3719">Committed</text><text fill="#000000" font-family="sans-serif" font-size="10.4" lengthAdjust="spacing" textLength="2.704" x="738.3665" y="50.3719">&#160;</text><text fill="#000000" font-family="sans-serif" font-size="10.4" lengthAdjust="spacing" textLength="32.9992" x="741.0705" y="50.3719">cluster</text><text fill="#000000" font-family="sans-serif" font-size="10.4" lengthAdjust="spacing" textLength="2.704" x="774.0697" y="50.3719">&#160;</text><text fill="#000000" font-family="sans-serif" font-size="10.4" lengthAdjust="spacing" textLength="25.6152" x="776.7737" y="50.3719">roots</text><text fill="#000000" font-family="sans-serif" font-size="10.4" lengthAdjust="spacing" textLength="15.9952" x="695.716" y="64.5368">are</text><text fill="#000000" font-family="sans-serif" font-size="10.4" lengthAdjust="spacing" textLength="2.704" x="711.7112" y="64.5368">&#160;</text><text fill="#000000" font-family="sans-serif" font-size="10.4" lengthAdjust="spacing" textLength="20.8936" x="714.4152" y="64.5368">now</text><text fill="#000000" font-family="sans-serif" font-size="10.4" lengthAdjust="spacing" textLength="2.704" x="735.3088" y="64.5368">&#160;</text><text fill="#000000" font-family="sans-serif" font-size="10.4" lengthAdjust="spacing" textLength="16.0472" x="738.0128" y="64.5368">the</text><text fill="#000000" font-family="sans-serif" font-size="10.4" lengthAdjust="spacing" textLength="2.704" x="754.0601" y="64.5368">&#160;</text><text fill="#000000" font-family="sans-serif" font-size="10.4" lengthAdjust="spacing" textLength="33.5088" x="756.7641" y="64.5368">GitOps</text><text fill="#000000" font-family="sans-serif" font-size="10.4" lengthAdjust="spacing" textLength="51.1993" x="694.3016" y="78.7016">entrypoint</text><text fill="#000000" font-family="sans-serif" font-size="10.4" lengthAdjust="spacing" textLength="2.704" x="745.5009" y="78.7016">&#160;</text><text fill="#000000" font-family="sans-serif" font-size="10.4" lengthAdjust="spacing" textLength="14.1648" x="748.2049" y="78.7016">for</text><text fill="#000000" font-family="sans-serif" font-size="10.4" lengthAdjust="spacing" textLength="2.704" x="762.3697" y="78.7016">&#160;</text><text fill="#000000" font-family="sans-serif" font-size="10.4" lengthAdjust="spacing" textLength="26.6136" x="765.0737" y="78.7016">every</text><text fill="#000000" font-family="sans-serif" font-size="10.4" lengthAdjust="spacing" textLength="46.1969" x="719.896" y="92.8664">topology.</text></g><g class="entity" data-entity="GMN60" data-source-line="89" data-uid="ent0061" id="entity_GMN60"><path d="M682.4,114.4543 L682.4,161.6302 L697.5326,317.1693 L682.4,168.0302 L682.4,179.1136 A0,0 0 0 0 682.4,179.1136 L810.7193,179.1136 A0,0 0 0 0 810.7193,179.1136 L810.7193,122.4543 L802.7193,114.4543 L682.4,114.4543 A0,0 0 0 0 682.4,114.4543" fill="#FEFFDD" style="stroke:#181818;stroke-width:0.4;"/><path d="M802.7193,114.4543 L802.7193,122.4543 L810.7193,122.4543 L802.7193,114.4543" fill="#FEFFDD" style="stroke:#181818;stroke-width:0.4;"/><text fill="#000000" font-family="sans-serif" font-size="10.4" lengthAdjust="spacing" textLength="34.944" x="703.4396" y="129.5719">values/</text><text fill="#000000" font-family="sans-serif" font-size="10.4" lengthAdjust="spacing" textLength="2.704" x="738.3836" y="129.5719">&#160;</text><text fill="#000000" font-family="sans-serif" font-size="10.4" lengthAdjust="spacing" textLength="41.392" x="741.0876" y="129.5719">contains</text><text fill="#000000" font-family="sans-serif" font-size="10.4" lengthAdjust="spacing" textLength="52.2496" x="687.2" y="143.7368">non-secret</text><text fill="#000000" font-family="sans-serif" font-size="10.4" lengthAdjust="spacing" textLength="2.704" x="739.4496" y="143.7368">&#160;</text><text fill="#000000" font-family="sans-serif" font-size="10.4" lengthAdjust="spacing" textLength="30.368" x="742.1536" y="143.7368">config</text><text fill="#000000" font-family="sans-serif" font-size="10.4" lengthAdjust="spacing" textLength="2.704" x="772.5217" y="143.7368">&#160;</text><text fill="#000000" font-family="sans-serif" font-size="10.4" lengthAdjust="spacing" textLength="23.4936" x="775.2257" y="143.7368">only.</text><text fill="#000000" font-family="sans-serif" font-size="10.4" lengthAdjust="spacing" textLength="21.7984" x="690.502" y="157.9016">That</text><text fill="#000000" font-family="sans-serif" font-size="10.4" lengthAdjust="spacing" textLength="2.704" x="712.3004" y="157.9016">&#160;</text><text fill="#000000" font-family="sans-serif" font-size="10.4" lengthAdjust="spacing" textLength="28.6624" x="715.0044" y="157.9016">keeps</text><text fill="#000000" font-family="sans-serif" font-size="10.4" lengthAdjust="spacing" textLength="2.704" x="743.6669" y="157.9016">&#160;</text><text fill="#000000" font-family="sans-serif" font-size="10.4" lengthAdjust="spacing" textLength="16.0472" x="746.3709" y="157.9016">the</text><text fill="#000000" font-family="sans-serif" font-size="10.4" lengthAdjust="spacing" textLength="2.704" x="762.4181" y="157.9016">&#160;</text><text fill="#000000" font-family="sans-serif" font-size="10.4" lengthAdjust="spacing" textLength="30.2952" x="765.1221" y="157.9016">layout</text><text fill="#000000" font-family="sans-serif" font-size="10.4" lengthAdjust="spacing" textLength="52.052" x="716.9336" y="172.0664">OCI-ready.</text></g><g class="entity" data-entity="GMN63" data-source-line="94" data-uid="ent0064" id="entity_GMN63"><path d="M1192.8,181.6543 L1192.8,217.3618 L1198.6196,538.7332 L1192.8,223.7618 L1192.8,246.3136 A0,0 0 0 0 1192.8,246.3136 L1333.4329,246.3136 A0,0 0 0 0 1333.4329,246.3136 L1333.4329,189.6543 L1325.4329,181.6543 L1192.8,181.6543 A0,0 0 0 0 1192.8,181.6543" fill="#FEFFDD" style="stroke:#181818;stroke-width:0.4;"/><path d="M1325.4329,181.6543 L1325.4329,189.6543 L1333.4329,189.6543 L1325.4329,181.6543" fill="#FEFFDD" style="stroke:#181818;stroke-width:0.4;"/><text fill="#000000" font-family="sans-serif" font-size="10.4" lengthAdjust="spacing" textLength="37.2008" x="1197.6" y="196.7719">Staging</text><text fill="#000000" font-family="sans-serif" font-size="10.4" lengthAdjust="spacing" textLength="2.704" x="1234.8008" y="196.7719">&#160;</text><text fill="#000000" font-family="sans-serif" font-size="10.4" lengthAdjust="spacing" textLength="28.6624" x="1237.5048" y="196.7719">keeps</text><text fill="#000000" font-family="sans-serif" font-size="10.4" lengthAdjust="spacing" textLength="2.704" x="1266.1673" y="196.7719">&#160;</text><text fill="#000000" font-family="sans-serif" font-size="10.4" lengthAdjust="spacing" textLength="52.5616" x="1268.8713" y="196.7719">controllers</text><text fill="#000000" font-family="sans-serif" font-size="10.4" lengthAdjust="spacing" textLength="18.6576" x="1213.2104" y="210.9368">and</text><text fill="#000000" font-family="sans-serif" font-size="10.4" lengthAdjust="spacing" textLength="2.704" x="1231.868" y="210.9368">&#160;</text><text fill="#000000" font-family="sans-serif" font-size="10.4" lengthAdjust="spacing" textLength="25.6152" x="1234.572" y="210.9368">CRDs</text><text fill="#000000" font-family="sans-serif" font-size="10.4" lengthAdjust="spacing" textLength="2.704" x="1260.1873" y="210.9368">&#160;</text><text fill="#000000" font-family="sans-serif" font-size="10.4" lengthAdjust="spacing" textLength="30.3576" x="1262.8913" y="210.9368">ahead</text><text fill="#000000" font-family="sans-serif" font-size="10.4" lengthAdjust="spacing" textLength="2.704" x="1293.2489" y="210.9368">&#160;</text><text fill="#000000" font-family="sans-serif" font-size="10.4" lengthAdjust="spacing" textLength="9.8696" x="1295.9529" y="210.9368">of</text><text fill="#000000" font-family="sans-serif" font-size="10.4" lengthAdjust="spacing" textLength="53.3937" x="1203.4188" y="225.1016">dependent</text><text fill="#000000" font-family="sans-serif" font-size="10.4" lengthAdjust="spacing" textLength="2.704" x="1256.8125" y="225.1016">&#160;</text><text fill="#000000" font-family="sans-serif" font-size="10.4" lengthAdjust="spacing" textLength="34.736" x="1259.5165" y="225.1016">secrets</text><text fill="#000000" font-family="sans-serif" font-size="10.4" lengthAdjust="spacing" textLength="2.704" x="1294.2525" y="225.1016">&#160;</text><text fill="#000000" font-family="sans-serif" font-size="10.4" lengthAdjust="spacing" textLength="18.6576" x="1296.9565" y="225.1016">and</text><text fill="#000000" font-family="sans-serif" font-size="10.4" lengthAdjust="spacing" textLength="53.976" x="1212.3004" y="239.2664">application</text><text fill="#000000" font-family="sans-serif" font-size="10.4" lengthAdjust="spacing" textLength="2.704" x="1266.2765" y="239.2664">&#160;</text><text fill="#000000" font-family="sans-serif" font-size="10.4" lengthAdjust="spacing" textLength="37.752" x="1268.9805" y="239.2664">objects.</text></g><!--entity RepoClusters--><g class="entity" data-entity="RepoClusters" data-source-line="16" data-uid="ent0005" id="entity_RepoClusters"><rect fill="#F1F1F1" height="31.2543" rx="2" ry="2" style="stroke:#181818;stroke-width:0.4;" width="61.0686" x="716" y="210.4543"/><text fill="#000000" font-family="sans-serif" font-size="11.2" lengthAdjust="spacing" textLength="45.0686" x="724" y="230.4271">clusters/</text></g><!--entity RepoInfrastructure--><g class="entity" data-entity="RepoInfrastructure" data-source-line="17" data-uid="ent0006" id="entity_RepoInfrastructure"><rect fill="#F1F1F1" height="31.2543" rx="2" ry="2" style="stroke:#181818;stroke-width:0.4;" width="92.9773" x="700" y="363.2543"/><text fill="#000000" font-family="sans-serif" font-size="11.2" lengthAdjust="spacing" textLength="76.9773" x="708" y="383.2271">infrastructure/</text></g><!--entity RepoApps--><g class="entity" data-entity="RepoApps" data-source-line="18" data-uid="ent0007" id="entity_RepoApps"><rect fill="#F1F1F1" height="31.2543" rx="2" ry="2" style="stroke:#181818;stroke-width:0.4;" width="45.5903" x="723.6" y="256.0543"/><text fill="#000000" font-family="sans-serif" font-size="11.2" lengthAdjust="spacing" textLength="29.5903" x="731.6" y="276.0271">apps/</text></g><!--entity RepoValues--><g class="entity" data-entity="RepoValues" data-source-line="19" data-uid="ent0008" id="entity_RepoValues"><rect fill="#F1F1F1" height="46.5087" rx="2" ry="2" style="stroke:#181818;stroke-width:0.4;" width="97.4797" x="697.6" y="302.0543"/><text fill="#000000" font-family="sans-serif" font-size="11.2" lengthAdjust="spacing" textLength="37.6318" x="727.5239" y="322.0271">values/</text><text fill="#000000" font-family="sans-serif" font-size="11.2" lengthAdjust="spacing" textLength="56.2686" x="705.6" y="337.2814">non-secret</text><text fill="#000000" font-family="sans-serif" font-size="11.2" lengthAdjust="spacing" textLength="2.912" x="761.8686" y="337.2814">&#160;</text><text fill="#000000" font-family="sans-serif" font-size="11.2" lengthAdjust="spacing" textLength="22.2991" x="764.7806" y="337.2814">only</text></g><!--entity RepoSecrets--><g class="entity" data-entity="RepoSecrets" data-source-line="20" data-uid="ent0009" id="entity_RepoSecrets"><rect fill="#F1F1F1" height="46.5087" rx="2" ry="2" style="stroke:#181818;stroke-width:0.4;" width="139.4908" x="676.8" y="409.2543"/><text fill="#000000" font-family="sans-serif" font-size="11.2" lengthAdjust="spacing" textLength="41.5742" x="725.7583" y="429.2271">secrets/</text><text fill="#000000" font-family="sans-serif" font-size="11.2" lengthAdjust="spacing" textLength="27.8207" x="684.8" y="444.4814">SOPS</text><text fill="#000000" font-family="sans-serif" font-size="11.2" lengthAdjust="spacing" textLength="2.912" x="712.6207" y="444.4814">&#160;</text><text fill="#000000" font-family="sans-serif" font-size="11.2" lengthAdjust="spacing" textLength="27.5855" x="715.5327" y="444.4814">roots</text><text fill="#000000" font-family="sans-serif" font-size="11.2" lengthAdjust="spacing" textLength="2.912" x="743.1182" y="444.4814">&#160;</text><text fill="#000000" font-family="sans-serif" font-size="11.2" lengthAdjust="spacing" textLength="12.6" x="746.0302" y="444.4814">by</text><text fill="#000000" font-family="sans-serif" font-size="11.2" lengthAdjust="spacing" textLength="2.912" x="758.6301" y="444.4814">&#160;</text><text fill="#000000" font-family="sans-serif" font-size="11.2" lengthAdjust="spacing" textLength="46.7486" x="761.5421" y="444.4814">topology</text></g><!--entity ClusterLocal--><g class="entity" data-entity="ClusterLocal" data-source-line="24" data-uid="ent0011" id="entity_ClusterLocal"><rect fill="#F1F1F1" height="31.2543" rx="2" ry="2" style="stroke:#181818;stroke-width:0.4;" width="107.7836" x="943.6" y="96.8543"/><text fill="#000000" font-family="sans-serif" font-size="11.2" lengthAdjust="spacing" textLength="91.7836" x="951.6" y="116.8271">clusters/local-dev</text></g><!--entity ClusterCodespace--><g class="entity" data-entity="ClusterCodespace" data-source-line="25" data-uid="ent0012" id="entity_ClusterCodespace"><rect fill="#F1F1F1" height="31.2543" rx="2" ry="2" style="stroke:#181818;stroke-width:0.4;" width="177.313" x="908.8" y="142.4543"/><text fill="#000000" font-family="sans-serif" font-size="11.2" lengthAdjust="spacing" textLength="161.313" x="916.8" y="162.4271">clusters/github-codespace-dev</text></g><!--entity ClusterMiniPC--><g class="entity" data-entity="ClusterMiniPC" data-source-line="26" data-uid="ent0013" id="entity_ClusterMiniPC"><rect fill="#F1F1F1" height="31.2543" rx="2" ry="2" style="stroke:#181818;stroke-width:0.4;" width="119.006" x="938" y="188.0543"/><text fill="#000000" font-family="sans-serif" font-size="11.2" lengthAdjust="spacing" textLength="103.006" x="946" y="208.0271">clusters/minipc-dev</text></g><!--entity ClusterHybrid--><g class="entity" data-entity="ClusterHybrid" data-source-line="27" data-uid="ent0014" id="entity_ClusterHybrid"><rect fill="#F1F1F1" height="31.2543" rx="2" ry="2" style="stroke:#181818;stroke-width:0.4;" width="117.494" x="938.8" y="233.6543"/><text fill="#000000" font-family="sans-serif" font-size="11.2" lengthAdjust="spacing" textLength="101.494" x="946.8" y="253.6271">clusters/hybrid-dev</text></g><!--entity ClusterHybridRemote--><g class="entity" data-entity="ClusterHybridRemote" data-source-line="28" data-uid="ent0015" id="entity_ClusterHybridRemote"><rect fill="#F1F1F1" height="31.2543" rx="2" ry="2" style="stroke:#181818;stroke-width:0.4;" width="159.6506" x="917.6" y="279.2543"/><text fill="#000000" font-family="sans-serif" font-size="11.2" lengthAdjust="spacing" textLength="143.6506" x="925.6" y="299.2271">clusters/hybrid-remote-dev</text></g><!--entity ClusterFluxInstance--><g class="entity" data-entity="ClusterFluxInstance" data-source-line="32" data-uid="ent0017" id="entity_ClusterFluxInstance"><rect fill="#F1F1F1" height="31.2543" rx="2" ry="2" style="stroke:#181818;stroke-width:0.4;" width="176.305" x="1175.2" y="338.4543"/><text fill="#000000" font-family="sans-serif" font-size="11.2" lengthAdjust="spacing" textLength="160.305" x="1183.2" y="358.4271">flux-system/flux-instance.yaml</text></g><!--entity ClusterInfrastructure--><g class="entity" data-entity="ClusterInfrastructure" data-source-line="33" data-uid="ent0018" id="entity_ClusterInfrastructure"><rect fill="#F1F1F1" height="46.5087" rx="2" ry="2" style="stroke:#181818;stroke-width:0.4;" width="98.8797" x="1213.6" y="384.4543"/><text fill="#000000" font-family="sans-serif" font-size="11.2" lengthAdjust="spacing" textLength="76.9773" x="1224.5512" y="404.4271">infrastructure/</text><text fill="#000000" font-family="sans-serif" font-size="11.2" lengthAdjust="spacing" textLength="35.5375" x="1221.6" y="419.6814">cluster</text><text fill="#000000" font-family="sans-serif" font-size="11.2" lengthAdjust="spacing" textLength="2.912" x="1257.1375" y="419.6814">&#160;</text><text fill="#000000" font-family="sans-serif" font-size="11.2" lengthAdjust="spacing" textLength="44.4302" x="1260.0495" y="419.6814">wrapper</text></g><!--entity ClusterSecrets--><g class="entity" data-entity="ClusterSecrets" data-source-line="34" data-uid="ent0019" id="entity_ClusterSecrets"><rect fill="#F1F1F1" height="46.5087" rx="2" ry="2" style="stroke:#181818;stroke-width:0.4;" width="98.8797" x="1213.6" y="445.2543"/><text fill="#000000" font-family="sans-serif" font-size="11.2" lengthAdjust="spacing" textLength="41.5742" x="1242.2527" y="465.2271">secrets/</text><text fill="#000000" font-family="sans-serif" font-size="11.2" lengthAdjust="spacing" textLength="35.5375" x="1221.6" y="480.4814">cluster</text><text fill="#000000" font-family="sans-serif" font-size="11.2" lengthAdjust="spacing" textLength="2.912" x="1257.1375" y="480.4814">&#160;</text><text fill="#000000" font-family="sans-serif" font-size="11.2" lengthAdjust="spacing" textLength="44.4302" x="1260.0495" y="480.4814">wrapper</text></g><!--entity ClusterApps--><g class="entity" data-entity="ClusterApps" data-source-line="35" data-uid="ent0020" id="entity_ClusterApps"><rect fill="#F1F1F1" height="46.5087" rx="2" ry="2" style="stroke:#181818;stroke-width:0.4;" width="98.8797" x="1213.6" y="277.2543"/><text fill="#000000" font-family="sans-serif" font-size="11.2" lengthAdjust="spacing" textLength="29.5903" x="1248.2447" y="297.2271">apps/</text><text fill="#000000" font-family="sans-serif" font-size="11.2" lengthAdjust="spacing" textLength="35.5375" x="1221.6" y="312.4814">cluster</text><text fill="#000000" font-family="sans-serif" font-size="11.2" lengthAdjust="spacing" textLength="2.912" x="1257.1375" y="312.4814">&#160;</text><text fill="#000000" font-family="sans-serif" font-size="11.2" lengthAdjust="spacing" textLength="44.4302" x="1260.0495" y="312.4814">wrapper</text></g><!--entity FluxOperator--><g class="entity" data-entity="FluxOperator" data-source-line="39" data-uid="ent0022" id="entity_FluxOperator"><rect fill="#F1F1F1" height="31.2543" rx="2" ry="2" style="stroke:#181818;stroke-width:0.4;" width="88.7661" x="17.6" y="534.4543"/><text fill="#000000" font-family="sans-serif" font-size="11.2" lengthAdjust="spacing" textLength="21.5487" x="25.6" y="554.4271">Flux</text><text fill="#000000" font-family="sans-serif" font-size="11.2" lengthAdjust="spacing" textLength="2.912" x="47.1487" y="554.4271">&#160;</text><text fill="#000000" font-family="sans-serif" font-size="11.2" lengthAdjust="spacing" textLength="48.3054" x="50.0607" y="554.4271">Operator</text></g><!--entity FluxInstance--><g class="entity" data-entity="FluxInstance" data-source-line="40" data-uid="ent0023" id="entity_FluxInstance"><rect fill="#F1F1F1" height="31.2543" rx="2" ry="2" style="stroke:#181818;stroke-width:0.4;" width="106.3276" x="237.6" y="534.4543"/><text fill="#000000" font-family="sans-serif" font-size="11.2" lengthAdjust="spacing" textLength="90.3276" x="245.6" y="554.4271">FluxInstance/flux</text></g><!--entity GitRepository--><g class="entity" data-entity="GitRepository" data-source-line="41" data-uid="ent0024" id="entity_GitRepository"><rect fill="#F1F1F1" height="31.2543" rx="2" ry="2" style="stroke:#181818;stroke-width:0.4;" width="137.4411" x="506.4" y="534.4543"/><text fill="#000000" font-family="sans-serif" font-size="11.2" lengthAdjust="spacing" textLength="121.4411" x="514.4" y="554.4271">GitRepository/platform</text></g><!--entity PlatformInfrastructure--><g class="entity" data-entity="PlatformInfrastructure" data-source-line="42" data-uid="ent0025" id="entity_PlatformInfrastructure"><rect fill="#F1F1F1" height="31.2543" rx="2" ry="2" style="stroke:#181818;stroke-width:0.4;" width="138.2475" x="677.2" y="534.4543"/><text fill="#000000" font-family="sans-serif" font-size="11.2" lengthAdjust="spacing" textLength="122.2475" x="685.2" y="554.4271">platform-infrastructure</text></g><!--entity PlatformSecrets--><g class="entity" data-entity="PlatformSecrets" data-source-line="43" data-uid="ent0026" id="entity_PlatformSecrets"><rect fill="#F1F1F1" height="31.2543" rx="2" ry="2" style="stroke:#181818;stroke-width:0.4;" width="102.8445" x="946" y="534.4543"/><text fill="#000000" font-family="sans-serif" font-size="11.2" lengthAdjust="spacing" textLength="86.8445" x="954" y="554.4271">platform-secrets</text></g><!--entity PlatformApplications--><g class="entity" data-entity="PlatformApplications" data-source-line="44" data-uid="ent0027" id="entity_PlatformApplications"><rect fill="#F1F1F1" height="31.2543" rx="2" ry="2" style="stroke:#181818;stroke-width:0.4;" width="128.9292" x="1198.8" y="534.4543"/><text fill="#000000" font-family="sans-serif" font-size="11.2" lengthAdjust="spacing" textLength="112.9292" x="1206.8" y="554.4271">platform-applications</text></g><g class="link" data-entity-1="Operator" data-entity-2="RepoClusters" data-uid="lnk28" id="link_Operator_RepoClusters"><polygon fill="#181818" points="715.857,227.6407,708.4857,224.8577,711.8635,227.8695,708.8518,231.2473,715.857,227.6407" style="stroke:#181818;stroke-width:0.8;"/><path d="M86.083,335.007 C96.1106,326.8202 108.3748,318.1061 120.8,312.4543 C163.772,292.9081 178.5776,300.4534 224.8,290.8543 C289.8664,277.3419 305.4736,270.2657 371.2,260.4543 C498.703,241.4212 647.5191,231.5557 711.0648,227.9152" fill="none" style="stroke:#181818;stroke-width:0.8;"/><text fill="#000000" font-family="sans-serif" font-size="10.4" lengthAdjust="spacing" textLength="18.6992" x="422.4" y="241.9719">edit</text></g><g class="link" data-entity-1="Operator" data-entity-2="RepoInfrastructure" data-uid="lnk29" id="link_Operator_RepoInfrastructure"><polygon fill="#181818" points="699.8787,377.3544,692.7875,373.92,695.8808,377.2232,692.5776,380.3166,699.8787,377.3544" style="stroke:#181818;stroke-width:0.8;"/><path d="M86.3035,357.2254 C185.0277,360.4641 562.3635,372.8431 695.0813,377.197" fill="none" style="stroke:#181818;stroke-width:0.8;"/><text fill="#000000" font-family="sans-serif" font-size="10.4" lengthAdjust="spacing" textLength="18.6992" x="422.4" y="361.9719">edit</text></g><g class="link" data-entity-1="Operator" data-entity-2="RepoApps" data-uid="lnk30" id="link_Operator_RepoApps"><polygon fill="#181818" points="723.3646,271.5965,716.1546,268.4193,719.3647,271.6091,716.1748,274.8192,723.3646,271.5965" style="stroke:#181818;stroke-width:0.8;"/><path d="M86.0089,345.427 C96.424,340.938 109.0005,336.137 120.8,333.2543 C351.3625,276.9264 636.9392,271.8698 718.5647,271.6117" fill="none" style="stroke:#181818;stroke-width:0.8;"/><text fill="#000000" font-family="sans-serif" font-size="10.4" lengthAdjust="spacing" textLength="18.6992" x="422.4" y="276.3719">edit</text></g><g class="link" data-entity-1="Operator" data-entity-2="RepoValues" data-uid="lnk31" id="link_Operator_RepoValues"><polygon fill="#181818" points="697.2874,325.406,690.0666,322.2533,693.2875,325.4322,690.1086,328.6532,697.2874,325.406" style="stroke:#181818;stroke-width:0.8;"/><path d="M86.1631,352.6896 C96.7157,351.1292 109.3573,349.4534 120.8,348.4543 C335.1788,329.7366 587.4251,326.1275 692.4875,325.4375" fill="none" style="stroke:#181818;stroke-width:0.8;"/><text fill="#000000" font-family="sans-serif" font-size="10.4" lengthAdjust="spacing" textLength="18.6992" x="422.4" y="324.3719">edit</text></g><g class="link" data-entity-1="Operator" data-entity-2="RepoSecrets" data-uid="lnk32" id="link_Operator_RepoSecrets"><polygon fill="#181818" points="676.6467,425.6021,669.8034,421.6972,672.6668,425.2016,669.1625,428.0651,676.6467,425.6021" style="stroke:#181818;stroke-width:0.8;"/><path d="M86.2032,359.8379 C96.7636,361.3246 109.4002,363.0481 120.8,364.4543 C322.4937,389.3347 556.6463,413.5248 671.8709,425.1215" fill="none" style="stroke:#181818;stroke-width:0.8;"/><text fill="#000000" font-family="sans-serif" font-size="10.4" lengthAdjust="spacing" textLength="18.6992" x="422.4" y="389.1719">edit</text></g><g class="link" data-entity-1="Operator" data-entity-2="RemoteRepo" data-uid="lnk33" id="link_Operator_RemoteRepo"><polygon fill="#181818" points="224.6626,464.695,217.6513,461.1003,220.6688,464.473,217.2961,467.4905,224.6626,464.695" style="stroke:#181818;stroke-width:0.8;"/><path d="M77.6607,388.2013 C87.4476,405.5169 101.9476,425.7169 120.8,437.2543 C151.6521,456.1354 186.636,462.5811 219.87,464.4286" fill="none" style="stroke:#181818;stroke-width:0.8;"/><text fill="#000000" font-family="sans-serif" font-size="10.4" lengthAdjust="spacing" textLength="85.4673" x="123.2" y="433.1719">commit and push</text></g><g class="link" data-entity-1="RepoClusters" data-entity-2="ClusterLocal" data-uid="lnk34" id="link_RepoClusters_ClusterLocal"><polygon fill="#181818" points="943.5648,121.6624,935.8169,120.2306,939.6752,122.5956,937.3102,126.4539,943.5648,121.6624" style="stroke:#181818;stroke-width:0.8;"/><path d="M776.9638,212.8225 C792.1689,205.6188 810.72,196.1315 826.4,186.0543 C830.2305,183.5926 830.7172,182.3319 834.4,179.6543 C863.6727,158.3718 869.1757,149.2065 902.4,134.8543 C915.3115,129.2768 925.1758,126.0746 938.8973,122.7823" fill="none" style="stroke:#181818;stroke-width:0.8;"/></g><g class="link" data-entity-1="RepoClusters" data-entity-2="ClusterCodespace" data-uid="lnk35" id="link_RepoClusters_ClusterCodespace"><polygon fill="#181818" points="928.8853,173.715,921.1299,172.3239,925.0006,174.6687,922.6559,178.5393,928.8853,173.715" style="stroke:#181818;stroke-width:0.8;"/><path d="M776.8221,216.8447 C807.957,207.284 858.4267,192.1228 902.4,180.4543 C910.9473,178.1863 915.2975,177.0509 924.2237,174.8594" fill="none" style="stroke:#181818;stroke-width:0.8;"/></g><g class="link" data-entity-1="RepoClusters" data-entity-2="ClusterMiniPC" data-uid="lnk36" id="link_RepoClusters_ClusterMiniPC"><polygon fill="#181818" points="937.8113,208.9482,930.3541,206.4046,933.8273,209.3057,930.9262,212.7789,937.8113,208.9482" style="stroke:#181818;stroke-width:0.8;"/><path d="M776.8126,223.3968 C816.3275,219.8506 882.4069,213.9204 933.0305,209.3772" fill="none" style="stroke:#181818;stroke-width:0.8;"/></g><g class="link" data-entity-1="RepoClusters" data-entity-2="ClusterHybrid" data-uid="lnk37" id="link_RepoClusters_ClusterHybrid"><polygon fill="#181818" points="938.5543,243.8405,931.6814,239.9878,934.5715,243.4703,931.0891,246.3604,938.5543,243.8405" style="stroke:#181818;stroke-width:0.8;"/><path d="M776.8126,228.8068 C816.5212,232.4976 883.1037,238.6864 933.7749,243.3962" fill="none" style="stroke:#181818;stroke-width:0.8;"/></g><g class="link" data-entity-1="RepoClusters" data-entity-2="ClusterHybridRemote" data-uid="lnk38" id="link_RepoClusters_ClusterHybridRemote"><polygon fill="#181818" points="931.1688,279.221,924.9739,274.3524,927.291,278.2397,923.4038,280.5568,931.1688,279.221" style="stroke:#181818;stroke-width:0.8;"/><path d="M776.9532,234.3126 C791.8256,238.4804 810.0862,243.6579 826.4,248.4543 C860.2824,258.4162 868.3501,262.2809 902.4,271.6543 C911.6746,274.2075 916.8458,275.5963 926.5155,278.0434" fill="none" style="stroke:#181818;stroke-width:0.8;"/></g><g class="link" data-entity-1="ClusterLocal" data-entity-2="ClusterFluxInstance" data-uid="lnk39" id="link_ClusterLocal_ClusterFluxInstance"><polygon fill="#181818" points="1182.9683,338.3527,1177.6721,332.5191,1179.3085,336.7384,1175.0892,338.3748,1182.9683,338.3527" style="stroke:#181818;stroke-width:0.8;"/><path d="M1051.6438,113.5195 C1067.0931,116.5666 1082.5447,122.791 1092.8,134.8543 C1108.9616,153.8654 1091.6394,223.6444 1100.8,246.8543 C1118.434,291.5332 1128.2737,305.071 1168.8,330.8543 C1173.2495,333.6851 1173.6294,334.2334 1178.5765,336.4156" fill="none" style="stroke:#181818;stroke-width:0.8;"/></g><g class="link" data-entity-1="ClusterLocal" data-entity-2="ClusterInfrastructure" data-uid="lnk40" id="link_ClusterLocal_ClusterInfrastructure"><polygon fill="#181818" points="1213.3875,400.9477,1207.2922,395.955,1209.5304,399.8883,1205.5971,402.1264,1213.3875,400.9477" style="stroke:#181818;stroke-width:0.8;"/><path d="M1051.6146,113.2892 C1067.1583,116.3082 1082.6723,122.5744 1092.8,134.8543 C1106.4419,151.3952 1088.4142,310.1531 1100.8,327.6543 C1117.3914,351.0982 1141.2946,330.5729 1160.8,351.6543 C1168.8956,360.404 1160.4181,368.7785 1168.8,377.2543 C1180.6936,389.2814 1192.7577,395.2813 1208.759,399.6764" fill="none" style="stroke:#181818;stroke-width:0.8;"/></g><g class="link" data-entity-1="ClusterLocal" data-entity-2="ClusterSecrets" data-uid="lnk41" id="link_ClusterLocal_ClusterSecrets"><polygon fill="#181818" points="1213.3847,458.556,1207.4188,453.4095,1209.5559,457.3986,1205.5668,459.5357,1213.3847,458.556" style="stroke:#181818;stroke-width:0.8;"/><path d="M1051.6452,113.264 C1067.1906,116.2815 1082.6979,122.5533 1092.8,134.8543 C1107.9293,153.2769 1092.7287,326.8235 1100.8,349.2543 C1117.6304,396.0276 1128.2178,409.3474 1168.8,438.0543 C1181.9814,447.3785 1193.5909,452.5723 1208.7901,457.1671" fill="none" style="stroke:#181818;stroke-width:0.8;"/></g><g class="link" data-entity-1="ClusterLocal" data-entity-2="ClusterApps" data-uid="lnk42" id="link_ClusterLocal_ClusterApps"><polygon fill="#181818" points="1213.3818,281.7816,1208.2725,275.7837,1209.7748,280.0526,1205.506,281.5549,1213.3818,281.7816" style="stroke:#181818;stroke-width:0.8;"/><path d="M1051.6256,117.7162 C1065.9423,121.0187 1080.7753,126.3321 1092.8,134.8543 C1143.8167,171.0114 1122.3545,211.3872 1168.8,253.2543 C1181.7095,264.8913 1193.6846,272.3396 1209.0534,279.7068" fill="none" style="stroke:#181818;stroke-width:0.8;"/></g><g class="link" data-entity-1="FluxOperator" data-entity-2="FluxInstance" data-uid="lnk43" id="link_FluxOperator_FluxInstance"><polygon fill="#181818" points="237.5548,550.0543,230.3548,546.8543,233.5548,550.0543,230.3548,553.2543,237.5548,550.0543" style="stroke:#181818;stroke-width:0.8;"/><path d="M106.6064,550.0543 C144.0015,550.0543 193.0706,550.0543 232.7548,550.0543" fill="none" style="stroke:#181818;stroke-width:0.8;"/><text fill="#000000" font-family="sans-serif" font-size="10.4" lengthAdjust="spacing" textLength="86.4137" x="122.4" y="545.9719">manages lifecycle</text></g><g class="link" data-entity-1="ClusterFluxInstance" data-entity-2="FluxInstance" data-uid="lnk44" id="link_ClusterFluxInstance_FluxInstance"><polygon fill="#181818" points="309.4054,534.2896,317.0086,532.2226,312.5065,531.763,312.9661,527.2609,309.4054,534.2896" style="stroke:#181818;stroke-width:0.8;"/><path d="M1197.3269,369.7019 C1187.7389,372.147 1177.9971,374.709 1168.8,377.2543 C1015.4191,419.7027 983.3566,455.745 826.4,482.0543 C626.7493,515.5201 564.1771,436.8971 371.2,498.0543 C347.7539,505.4847 328.3565,518.8493 313.1267,531.2577" fill="none" style="stroke:#181818;stroke-width:0.8;"/><text fill="#000000" font-family="sans-serif" font-size="10.4" lengthAdjust="spacing" textLength="105.7265" x="693.6" y="477.9719">rendered and applied</text></g><g class="link" data-entity-1="FluxInstance" data-entity-2="GitRepository" data-uid="lnk45" id="link_FluxInstance_GitRepository"><polygon fill="#181818" points="506.3749,550.0543,499.1749,546.8543,502.3749,550.0543,499.1749,553.2543,506.3749,550.0543" style="stroke:#181818;stroke-width:0.8;"/><path d="M344.1297,550.0543 C389.8934,550.0543 451.7431,550.0543 501.5749,550.0543" fill="none" style="stroke:#181818;stroke-width:0.8;"/><text fill="#000000" font-family="sans-serif" font-size="10.4" lengthAdjust="spacing" textLength="117.8425" x="372.8" y="545.9719">sync.kind=GitRepository</text></g><g class="link" data-entity-1="RemoteRepo" data-entity-2="GitRepository" data-uid="lnk46" id="link_RemoteRepo_GitRepository"><polygon fill="#181818" points="523.5904,534.3874,517.6529,529.208,519.768,533.2088,515.7671,535.3238,523.5904,534.3874" style="stroke:#181818;stroke-width:0.8;"/><path d="M356.8351,482.9693 C407.5656,498.6118 472.3526,518.5885 519.0035,532.9731" fill="none" style="stroke:#181818;stroke-width:0.8;"/><text fill="#000000" font-family="sans-serif" font-size="10.4" lengthAdjust="spacing" textLength="111.2905" x="376" y="484.3719">remote source of truth</text></g><g class="link" data-entity-1="GitRepository" data-entity-2="PlatformInfrastructure" data-uid="lnk47" id="link_GitRepository_PlatformInfrastructure"><polygon fill="#181818" points="677.0259,550.0543,669.8259,546.8543,673.0259,550.0543,669.8259,553.2543,677.0259,550.0543" style="stroke:#181818;stroke-width:0.8;"/><path d="M644.0056,550.0543 C654.88,550.0543 661.3383,550.0543 672.2259,550.0543" fill="none" style="stroke:#181818;stroke-width:0.8;"/></g><g class="link" data-entity-1="PlatformInfrastructure" data-entity-2="PlatformSecrets" data-uid="lnk48" id="link_PlatformInfrastructure_PlatformSecrets"><polygon fill="#181818" points="945.84,550.0543,938.64,546.8543,941.84,550.0543,938.64,553.2543,945.84,550.0543" style="stroke:#181818;stroke-width:0.8;"/><path d="M815.7344,550.0543 C856.8654,550.0543 903.509,550.0543 941.04,550.0543" fill="none" style="stroke:#181818;stroke-width:0.8;"/><text fill="#000000" font-family="sans-serif" font-size="10.4" lengthAdjust="spacing" textLength="56.8777" x="836" y="545.9719">dependsOn</text></g><g class="link" data-entity-1="PlatformSecrets" data-entity-2="PlatformApplications" data-uid="lnk49" id="link_PlatformSecrets_PlatformApplications"><polygon fill="#181818" points="1198.7183,550.6326,1191.495,547.4857,1194.7184,550.662,1191.5421,553.8855,1198.7183,550.6326" style="stroke:#181818;stroke-width:0.8;"/><path d="M1049.4438,550.5315 C1065.8433,550.6639 1084.0885,550.7891 1100.8,550.8543 C1127.4665,550.9585 1134.1335,550.9593 1160.8,550.8543 C1173.0593,550.8061 1181.3506,550.7604 1193.9185,550.6679" fill="none" style="stroke:#181818;stroke-width:0.8;"/><text fill="#000000" font-family="sans-serif" font-size="10.4" lengthAdjust="spacing" textLength="56.8777" x="1102.4" y="546.7719">dependsOn</text></g><g class="link" data-entity-1="PlatformInfrastructure" data-entity-2="ClusterInfrastructure" data-uid="lnk50" id="link_PlatformInfrastructure_ClusterInfrastructure"><polygon fill="#181818" points="1213.4107,420.4501,1205.5805,419.5744,1209.5976,421.6583,1207.5136,425.6754,1213.4107,420.4501" style="stroke:#181818;stroke-width:0.8;"/><path d="M812.7881,534.4123 C820.0627,532.856 827.3772,531.3684 834.4,530.0543 C948.4741,508.7092 985.1489,535.8103 1092.8,492.4543 C1131.3316,476.9359 1131.7207,456.7795 1168.8,438.0543 C1182.7548,431.0071 1194.1158,426.5638 1208.8349,421.9" fill="none" style="stroke:#181818;stroke-width:0.8;"/></g><g class="link" data-entity-1="PlatformSecrets" data-entity-2="ClusterSecrets" data-uid="lnk51" id="link_PlatformSecrets_ClusterSecrets"><polygon fill="#181818" points="1213.3679,481.5114,1205.5145,480.8761,1209.5935,482.836,1207.6337,486.9151,1213.3679,481.5114" style="stroke:#181818;stroke-width:0.8;"/><path d="M1049.2436,541.4304 C1089.5424,533.9747 1142.0806,522.6875 1160.8,511.6543 C1165.3536,508.9704 1164.4155,505.8065 1168.8,502.8543 C1182.2274,493.8135 1193.8032,488.3773 1208.8387,483.1009" fill="none" style="stroke:#181818;stroke-width:0.8;"/></g><g class="link" data-entity-1="PlatformApplications" data-entity-2="ClusterApps" data-uid="lnk52" id="link_PlatformApplications_ClusterApps"><polygon fill="#181818" points="1213.4573,300.9757,1205.9505,298.5824,1209.4813,301.4132,1206.6505,304.944,1213.4573,300.9757" style="stroke:#181818;stroke-width:0.8;"/><path d="M1198.6196,538.7332 C1173.0295,530.7406 1146.1051,517.1456 1130.8,494.0543 C1092.6917,436.5592 1089.3717,394.0053 1130.8,338.8543 C1149.7743,313.595 1179.6112,304.7 1208.6861,301.5007" fill="none" style="stroke:#181818;stroke-width:0.8;"/></g><g class="link" data-entity-1="ClusterInfrastructure" data-entity-2="RepoInfrastructure" data-uid="lnk53" id="link_ClusterInfrastructure_RepoInfrastructure"><polygon fill="#181818" points="792.9769,392.6407,799.1431,397.5455,796.8488,393.6448,800.7496,391.3504,792.9769,392.6407" style="stroke:#181818;stroke-width:0.8;"/><path d="M1213.3077,410.9005 C1133.4202,415.2933 970.5214,420.5385 834.4,401.2543 C820.7812,399.325 810.8678,397.28 797.6232,393.8456" fill="none" style="stroke:#181818;stroke-width:0.8;"/></g><g class="link" data-entity-1="ClusterInfrastructure" data-entity-2="RepoValues" data-uid="lnk54" id="link_ClusterInfrastructure_RepoValues"><polygon fill="#181818" points="795.2061,332.9323,801.8104,337.2293,799.1559,333.5641,802.8211,330.9096,795.2061,332.9323" style="stroke:#181818;stroke-width:0.8;"/><path d="M1213.5758,399.8455 C1114.9677,384.0743 897.8681,349.3519 799.9459,333.6904" fill="none" style="stroke:#181818;stroke-width:0.8;"/></g><g class="link" data-entity-1="ClusterSecrets" data-entity-2="RepoSecrets" data-uid="lnk55" id="link_ClusterSecrets_RepoSecrets"><polygon fill="#181818" points="816.1476,437.2721,823.107,440.9662,820.1378,437.5509,823.5531,434.5818,816.1476,437.2721" style="stroke:#181818;stroke-width:0.8;"/><path d="M1213.4954,465.0371 C1121.361,458.5991 926.6377,444.9927 820.9359,437.6067" fill="none" style="stroke:#181818;stroke-width:0.8;"/></g><g class="link" data-entity-1="ClusterApps" data-entity-2="RepoApps" data-uid="lnk56" id="link_ClusterApps_RepoApps"><polygon fill="#181818" points="769.4619,277.9184,775.5077,282.971,773.3084,279.0158,777.2636,276.8166,769.4619,277.9184" style="stroke:#181818;stroke-width:0.8;"/><path d="M1213.4203,309.862 C1143.8172,321.7198 1012.509,338.5008 902.4,320.4543 C867.2267,314.6895 860.3983,305.5552 826.4,294.8543 C807.2665,288.8321 789.9895,283.7752 774.0777,279.2353" fill="none" style="stroke:#181818;stroke-width:0.8;"/></g><!--SRC=[XLPDR-Cs4BtpLqnzTz9UUYZGegxRxWP8ru6TRIy15ZGrajXGf41IoGf5_tk7b6I9jgHU39dptWpda_DDRNbHSL2yDOq7Lw7dcZCllKBO5QYz59-ubs_ufBZFZQrW2oTF9m8-I7-e7Jnsr9tEWg303FQgSHujx4rL6oUzD9enXRa7Ry3AelIGIOiY2johr3Mtl09NyioyIrr0pfN3YQJcufKqdtnBjmf4hWir1OXWITDjbo7lbjT_oSoNyDtttqxECynve_mpVlKx9GjTaHOGz8EMbJ932AwWyMsDZ77XZONDeKRBwMi3tC7mXrsimkQ8bV4O8aHtYJ4mjdtH7nwUlnn_Upfy-NnyX9yX_FtbkFkq_nWLTQGZuHdhFGwQ1ZeuqrY1O7Bmjl7b1lvXC7eE6z65tTttschJ9yAbEAbpontf4BwnEA8ValEKm-jwedT7_rBv6rSDkliNhOtUEXGMFHYjsWlbpmX8IHqki4w7fnDOOxo3SqjLKXjbYf5ywe3itqbWgBWgwJsLM-ztnr-EYZA2gss6Rr5j7vh7SBX0AAGlc_DMc0mTcSLhxduGBF0hgMKjhbb_qEdJVe5IjcShislAntYwJh6nUEQPNM4bqJjeJE9s4xPSDL-thYL0TH-_fNPKtGBlMbwfgOtVIVhG2rSBxKKF5aClKjTCjQmLtrWdAmg66hajsrLQB6MAZAPa9bxVH2Ju2KddXvDBzzzWXvZ4y5tmyv6YGJ4s-dtTZzf8IaGfQy1jqq17sZ2kr-9wuVS1JeYpyRmmA8vA2XucU4hRJGGXhaDyOBlzAPb9y0DW9lqj8Btn8YmaRb7OJPj5SU_RWdoOmYGMSSW0fxUjRbp9ME91W2TpP4awJeebH3yLbiJz15WNzstEfbUQefBoMm9TrSiIRAYE9NbiApPja2YTNe72Mz6kKL2UbCnHj49Tx2Mu6Q95dT6hdCNCn5h4ZDsGajOXbckrkAE7F_inRQf9okTetMYzVduPIt61kT1qyyS9Owp836jopXqqkvPDyTCsIqXhnkPJF6VcAikpLc-oFQj-eQt_1znl2-arhjkNJQmdOo5CSqhOsNXlgf2mP1TQM1o0atrjti6NsA-sZ6QURMiZQVIH-u1lQCVjv8x46UZOSZFsUXVwnOWcYVQStb2OB4XqbiiYxabtxBda7buHoPTmWtuXF-mVw6ddsPgrsT4RLl6mIdSQWtLhb0fp8xJC_lWhVPIac1Imhdh2WEyVWh6jEdLWpd_JSkicb_WF]--></g></svg>