<svg xmlns="http://www.w3.org/2000/svg" xmlns:xlink="http://www.w3.org/1999/xlink" contentStyleType="text/css" data-diagram-type="WBS" height="1263px" preserveAspectRatio="none" style="width:2799px;height:1263px;background:#FFFFFF;" version="1.1" viewBox="0 0 2799 1263" width="2799px" zoomAndPan="magnify"><defs/><g><line style="stroke:#181818;stroke-width:1.5;" x1="100.3466" x2="100.3466" y1="66.3441" y2="86.3441"/><rect fill="#F1F1F1" height="36.3441" style="stroke:#181818;stroke-width:1.5;" width="180.6932" x="10" y="86.3441"/><text fill="#000000" font-family="sans-serif" font-size="12" lengthAdjust="spacing" textLength="160.6932" x="20" y="109.1722">1. Repository source of truth</text><line style="stroke:#181818;stroke-width:1.5;" x1="100.3466" x2="110.3466" y1="155.8603" y2="155.8603"/><rect fill="#F1F1F1" height="36.3441" style="stroke:#181818;stroke-width:1.5;" width="102.6926" x="110.3466" y="137.6882"/><text fill="#000000" font-family="sans-serif" font-size="12" lengthAdjust="spacing" textLength="82.6926" x="120.3466" y="160.5163">Top-level trees</text><line style="stroke:#181818;stroke-width:1.5;" x1="161.6929" x2="171.6929" y1="207.2044" y2="207.2044"/><rect fill="#F1F1F1" height="36.3441" style="stroke:#181818;stroke-width:1.5;" width="74.9004" x="171.6929" y="189.0323"/><text fill="#000000" font-family="sans-serif" font-size="12" lengthAdjust="spacing" textLength="54.9004" x="181.6929" y="211.8604">clusters/*</text><line style="stroke:#181818;stroke-width:1.5;" x1="161.6929" x2="171.6929" y1="258.5485" y2="258.5485"/><rect fill="#F1F1F1" height="36.3441" style="stroke:#181818;stroke-width:1.5;" width="109.0886" x="171.6929" y="240.3765"/><text fill="#000000" font-family="sans-serif" font-size="12" lengthAdjust="spacing" textLength="89.0886" x="181.6929" y="263.2045">infrastructure/*</text><line style="stroke:#181818;stroke-width:1.5;" x1="161.6929" x2="171.6929" y1="309.8926" y2="309.8926"/><rect fill="#F1F1F1" height="36.3441" style="stroke:#181818;stroke-width:1.5;" width="58.3163" x="171.6929" y="291.7206"/><text fill="#000000" font-family="sans-serif" font-size="12" lengthAdjust="spacing" textLength="38.3163" x="181.6929" y="314.5487">apps/*</text><line style="stroke:#181818;stroke-width:1.5;" x1="161.6929" x2="171.6929" y1="361.2367" y2="361.2367"/><rect fill="#F1F1F1" height="36.3441" style="stroke:#181818;stroke-width:1.5;" width="66.9323" x="171.6929" y="343.0647"/><text fill="#000000" font-family="sans-serif" font-size="12" lengthAdjust="spacing" textLength="46.9323" x="181.6929" y="365.8928">values/*</text><line style="stroke:#181818;stroke-width:1.5;" x1="161.6929" x2="171.6929" y1="412.5809" y2="412.5809"/><rect fill="#F1F1F1" height="36.3441" style="stroke:#181818;stroke-width:1.5;" width="71.1564" x="171.6929" y="394.4088"/><text fill="#000000" font-family="sans-serif" font-size="12" lengthAdjust="spacing" textLength="51.1564" x="181.6929" y="417.2369">secrets/*</text><line style="stroke:#181818;stroke-width:1.5;" x1="161.6929" x2="171.6929" y1="463.925" y2="463.925"/><rect fill="#F1F1F1" height="36.3441" style="stroke:#181818;stroke-width:1.5;" width="66.0203" x="171.6929" y="445.7529"/><text fill="#000000" font-family="sans-serif" font-size="12" lengthAdjust="spacing" textLength="46.0203" x="181.6929" y="468.581">charts/*</text><line style="stroke:#181818;stroke-width:1.5;" x1="204.7031" x2="214.7031" y1="515.2691" y2="515.2691"/><rect fill="#F1F1F1" height="36.3441" style="stroke:#181818;stroke-width:1.5;" width="298.018" x="214.7031" y="497.097"/><text fill="#000000" font-family="sans-serif" font-size="12" lengthAdjust="spacing" textLength="278.018" x="224.7031" y="519.9251">includes vendored upstream control-plane charts</text><line style="stroke:#181818;stroke-width:1.5;" x1="204.7031" x2="204.7031" y1="482.097" y2="515.2691"/><line style="stroke:#181818;stroke-width:1.5;" x1="161.6929" x2="161.6929" y1="174.0323" y2="463.925"/><line style="stroke:#181818;stroke-width:1.5;" x1="100.3466" x2="110.3466" y1="566.6132" y2="566.6132"/><rect fill="#F1F1F1" height="36.3441" style="stroke:#181818;stroke-width:1.5;" width="126.8488" x="110.3466" y="548.4411"/><text fill="#000000" font-family="sans-serif" font-size="12" lengthAdjust="spacing" textLength="106.8488" x="120.3466" y="571.2692">Operator workflow</text><line style="stroke:#181818;stroke-width:1.5;" x1="173.771" x2="183.771" y1="617.9573" y2="617.9573"/><rect fill="#F1F1F1" height="36.3441" style="stroke:#181818;stroke-width:1.5;" width="213.2374" x="183.771" y="599.7853"/><text fill="#000000" font-family="sans-serif" font-size="12" lengthAdjust="spacing" textLength="193.2374" x="193.771" y="622.6133">edits committed manifests in repo</text><line style="stroke:#181818;stroke-width:1.5;" x1="173.771" x2="183.771" y1="669.3014" y2="669.3014"/><rect fill="#F1F1F1" height="36.3441" style="stroke:#181818;stroke-width:1.5;" width="276.2979" x="183.771" y="651.1294"/><text fill="#000000" font-family="sans-serif" font-size="12" lengthAdjust="spacing" textLength="256.2979" x="193.771" y="673.9575">commits and pushes to remote Git repository</text><line style="stroke:#181818;stroke-width:1.5;" x1="321.9199" x2="331.9199" y1="720.6455" y2="720.6455"/><rect fill="#F1F1F1" height="36.3441" style="stroke:#181818;stroke-width:1.5;" width="193.7852" x="331.9199" y="702.4735"/><text fill="#000000" font-family="sans-serif" font-size="12" lengthAdjust="spacing" textLength="173.7852" x="341.9199" y="725.3016">GIT_REPO_URL @ GIT_BRANCH</text><line style="stroke:#181818;stroke-width:1.5;" x1="321.9199" x2="321.9199" y1="687.4735" y2="720.6455"/><line style="stroke:#181818;stroke-width:1.5;" x1="173.771" x2="173.771" y1="584.7853" y2="669.3014"/><line style="stroke:#181818;stroke-width:1.5;" x1="100.3466" x2="110.3466" y1="771.9897" y2="771.9897"/><rect fill="#F1F1F1" height="36.3441" style="stroke:#181818;stroke-width:1.5;" width="110.2166" x="110.3466" y="753.8176"/><text fill="#000000" font-family="sans-serif" font-size="12" lengthAdjust="spacing" textLength="90.2166" x="120.3466" y="776.6457">Layout principle</text><line style="stroke:#181818;stroke-width:1.5;" x1="165.4549" x2="175.4549" y1="823.3338" y2="823.3338"/><rect fill="#F1F1F1" height="36.3441" style="stroke:#181818;stroke-width:1.5;" width="494.6874" x="175.4549" y="805.1617"/><text fill="#000000" font-family="sans-serif" font-size="12" lengthAdjust="spacing" textLength="474.6874" x="185.4549" y="827.9898">committed cluster roots and shared top-level trees define the GitOps source of truth</text><line style="stroke:#181818;stroke-width:1.5;" x1="165.4549" x2="165.4549" y1="790.1617" y2="823.3338"/><line style="stroke:#181818;stroke-width:1.5;" x1="100.3466" x2="100.3466" y1="122.6882" y2="771.9897"/><line style="stroke:#181818;stroke-width:1.5;" x1="743.0307" x2="743.0307" y1="66.3441" y2="86.3441"/><rect fill="#F1F1F1" height="36.3441" style="stroke:#181818;stroke-width:1.5;" width="105.7766" x="690.1423" y="86.3441"/><text fill="#000000" font-family="sans-serif" font-size="12" lengthAdjust="spacing" textLength="85.7766" x="700.1423" y="109.1722">2. Cluster roots</text><line style="stroke:#181818;stroke-width:1.5;" x1="743.0307" x2="753.0307" y1="155.8603" y2="155.8603"/><rect fill="#F1F1F1" height="36.3441" style="stroke:#181818;stroke-width:1.5;" width="144.0329" x="753.0307" y="137.6882"/><text fill="#000000" font-family="sans-serif" font-size="12" lengthAdjust="spacing" textLength="124.0329" x="763.0307" y="160.5163">Committed sync roots</text><line style="stroke:#181818;stroke-width:1.5;" x1="825.0471" x2="835.0471" y1="207.2044" y2="207.2044"/><rect fill="#F1F1F1" height="36.3441" style="stroke:#181818;stroke-width:1.5;" width="118.3407" x="835.0471" y="189.0323"/><text fill="#000000" font-family="sans-serif" font-size="12" lengthAdjust="spacing" textLength="98.3407" x="845.0471" y="211.8604">clusters/local-dev</text><line style="stroke:#181818;stroke-width:1.5;" x1="825.0471" x2="835.0471" y1="258.5485" y2="258.5485"/><rect fill="#F1F1F1" height="36.3441" style="stroke:#181818;stroke-width:1.5;" width="192.8372" x="835.0471" y="240.3765"/><text fill="#000000" font-family="sans-serif" font-size="12" lengthAdjust="spacing" textLength="172.8372" x="845.0471" y="263.2045">clusters/github-codespace-dev</text><line style="stroke:#181818;stroke-width:1.5;" x1="825.0471" x2="835.0471" y1="309.8926" y2="309.8926"/><rect fill="#F1F1F1" height="36.3441" style="stroke:#181818;stroke-width:1.5;" width="130.3648" x="835.0471" y="291.7206"/><text fill="#000000" font-family="sans-serif" font-size="12" lengthAdjust="spacing" textLength="110.3648" x="845.0471" y="314.5487">clusters/minipc-dev</text><line style="stroke:#181818;stroke-width:1.5;" x1="825.0471" x2="835.0471" y1="361.2367" y2="361.2367"/><rect fill="#F1F1F1" height="36.3441" style="stroke:#181818;stroke-width:1.5;" width="128.7448" x="835.0471" y="343.0647"/><text fill="#000000" font-family="sans-serif" font-size="12" lengthAdjust="spacing" textLength="108.7448" x="845.0471" y="365.8928">clusters/hybrid-dev</text><line style="stroke:#181818;stroke-width:1.5;" x1="825.0471" x2="835.0471" y1="412.5809" y2="412.5809"/><rect fill="#F1F1F1" height="36.3441" style="stroke:#181818;stroke-width:1.5;" width="173.9131" x="835.0471" y="394.4088"/><text fill="#000000" font-family="sans-serif" font-size="12" lengthAdjust="spacing" textLength="153.9131" x="845.0471" y="417.2369">clusters/hybrid-remote-dev</text><line style="stroke:#181818;stroke-width:1.5;" x1="825.0471" x2="825.0471" y1="174.0323" y2="412.5809"/><line style="stroke:#181818;stroke-width:1.5;" x1="743.0307" x2="753.0307" y1="463.925" y2="463.925"/><rect fill="#F1F1F1" height="36.3441" style="stroke:#181818;stroke-width:1.5;" width="137.3969" x="753.0307" y="445.7529"/><text fill="#000000" font-family="sans-serif" font-size="12" lengthAdjust="spacing" textLength="117.3969" x="763.0307" y="468.581">Per-cluster wrappers</text><line style="stroke:#181818;stroke-width:1.5;" x1="821.7291" x2="831.7291" y1="515.2691" y2="515.2691"/><rect fill="#F1F1F1" height="36.3441" style="stroke:#181818;stroke-width:1.5;" width="102.4766" x="831.7291" y="497.097"/><text fill="#000000" font-family="sans-serif" font-size="12" lengthAdjust="spacing" textLength="82.4766" x="841.7291" y="519.9251">infrastructure/</text><line style="stroke:#181818;stroke-width:1.5;" x1="882.9674" x2="892.9674" y1="566.6132" y2="566.6132"/><rect fill="#F1F1F1" height="36.3441" style="stroke:#181818;stroke-width:1.5;" width="384.1185" x="892.9674" y="548.4411"/><text fill="#000000" font-family="sans-serif" font-size="12" lengthAdjust="spacing" textLength="364.1185" x="902.9674" y="571.2692">cluster-scoped wrapper around shared infrastructure and values</text><line style="stroke:#181818;stroke-width:1.5;" x1="882.9674" x2="882.9674" y1="533.4411" y2="566.6132"/><line style="stroke:#181818;stroke-width:1.5;" x1="821.7291" x2="831.7291" y1="617.9573" y2="617.9573"/><rect fill="#F1F1F1" height="36.3441" style="stroke:#181818;stroke-width:1.5;" width="64.5443" x="831.7291" y="599.7853"/><text fill="#000000" font-family="sans-serif" font-size="12" lengthAdjust="spacing" textLength="44.5443" x="841.7291" y="622.6133">secrets/</text><line style="stroke:#181818;stroke-width:1.5;" x1="864.0013" x2="874.0013" y1="669.3014" y2="669.3014"/><rect fill="#F1F1F1" height="36.3441" style="stroke:#181818;stroke-width:1.5;" width="293.65" x="874.0013" y="651.1294"/><text fill="#000000" font-family="sans-serif" font-size="12" lengthAdjust="spacing" textLength="273.65" x="884.0013" y="673.9575">cluster-scoped wrapper around topology secrets</text><line style="stroke:#181818;stroke-width:1.5;" x1="864.0013" x2="864.0013" y1="636.1294" y2="669.3014"/><line style="stroke:#181818;stroke-width:1.5;" x1="821.7291" x2="831.7291" y1="720.6455" y2="720.6455"/><rect fill="#F1F1F1" height="36.3441" style="stroke:#181818;stroke-width:1.5;" width="51.7042" x="831.7291" y="702.4735"/><text fill="#000000" font-family="sans-serif" font-size="12" lengthAdjust="spacing" textLength="31.7042" x="841.7291" y="725.3016">apps/</text><line style="stroke:#181818;stroke-width:1.5;" x1="857.5812" x2="867.5812" y1="771.9897" y2="771.9897"/><rect fill="#F1F1F1" height="36.3441" style="stroke:#181818;stroke-width:1.5;" width="363.0706" x="867.5812" y="753.8176"/><text fill="#000000" font-family="sans-serif" font-size="12" lengthAdjust="spacing" textLength="343.0706" x="877.5812" y="776.6457">cluster-scoped wrapper around shared application manifests</text><line style="stroke:#181818;stroke-width:1.5;" x1="857.5812" x2="857.5812" y1="738.8176" y2="771.9897"/><line style="stroke:#181818;stroke-width:1.5;" x1="821.7291" x2="831.7291" y1="823.3338" y2="823.3338"/><rect fill="#F1F1F1" height="36.3441" style="stroke:#181818;stroke-width:1.5;" width="191.7572" x="831.7291" y="805.1617"/><text fill="#000000" font-family="sans-serif" font-size="12" lengthAdjust="spacing" textLength="171.7572" x="841.7291" y="827.9898">flux-system/flux-instance.yaml</text><line style="stroke:#181818;stroke-width:1.5;" x1="927.6077" x2="937.6077" y1="874.6779" y2="874.6779"/><rect fill="#F1F1F1" height="36.3441" style="stroke:#181818;stroke-width:1.5;" width="307.2221" x="937.6077" y="856.5058"/><text fill="#000000" font-family="sans-serif" font-size="12" lengthAdjust="spacing" textLength="287.2221" x="947.6077" y="879.3339">committed template with url/ref/path placeholders</text><line style="stroke:#181818;stroke-width:1.5;" x1="927.6077" x2="927.6077" y1="841.5058" y2="874.6779"/><line style="stroke:#181818;stroke-width:1.5;" x1="821.7291" x2="821.7291" y1="482.097" y2="823.3338"/><line style="stroke:#181818;stroke-width:1.5;" x1="743.0307" x2="743.0307" y1="122.6882" y2="463.925"/><line style="stroke:#181818;stroke-width:1.5;" x1="1364.0863" x2="1364.0863" y1="66.3441" y2="86.3441"/><rect fill="#F1F1F1" height="36.3441" style="stroke:#181818;stroke-width:1.5;" width="134.0008" x="1297.0859" y="86.3441"/><text fill="#000000" font-family="sans-serif" font-size="12" lengthAdjust="spacing" textLength="114.0008" x="1307.0859" y="109.1722">3. Flux control plane</text><line style="stroke:#181818;stroke-width:1.5;" x1="1364.0863" x2="1374.0863" y1="155.8603" y2="155.8603"/><rect fill="#F1F1F1" height="36.3441" style="stroke:#181818;stroke-width:1.5;" width="97.9646" x="1374.0863" y="137.6882"/><text fill="#000000" font-family="sans-serif" font-size="12" lengthAdjust="spacing" textLength="77.9646" x="1384.0863" y="160.5163">Flux Operator</text><line style="stroke:#181818;stroke-width:1.5;" x1="1423.0686" x2="1433.0686" y1="207.2044" y2="207.2044"/><rect fill="#F1F1F1" height="36.3441" style="stroke:#181818;stroke-width:1.5;" width="229.0055" x="1433.0686" y="189.0323"/><text fill="#000000" font-family="sans-serif" font-size="12" lengthAdjust="spacing" textLength="209.0055" x="1443.0686" y="211.8604">installs and manages Flux controllers</text><line style="stroke:#181818;stroke-width:1.5;" x1="1423.0686" x2="1423.0686" y1="174.0323" y2="207.2044"/><line style="stroke:#181818;stroke-width:1.5;" x1="1364.0863" x2="1374.0863" y1="258.5485" y2="258.5485"/><rect fill="#F1F1F1" height="36.3441" style="stroke:#181818;stroke-width:1.5;" width="116.7807" x="1374.0863" y="240.3765"/><text fill="#000000" font-family="sans-serif" font-size="12" lengthAdjust="spacing" textLength="96.7807" x="1384.0863" y="263.2045">FluxInstance/flux</text><line style="stroke:#181818;stroke-width:1.5;" x1="1432.4766" x2="1442.4766" y1="309.8926" y2="309.8926"/><rect fill="#F1F1F1" height="36.3441" style="stroke:#181818;stroke-width:1.5;" width="162.213" x="1442.4766" y="291.7206"/><text fill="#000000" font-family="sans-serif" font-size="12" lengthAdjust="spacing" textLength="142.213" x="1452.4766" y="314.5487">sync.kind = GitRepository</text><line style="stroke:#181818;stroke-width:1.5;" x1="1432.4766" x2="1442.4766" y1="361.2367" y2="361.2367"/><rect fill="#F1F1F1" height="36.3441" style="stroke:#181818;stroke-width:1.5;" width="244.8816" x="1442.4766" y="343.0647"/><text fill="#000000" font-family="sans-serif" font-size="12" lengthAdjust="spacing" textLength="224.8816" x="1452.4766" y="365.8928">sync.path = ./clusters/&lt;topology&gt;-&lt;env&gt;</text><line style="stroke:#181818;stroke-width:1.5;" x1="1432.4766" x2="1432.4766" y1="276.7206" y2="361.2367"/><line style="stroke:#181818;stroke-width:1.5;" x1="1364.0863" x2="1374.0863" y1="412.5809" y2="412.5809"/><rect fill="#F1F1F1" height="36.3441" style="stroke:#181818;stroke-width:1.5;" width="150.117" x="1374.0863" y="394.4088"/><text fill="#000000" font-family="sans-serif" font-size="12" lengthAdjust="spacing" textLength="130.117" x="1384.0863" y="417.2369">GitRepository/platform</text><line style="stroke:#181818;stroke-width:1.5;" x1="1449.1448" x2="1459.1448" y1="463.925" y2="463.925"/><rect fill="#F1F1F1" height="36.3441" style="stroke:#181818;stroke-width:1.5;" width="351.5743" x="1459.1448" y="445.7529"/><text fill="#000000" font-family="sans-serif" font-size="12" lengthAdjust="spacing" textLength="331.5743" x="1469.1448" y="468.581">Flux reconciles remote Git state, not local unpublished files</text><line style="stroke:#181818;stroke-width:1.5;" x1="1449.1448" x2="1449.1448" y1="430.7529" y2="463.925"/><line style="stroke:#181818;stroke-width:1.5;" x1="1364.0863" x2="1364.0863" y1="122.6882" y2="412.5809"/><line style="stroke:#181818;stroke-width:1.5;" x1="1906.4916" x2="1906.4916" y1="66.3441" y2="86.3441"/><rect fill="#F1F1F1" height="36.3441" style="stroke:#181818;stroke-width:1.5;" width="151.5449" x="1830.7191" y="86.3441"/><text fill="#000000" font-family="sans-serif" font-size="12" lengthAdjust="spacing" textLength="131.5449" x="1840.7191" y="109.1722">4. Staged reconciliation</text><line style="stroke:#181818;stroke-width:1.5;" x1="1906.4916" x2="1916.4916" y1="155.8603" y2="155.8603"/><rect fill="#F1F1F1" height="36.3441" style="stroke:#181818;stroke-width:1.5;" width="150.9809" x="1916.4916" y="137.6882"/><text fill="#000000" font-family="sans-serif" font-size="12" lengthAdjust="spacing" textLength="130.9809" x="1926.4916" y="160.5163">platform-infrastructure</text><line style="stroke:#181818;stroke-width:1.5;" x1="1991.9821" x2="2001.9821" y1="207.2044" y2="207.2044"/><rect fill="#F1F1F1" height="36.3441" style="stroke:#181818;stroke-width:1.5;" width="287.1579" x="2001.9821" y="189.0323"/><text fill="#000000" font-family="sans-serif" font-size="12" lengthAdjust="spacing" textLength="267.1579" x="2011.9821" y="211.8604">reads clusters/&lt;topology&gt;-&lt;env&gt;/infrastructure</text><line style="stroke:#181818;stroke-width:1.5;" x1="1991.9821" x2="2001.9821" y1="258.5485" y2="258.5485"/><rect fill="#F1F1F1" height="36.3441" style="stroke:#181818;stroke-width:1.5;" width="162.741" x="2001.9821" y="240.3765"/><text fill="#000000" font-family="sans-serif" font-size="12" lengthAdjust="spacing" textLength="142.741" x="2011.9821" y="263.2045">composes infrastructure/</text><line style="stroke:#181818;stroke-width:1.5;" x1="1991.9821" x2="2001.9821" y1="309.8926" y2="309.8926"/><rect fill="#F1F1F1" height="36.3441" style="stroke:#181818;stroke-width:1.5;" width="351.7784" x="2001.9821" y="291.7206"/><text fill="#000000" font-family="sans-serif" font-size="12" lengthAdjust="spacing" textLength="331.7784" x="2011.9821" y="314.5487">composes repo-local and vendored charts via HelmRelease</text><line style="stroke:#181818;stroke-width:1.5;" x1="1991.9821" x2="2001.9821" y1="361.2367" y2="361.2367"/><rect fill="#F1F1F1" height="36.3441" style="stroke:#181818;stroke-width:1.5;" width="120.5847" x="2001.9821" y="343.0647"/><text fill="#000000" font-family="sans-serif" font-size="12" lengthAdjust="spacing" textLength="100.5847" x="2011.9821" y="365.8928">composes values/</text><line style="stroke:#181818;stroke-width:1.5;" x1="1991.9821" x2="1991.9821" y1="174.0323" y2="361.2367"/><line style="stroke:#181818;stroke-width:1.5;" x1="1906.4916" x2="1916.4916" y1="412.5809" y2="412.5809"/><rect fill="#F1F1F1" height="36.3441" style="stroke:#181818;stroke-width:1.5;" width="113.0487" x="1916.4916" y="394.4088"/><text fill="#000000" font-family="sans-serif" font-size="12" lengthAdjust="spacing" textLength="93.0487" x="1926.4916" y="417.2369">platform-secrets</text><line style="stroke:#181818;stroke-width:1.5;" x1="1973.0159" x2="1983.0159" y1="463.925" y2="463.925"/><rect fill="#F1F1F1" height="36.3441" style="stroke:#181818;stroke-width:1.5;" width="219.7294" x="1983.0159" y="445.7529"/><text fill="#000000" font-family="sans-serif" font-size="12" lengthAdjust="spacing" textLength="199.7294" x="1993.0159" y="468.581">dependsOn platform-infrastructure</text><line style="stroke:#181818;stroke-width:1.5;" x1="1973.0159" x2="1983.0159" y1="515.2691" y2="515.2691"/><rect fill="#F1F1F1" height="36.3441" style="stroke:#181818;stroke-width:1.5;" width="249.2257" x="1983.0159" y="497.097"/><text fill="#000000" font-family="sans-serif" font-size="12" lengthAdjust="spacing" textLength="229.2257" x="1993.0159" y="519.9251">reads clusters/&lt;topology&gt;-&lt;env&gt;/secrets</text><line style="stroke:#181818;stroke-width:1.5;" x1="1973.0159" x2="1983.0159" y1="566.6132" y2="566.6132"/><rect fill="#F1F1F1" height="36.3441" style="stroke:#181818;stroke-width:1.5;" width="193.0893" x="1983.0159" y="548.4411"/><text fill="#000000" font-family="sans-serif" font-size="12" lengthAdjust="spacing" textLength="173.0893" x="1993.0159" y="571.2692">composes secrets/&lt;topology&gt;/</text><line style="stroke:#181818;stroke-width:1.5;" x1="1973.0159" x2="1973.0159" y1="430.7529" y2="566.6132"/><line style="stroke:#181818;stroke-width:1.5;" x1="1906.4916" x2="1916.4916" y1="617.9573" y2="617.9573"/><rect fill="#F1F1F1" height="36.3441" style="stroke:#181818;stroke-width:1.5;" width="140.9969" x="1916.4916" y="599.7853"/><text fill="#000000" font-family="sans-serif" font-size="12" lengthAdjust="spacing" textLength="120.9969" x="1926.4916" y="622.6133">platform-applications</text><line style="stroke:#181818;stroke-width:1.5;" x1="1986.99" x2="1996.99" y1="669.3014" y2="669.3014"/><rect fill="#F1F1F1" height="36.3441" style="stroke:#181818;stroke-width:1.5;" width="181.7972" x="1996.99" y="651.1294"/><text fill="#000000" font-family="sans-serif" font-size="12" lengthAdjust="spacing" textLength="161.7972" x="2006.99" y="673.9575">dependsOn platform-secrets</text><line style="stroke:#181818;stroke-width:1.5;" x1="1986.99" x2="1996.99" y1="720.6455" y2="720.6455"/><rect fill="#F1F1F1" height="36.3441" style="stroke:#181818;stroke-width:1.5;" width="236.3855" x="1996.99" y="702.4735"/><text fill="#000000" font-family="sans-serif" font-size="12" lengthAdjust="spacing" textLength="216.3855" x="2006.99" y="725.3016">reads clusters/&lt;topology&gt;-&lt;env&gt;/apps</text><line style="stroke:#181818;stroke-width:1.5;" x1="1986.99" x2="1996.99" y1="771.9897" y2="771.9897"/><rect fill="#F1F1F1" height="36.3441" style="stroke:#181818;stroke-width:1.5;" width="111.9687" x="1996.99" y="753.8176"/><text fill="#000000" font-family="sans-serif" font-size="12" lengthAdjust="spacing" textLength="91.9687" x="2006.99" y="776.6457">composes apps/</text><line style="stroke:#181818;stroke-width:1.5;" x1="1986.99" x2="1986.99" y1="636.1294" y2="771.9897"/><line style="stroke:#181818;stroke-width:1.5;" x1="1906.4916" x2="1906.4916" y1="122.6882" y2="617.9573"/><line style="stroke:#181818;stroke-width:1.5;" x1="2432.1689" x2="2432.1689" y1="66.3441" y2="86.3441"/><rect fill="#F1F1F1" height="36.3441" style="stroke:#181818;stroke-width:1.5;" width="116.8167" x="2373.7605" y="86.3441"/><text fill="#000000" font-family="sans-serif" font-size="12" lengthAdjust="spacing" textLength="96.8167" x="2383.7605" y="109.1722">5. OCI-ready split</text><line style="stroke:#181818;stroke-width:1.5;" x1="2432.1689" x2="2442.1689" y1="155.8603" y2="155.8603"/><rect fill="#F1F1F1" height="36.3441" style="stroke:#181818;stroke-width:1.5;" width="102.4766" x="2442.1689" y="137.6882"/><text fill="#000000" font-family="sans-serif" font-size="12" lengthAdjust="spacing" textLength="82.4766" x="2452.1689" y="160.5163">infrastructure/</text><line style="stroke:#181818;stroke-width:1.5;" x1="2493.4072" x2="2503.4072" y1="207.2044" y2="207.2044"/><rect fill="#F1F1F1" height="36.3441" style="stroke:#181818;stroke-width:1.5;" width="63.6563" x="2503.4072" y="189.0323"/><text fill="#000000" font-family="sans-serif" font-size="12" lengthAdjust="spacing" textLength="43.6563" x="2513.4072" y="211.8604">sources</text><line style="stroke:#181818;stroke-width:1.5;" x1="2493.4072" x2="2503.4072" y1="258.5485" y2="258.5485"/><rect fill="#F1F1F1" height="36.3441" style="stroke:#181818;stroke-width:1.5;" width="80.6485" x="2503.4072" y="240.3765"/><text fill="#000000" font-family="sans-serif" font-size="12" lengthAdjust="spacing" textLength="60.6485" x="2513.4072" y="263.2045">controllers</text><line style="stroke:#181818;stroke-width:1.5;" x1="2493.4072" x2="2503.4072" y1="309.8926" y2="309.8926"/><rect fill="#F1F1F1" height="36.3441" style="stroke:#181818;stroke-width:1.5;" width="66.5723" x="2503.4072" y="291.7206"/><text fill="#000000" font-family="sans-serif" font-size="12" lengthAdjust="spacing" textLength="46.5723" x="2513.4072" y="314.5487">network</text><line style="stroke:#181818;stroke-width:1.5;" x1="2493.4072" x2="2503.4072" y1="361.2367" y2="361.2367"/><rect fill="#F1F1F1" height="36.3441" style="stroke:#181818;stroke-width:1.5;" width="92.0605" x="2503.4072" y="343.0647"/><text fill="#000000" font-family="sans-serif" font-size="12" lengthAdjust="spacing" textLength="72.0605" x="2513.4072" y="365.8928">observability</text><line style="stroke:#181818;stroke-width:1.5;" x1="2493.4072" x2="2503.4072" y1="412.5809" y2="412.5809"/><rect fill="#F1F1F1" height="36.3441" style="stroke:#181818;stroke-width:1.5;" width="64.1963" x="2503.4072" y="394.4088"/><text fill="#000000" font-family="sans-serif" font-size="12" lengthAdjust="spacing" textLength="44.1963" x="2513.4072" y="417.2369">security</text><line style="stroke:#181818;stroke-width:1.5;" x1="2493.4072" x2="2493.4072" y1="174.0323" y2="412.5809"/><line style="stroke:#181818;stroke-width:1.5;" x1="2432.1689" x2="2442.1689" y1="463.925" y2="463.925"/><rect fill="#F1F1F1" height="36.3441" style="stroke:#181818;stroke-width:1.5;" width="51.7042" x="2442.1689" y="445.7529"/><text fill="#000000" font-family="sans-serif" font-size="12" lengthAdjust="spacing" textLength="31.7042" x="2452.1689" y="468.581">apps/</text><line style="stroke:#181818;stroke-width:1.5;" x1="2468.021" x2="2478.021" y1="515.2691" y2="515.2691"/><rect fill="#F1F1F1" height="36.3441" style="stroke:#181818;stroke-width:1.5;" width="69.1044" x="2478.021" y="497.097"/><text fill="#000000" font-family="sans-serif" font-size="12" lengthAdjust="spacing" textLength="49.1044" x="2488.021" y="519.9251">platform</text><line style="stroke:#181818;stroke-width:1.5;" x1="2468.021" x2="2478.021" y1="566.6132" y2="566.6132"/><rect fill="#F1F1F1" height="36.3441" style="stroke:#181818;stroke-width:1.5;" width="81.1884" x="2478.021" y="548.4411"/><text fill="#000000" font-family="sans-serif" font-size="12" lengthAdjust="spacing" textLength="61.1884" x="2488.021" y="571.2692">ai-gateway</text><line style="stroke:#181818;stroke-width:1.5;" x1="2468.021" x2="2478.021" y1="617.9573" y2="617.9573"/><rect fill="#F1F1F1" height="36.3441" style="stroke:#181818;stroke-width:1.5;" width="75.1644" x="2478.021" y="599.7853"/><text fill="#000000" font-family="sans-serif" font-size="12" lengthAdjust="spacing" textLength="55.1644" x="2488.021" y="622.6133">ai-models</text><line style="stroke:#181818;stroke-width:1.5;" x1="2468.021" x2="2478.021" y1="669.3014" y2="669.3014"/><rect fill="#F1F1F1" height="36.3441" style="stroke:#181818;stroke-width:1.5;" width="62.2163" x="2478.021" y="651.1294"/><text fill="#000000" font-family="sans-serif" font-size="12" lengthAdjust="spacing" textLength="42.2163" x="2488.021" y="673.9575">context</text><line style="stroke:#181818;stroke-width:1.5;" x1="2468.021" x2="2478.021" y1="720.6455" y2="720.6455"/><rect fill="#F1F1F1" height="36.3441" style="stroke:#181818;stroke-width:1.5;" width="206.8773" x="2478.021" y="702.4735"/><text fill="#000000" font-family="sans-serif" font-size="12" lengthAdjust="spacing" textLength="186.8773" x="2488.021" y="725.3016">platform/agentregistry-inventory</text><line style="stroke:#181818;stroke-width:1.5;" x1="2468.021" x2="2468.021" y1="482.097" y2="720.6455"/><line style="stroke:#181818;stroke-width:1.5;" x1="2432.1689" x2="2442.1689" y1="771.9897" y2="771.9897"/><rect fill="#F1F1F1" height="36.3441" style="stroke:#181818;stroke-width:1.5;" width="59.4083" x="2442.1689" y="753.8176"/><text fill="#000000" font-family="sans-serif" font-size="12" lengthAdjust="spacing" textLength="39.4083" x="2452.1689" y="776.6457">charts/</text><line style="stroke:#181818;stroke-width:1.5;" x1="2471.873" x2="2481.873" y1="823.3338" y2="823.3338"/><rect fill="#F1F1F1" height="36.3441" style="stroke:#181818;stroke-width:1.5;" width="114.2367" x="2481.873" y="805.1617"/><text fill="#000000" font-family="sans-serif" font-size="12" lengthAdjust="spacing" textLength="94.2367" x="2491.873" y="827.9898">repo-local charts</text><line style="stroke:#181818;stroke-width:1.5;" x1="2471.873" x2="2481.873" y1="874.6779" y2="874.6779"/><rect fill="#F1F1F1" height="36.3441" style="stroke:#181818;stroke-width:1.5;" width="169.7611" x="2481.873" y="856.5058"/><text fill="#000000" font-family="sans-serif" font-size="12" lengthAdjust="spacing" textLength="149.7611" x="2491.873" y="879.3339">vendored upstream charts</text><line style="stroke:#181818;stroke-width:1.5;" x1="2471.873" x2="2471.873" y1="790.1617" y2="874.6779"/><line style="stroke:#181818;stroke-width:1.5;" x1="2432.1689" x2="2442.1689" y1="926.022" y2="926.022"/><rect fill="#F1F1F1" height="36.3441" style="stroke:#181818;stroke-width:1.5;" width="60.3203" x="2442.1689" y="907.8499"/><text fill="#000000" font-family="sans-serif" font-size="12" lengthAdjust="spacing" textLength="40.3203" x="2452.1689" y="930.678">values/</text><line style="stroke:#181818;stroke-width:1.5;" x1="2472.329" x2="2482.329" y1="977.3661" y2="977.3661"/><rect fill="#F1F1F1" height="36.3441" style="stroke:#181818;stroke-width:1.5;" width="107.3006" x="2482.329" y="959.1941"/><text fill="#000000" font-family="sans-serif" font-size="12" lengthAdjust="spacing" textLength="87.3006" x="2492.329" y="982.0221">non-secret only</text><line style="stroke:#181818;stroke-width:1.5;" x1="2472.329" x2="2482.329" y1="1028.7102" y2="1028.7102"/><rect fill="#F1F1F1" height="36.3441" style="stroke:#181818;stroke-width:1.5;" width="181.0651" x="2482.329" y="1010.5382"/><text fill="#000000" font-family="sans-serif" font-size="12" lengthAdjust="spacing" textLength="161.0651" x="2492.329" y="1033.3663">future OCI artifact candidate</text><line style="stroke:#181818;stroke-width:1.5;" x1="2472.329" x2="2482.329" y1="1080.0543" y2="1080.0543"/><rect fill="#F1F1F1" height="36.3441" style="stroke:#181818;stroke-width:1.5;" width="306.3221" x="2482.329" y="1061.8823"/><text fill="#000000" font-family="sans-serif" font-size="12" lengthAdjust="spacing" textLength="286.3221" x="2492.329" y="1084.7104">includes agentregistry inventory values ConfigMap</text><line style="stroke:#181818;stroke-width:1.5;" x1="2472.329" x2="2472.329" y1="944.1941" y2="1080.0543"/><line style="stroke:#181818;stroke-width:1.5;" x1="2432.1689" x2="2442.1689" y1="1131.3985" y2="1131.3985"/><rect fill="#F1F1F1" height="36.3441" style="stroke:#181818;stroke-width:1.5;" width="64.5443" x="2442.1689" y="1113.2264"/><text fill="#000000" font-family="sans-serif" font-size="12" lengthAdjust="spacing" textLength="44.5443" x="2452.1689" y="1136.0545">secrets/</text><line style="stroke:#181818;stroke-width:1.5;" x1="2474.441" x2="2484.441" y1="1182.7426" y2="1182.7426"/><rect fill="#F1F1F1" height="36.3441" style="stroke:#181818;stroke-width:1.5;" width="119.6367" x="2484.441" y="1164.5705"/><text fill="#000000" font-family="sans-serif" font-size="12" lengthAdjust="spacing" textLength="99.6367" x="2494.441" y="1187.3986">SOPS by topology</text><line style="stroke:#181818;stroke-width:1.5;" x1="2474.441" x2="2484.441" y1="1234.0867" y2="1234.0867"/><rect fill="#F1F1F1" height="36.3441" style="stroke:#181818;stroke-width:1.5;" width="202.4853" x="2484.441" y="1215.9146"/><text fill="#000000" font-family="sans-serif" font-size="12" lengthAdjust="spacing" textLength="182.4853" x="2494.441" y="1238.7427">separate from non-secret values</text><line style="stroke:#181818;stroke-width:1.5;" x1="2474.441" x2="2474.441" y1="1149.5705" y2="1234.0867"/><line style="stroke:#181818;stroke-width:1.5;" x1="2432.1689" x2="2432.1689" y1="122.6882" y2="1131.3985"/><line style="stroke:#181818;stroke-width:1.5;" x1="100.3466" x2="2432.1689" y1="66.3441" y2="66.3441"/><rect fill="#F1F1F1" height="36.3441" style="stroke:#181818;stroke-width:1.5;" width="457.2233" x="1037.6461" y="10"/><text fill="#000000" font-family="sans-serif" font-size="12" lengthAdjust="spacing" textLength="437.2233" x="1047.6461" y="32.8281">AgenticNativePlatform - Static GitOps Layout And Staged Cluster Composition</text><line style="stroke:#181818;stroke-width:1.5;" x1="1266.2577" x2="1266.2577" y1="46.3441" y2="66.3441"/><!--SRC=[fLPDRziu4BthLyonDLPsaoQBRj0MITsqJJQk0plfjQ2faKsK8WMIigj_lqEAbAtKGNUnD_5ZPjxCl7dKfNNCkDtAPYEuMgDoWdzbJcpnNZ9NQbD13aj7Enm-2pUlBTonLZSEhbJX3zPOm5Gsrg61gQvgROKJMcMZ4PoCOO5XGviMh6uCHz0bEDEu3LqOmOEkSubRbBI7QFtU27ZdpKv6tLgeqZ1BHjmr1jCkg-l-nfR91lkLHMxGzKk-eVpIodiZ_mLQsA8gj27qJKtEaLN0jN96oxoMJ66q2p3dDHf6IS1Ecn-brBlECnR2MRAgAk4SEQgO4YLQsXCA36KU0OGB5XWLh6xiXc8xJUULTkXh6gvsHOeOFzyyV5zSty-_Foxku38iFooklaw_13In_hMXL4GjyJ2AXn7h1qRh6DLIAdJWXjM60aj1YReDfjO-xP7lukcuxs_m631C-sYsLNn_SD0zgJcJUO7R9_jhuJRDAkUQcb0pZaUkL4A9cXyvsBGh8uhd3xgYfdEuHvEdQkmCCOQk7kLKh7kycrkkQqejcW0pkjbNSMWQwjlnRyY-V-MIEgAbNhV9we3Q_mKIxKd1cP-xFGaxNwLiVkQs9H_L97mBHGElE8vRLiaKfEycNIFs4oztr2LeZ9mOB2SremNjSzneMVWYUcAy7iCdyfZ61iBOXBg7xJGqgU0KLigEZuIHTCCEp6NiJTYyYI03v5XNujduXo3hTvwjY-7CTCS1vpiOJtfUl4qLVf-_HRLz7o8Cp2TrrBdEJu1aa41n8GdYmPWI98T_WD8E0hUXKNMpae8cke3ItmvbEHidMKnk18kAE88KB1-og8jD8bHOU1Rxv9WD3vABzYYZzwTUOl8ETI1iqhvEv60h67n1MIrG8hDFNKTv7IOmO6o1DNcqS_N_4XpuxCEdYTfVVmBbWFxFundu_XqGFu5FK7H3wHjyFeRvz2RtFcXmARJBdfEKAAYzhm7JHw3G-HUbM-YLHRDbA-ABQtijQKnS7QW232dBHBucPkvOswyh4bTv41L_kg7bXFcdtk1Q4EAMcaMCICEKNinKgfuv-nTnTEprtB-N1uIX9BMAnGUjPCHODa4ygOuaPKwKZ3lWn4nHK2RPyA4UG8KUQen2Jv4gnNh6wkmN-ONb_7u9gxRNsLJMcXalSgNHrI6-gEENb9l_8She5qYvnzaTPMki5zUJyUchq_FnsOibSt3RA3Xz0oUlBrxzTN5w3jFhvGFuyvVPYzdDGtfC2uzRh1fFpvVPBTioM3JqcrNXXTT8TVlnxxG1rsehZ5OLPPZTVfljB_nvbdyW2LeIGqZzlysoZrYoHZgoe8TKgFK5F3vyojzaTqoj6whO1Q3AflH8KCteRFaF]--></g></svg>