<svg xmlns="http://www.w3.org/2000/svg" xmlns:xlink="http://www.w3.org/1999/xlink" contentStyleType="text/css" data-diagram-type="WBS" height="1828px" preserveAspectRatio="none" style="width:2186px;height:1828px;background:#FFFFFF;" version="1.1" viewBox="0 0 2186 1828" width="2186px" zoomAndPan="magnify"><defs/><g><line style="stroke:#181818;stroke-width:1.5;" x1="104.4386" x2="104.4386" y1="66.3441" y2="86.3441"/><rect fill="#F1F1F1" height="36.3441" style="stroke:#181818;stroke-width:1.5;" width="188.8772" x="10" y="86.3441"/><text fill="#000000" font-family="sans-serif" font-size="12" lengthAdjust="spacing" textLength="168.8772" x="20" y="109.1722">1. Source and generation flow</text><line style="stroke:#181818;stroke-width:1.5;" x1="104.4386" x2="114.4386" y1="155.8603" y2="155.8603"/><rect fill="#F1F1F1" height="36.3441" style="stroke:#181818;stroke-width:1.5;" width="71.7564" x="114.4386" y="137.6882"/><text fill="#000000" font-family="sans-serif" font-size="12" lengthAdjust="spacing" textLength="51.7564" x="124.4386" y="160.5163">Operator</text><line style="stroke:#181818;stroke-width:1.5;" x1="150.3168" x2="160.3168" y1="207.2044" y2="207.2044"/><rect fill="#F1F1F1" height="36.3441" style="stroke:#181818;stroke-width:1.5;" width="330.0823" x="160.3168" y="189.0323"/><text fill="#000000" font-family="sans-serif" font-size="12" lengthAdjust="spacing" textLength="310.0823" x="170.3168" y="211.8604">edits manifests and charts in repository source of truth</text><line style="stroke:#181818;stroke-width:1.5;" x1="325.3579" x2="335.3579" y1="258.5485" y2="258.5485"/><rect fill="#F1F1F1" height="36.3441" style="stroke:#181818;stroke-width:1.5;" width="127.0888" x="335.3579" y="240.3765"/><text fill="#000000" font-family="sans-serif" font-size="12" lengthAdjust="spacing" textLength="107.0888" x="345.3579" y="263.2045">flux/components/*</text><line style="stroke:#181818;stroke-width:1.5;" x1="325.3579" x2="335.3579" y1="309.8926" y2="309.8926"/><rect fill="#F1F1F1" height="36.3441" style="stroke:#181818;stroke-width:1.5;" width="66.0203" x="335.3579" y="291.7206"/><text fill="#000000" font-family="sans-serif" font-size="12" lengthAdjust="spacing" textLength="46.0203" x="345.3579" y="314.5487">charts/*</text><line style="stroke:#181818;stroke-width:1.5;" x1="325.3579" x2="335.3579" y1="361.2367" y2="361.2367"/><rect fill="#F1F1F1" height="36.3441" style="stroke:#181818;stroke-width:1.5;" width="103.3046" x="335.3579" y="343.0647"/><text fill="#000000" font-family="sans-serif" font-size="12" lengthAdjust="spacing" textLength="83.3046" x="345.3579" y="365.8928">flux/overlays/*</text><line style="stroke:#181818;stroke-width:1.5;" x1="325.3579" x2="325.3579" y1="225.3765" y2="361.2367"/><line style="stroke:#181818;stroke-width:1.5;" x1="150.3168" x2="160.3168" y1="412.5809" y2="412.5809"/><rect fill="#F1F1F1" height="36.3441" style="stroke:#181818;stroke-width:1.5;" width="276.2979" x="160.3168" y="394.4088"/><text fill="#000000" font-family="sans-serif" font-size="12" lengthAdjust="spacing" textLength="256.2979" x="170.3168" y="417.2369">commits and pushes to remote Git repository</text><line style="stroke:#181818;stroke-width:1.5;" x1="298.4657" x2="308.4657" y1="463.925" y2="463.925"/><rect fill="#F1F1F1" height="36.3441" style="stroke:#181818;stroke-width:1.5;" width="193.7852" x="308.4657" y="445.7529"/><text fill="#000000" font-family="sans-serif" font-size="12" lengthAdjust="spacing" textLength="173.7852" x="318.4657" y="468.581">GIT_REPO_URL @ GIT_BRANCH</text><line style="stroke:#181818;stroke-width:1.5;" x1="298.4657" x2="298.4657" y1="430.7529" y2="463.925"/><line style="stroke:#181818;stroke-width:1.5;" x1="150.3168" x2="150.3168" y1="174.0323" y2="412.5809"/><line style="stroke:#181818;stroke-width:1.5;" x1="104.4386" x2="114.4386" y1="515.2691" y2="515.2691"/><rect fill="#F1F1F1" height="36.3441" style="stroke:#181818;stroke-width:1.5;" width="118.3647" x="114.4386" y="497.097"/><text fill="#000000" font-family="sans-serif" font-size="12" lengthAdjust="spacing" textLength="98.3647" x="124.4386" y="519.9251">Generated inputs</text><line style="stroke:#181818;stroke-width:1.5;" x1="173.6209" x2="183.6209" y1="566.6132" y2="566.6132"/><rect fill="#F1F1F1" height="36.3441" style="stroke:#181818;stroke-width:1.5;" width="176.6971" x="183.6209" y="548.4411"/><text fill="#000000" font-family="sans-serif" font-size="12" lengthAdjust="spacing" textLength="156.6971" x="193.6209" y="571.2692">flux/generated/&lt;topology&gt;/</text><line style="stroke:#181818;stroke-width:1.5;" x1="173.6209" x2="183.6209" y1="617.9573" y2="617.9573"/><rect fill="#F1F1F1" height="36.3441" style="stroke:#181818;stroke-width:1.5;" width="227.3135" x="183.6209" y="599.7853"/><text fill="#000000" font-family="sans-serif" font-size="12" lengthAdjust="spacing" textLength="207.3135" x="193.6209" y="622.6133">flux/generated/clusters/&lt;cluster-id&gt;/</text><line style="stroke:#181818;stroke-width:1.5;" x1="173.6209" x2="183.6209" y1="669.3014" y2="669.3014"/><rect fill="#F1F1F1" height="36.3441" style="stroke:#181818;stroke-width:1.5;" width="90.9205" x="183.6209" y="651.1294"/><text fill="#000000" font-family="sans-serif" font-size="12" lengthAdjust="spacing" textLength="70.9205" x="193.6209" y="673.9575">produced by</text><line style="stroke:#181818;stroke-width:1.5;" x1="229.0812" x2="239.0812" y1="720.6455" y2="720.6455"/><rect fill="#F1F1F1" height="36.3441" style="stroke:#181818;stroke-width:1.5;" width="114.9567" x="239.0812" y="702.4735"/><text fill="#000000" font-family="sans-serif" font-size="12" lengthAdjust="spacing" textLength="94.9567" x="249.0812" y="725.3016">make flux-values</text><line style="stroke:#181818;stroke-width:1.5;" x1="229.0812" x2="239.0812" y1="771.9897" y2="771.9897"/><rect fill="#F1F1F1" height="36.3441" style="stroke:#181818;stroke-width:1.5;" width="162.105" x="239.0812" y="753.8176"/><text fill="#000000" font-family="sans-serif" font-size="12" lengthAdjust="spacing" textLength="142.105" x="249.0812" y="776.6457">make render-cluster-root</text><line style="stroke:#181818;stroke-width:1.5;" x1="229.0812" x2="229.0812" y1="687.4735" y2="771.9897"/><line style="stroke:#181818;stroke-width:1.5;" x1="173.6209" x2="173.6209" y1="533.4411" y2="669.3014"/><line style="stroke:#181818;stroke-width:1.5;" x1="104.4386" x2="114.4386" y1="823.3338" y2="823.3338"/><rect fill="#F1F1F1" height="36.3441" style="stroke:#181818;stroke-width:1.5;" width="94.7846" x="114.4386" y="805.1617"/><text fill="#000000" font-family="sans-serif" font-size="12" lengthAdjust="spacing" textLength="74.7846" x="124.4386" y="827.9898">Effective flow</text><line style="stroke:#181818;stroke-width:1.5;" x1="161.8309" x2="171.8309" y1="874.6779" y2="874.6779"/><rect fill="#F1F1F1" height="36.3441" style="stroke:#181818;stroke-width:1.5;" width="423.8871" x="171.8309" y="856.5058"/><text fill="#000000" font-family="sans-serif" font-size="12" lengthAdjust="spacing" textLength="403.8871" x="181.8309" y="879.3339">Repository source of truth -&gt; Generated inputs -&gt; Remote Git repository</text><line style="stroke:#181818;stroke-width:1.5;" x1="161.8309" x2="161.8309" y1="841.5058" y2="874.6779"/><line style="stroke:#181818;stroke-width:1.5;" x1="104.4386" x2="104.4386" y1="122.6882" y2="823.3338"/><line style="stroke:#181818;stroke-width:1.5;" x1="704.9725" x2="704.9725" y1="66.3441" y2="86.3441"/><rect fill="#F1F1F1" height="36.3441" style="stroke:#181818;stroke-width:1.5;" width="178.5091" x="615.718" y="86.3441"/><text fill="#000000" font-family="sans-serif" font-size="12" lengthAdjust="spacing" textLength="158.5091" x="625.718" y="109.1722">2. Flux system reconciliation</text><line style="stroke:#181818;stroke-width:1.5;" x1="704.9725" x2="714.9725" y1="155.8603" y2="155.8603"/><rect fill="#F1F1F1" height="36.3441" style="stroke:#181818;stroke-width:1.5;" width="150.117" x="714.9725" y="137.6882"/><text fill="#000000" font-family="sans-serif" font-size="12" lengthAdjust="spacing" textLength="130.117" x="724.9725" y="160.5163">GitRepository/platform</text><line style="stroke:#181818;stroke-width:1.5;" x1="790.031" x2="800.031" y1="207.2044" y2="207.2044"/><rect fill="#F1F1F1" height="36.3441" style="stroke:#181818;stroke-width:1.5;" width="186.6332" x="800.031" y="189.0323"/><text fill="#000000" font-family="sans-serif" font-size="12" lengthAdjust="spacing" textLength="166.6332" x="810.031" y="211.8604">Flux reads the remote branch</text><line style="stroke:#181818;stroke-width:1.5;" x1="790.031" x2="800.031" y1="258.5485" y2="258.5485"/><rect fill="#F1F1F1" height="36.3441" style="stroke:#181818;stroke-width:1.5;" width="368.7106" x="800.031" y="240.3765"/><text fill="#000000" font-family="sans-serif" font-size="12" lengthAdjust="spacing" textLength="348.7106" x="810.031" y="263.2045">Flux reconciles remote repository state, not local working tree</text><line style="stroke:#181818;stroke-width:1.5;" x1="790.031" x2="800.031" y1="309.8926" y2="309.8926"/><rect fill="#F1F1F1" height="36.3441" style="stroke:#181818;stroke-width:1.5;" width="321.6342" x="800.031" y="291.7206"/><text fill="#000000" font-family="sans-serif" font-size="12" lengthAdjust="spacing" textLength="301.6342" x="810.031" y="314.5487">Generated manifests must be committed and pushed</text><line style="stroke:#181818;stroke-width:1.5;" x1="790.031" x2="790.031" y1="174.0323" y2="309.8926"/><line style="stroke:#181818;stroke-width:1.5;" x1="704.9725" x2="714.9725" y1="361.2367" y2="361.2367"/><rect fill="#F1F1F1" height="36.3441" style="stroke:#181818;stroke-width:1.5;" width="128.3488" x="714.9725" y="343.0647"/><text fill="#000000" font-family="sans-serif" font-size="12" lengthAdjust="spacing" textLength="108.3488" x="724.9725" y="365.8928">platform-bootstrap</text><line style="stroke:#181818;stroke-width:1.5;" x1="779.1469" x2="789.1469" y1="412.5809" y2="412.5809"/><rect fill="#F1F1F1" height="36.3441" style="stroke:#181818;stroke-width:1.5;" width="121.7847" x="789.1469" y="394.4088"/><text fill="#000000" font-family="sans-serif" font-size="12" lengthAdjust="spacing" textLength="101.7847" x="799.1469" y="417.2369">bootstrap content</text><line style="stroke:#181818;stroke-width:1.5;" x1="850.0393" x2="860.0393" y1="463.925" y2="463.925"/><rect fill="#F1F1F1" height="36.3441" style="stroke:#181818;stroke-width:1.5;" width="120.0207" x="860.0393" y="445.7529"/><text fill="#000000" font-family="sans-serif" font-size="12" lengthAdjust="spacing" textLength="100.0207" x="870.0393" y="468.581">base namespaces</text><line style="stroke:#181818;stroke-width:1.5;" x1="850.0393" x2="860.0393" y1="515.2691" y2="515.2691"/><rect fill="#F1F1F1" height="36.3441" style="stroke:#181818;stroke-width:1.5;" width="123.6447" x="860.0393" y="497.097"/><text fill="#000000" font-family="sans-serif" font-size="12" lengthAdjust="spacing" textLength="103.6447" x="870.0393" y="519.9251">Gateway API CRDs</text><line style="stroke:#181818;stroke-width:1.5;" x1="850.0393" x2="860.0393" y1="566.6132" y2="566.6132"/><rect fill="#F1F1F1" height="36.3441" style="stroke:#181818;stroke-width:1.5;" width="122.2408" x="860.0393" y="548.4411"/><text fill="#000000" font-family="sans-serif" font-size="12" lengthAdjust="spacing" textLength="102.2408" x="870.0393" y="571.2692">Helm/OCI sources</text><line style="stroke:#181818;stroke-width:1.5;" x1="850.0393" x2="860.0393" y1="617.9573" y2="617.9573"/><rect fill="#F1F1F1" height="36.3441" style="stroke:#181818;stroke-width:1.5;" width="149.2289" x="860.0393" y="599.7853"/><text fill="#000000" font-family="sans-serif" font-size="12" lengthAdjust="spacing" textLength="129.2289" x="870.0393" y="622.6133">generated ConfigMaps</text><line style="stroke:#181818;stroke-width:1.5;" x1="850.0393" x2="860.0393" y1="669.3014" y2="669.3014"/><rect fill="#F1F1F1" height="36.3441" style="stroke:#181818;stroke-width:1.5;" width="117.4887" x="860.0393" y="651.1294"/><text fill="#000000" font-family="sans-serif" font-size="12" lengthAdjust="spacing" textLength="97.4887" x="870.0393" y="673.9575">secret references</text><line style="stroke:#181818;stroke-width:1.5;" x1="850.0393" x2="850.0393" y1="430.7529" y2="669.3014"/><line style="stroke:#181818;stroke-width:1.5;" x1="779.1469" x2="789.1469" y1="720.6455" y2="720.6455"/><rect fill="#F1F1F1" height="36.3441" style="stroke:#181818;stroke-width:1.5;" width="279.4299" x="789.1469" y="702.4735"/><text fill="#000000" font-family="sans-serif" font-size="12" lengthAdjust="spacing" textLength="259.4299" x="799.1469" y="725.3016">staged dependency to platform-infrastructure</text><line style="stroke:#181818;stroke-width:1.5;" x1="779.1469" x2="789.1469" y1="771.9897" y2="771.9897"/><rect fill="#F1F1F1" height="36.3441" style="stroke:#181818;stroke-width:1.5;" width="499.8956" x="789.1469" y="753.8176"/><text fill="#000000" font-family="sans-serif" font-size="12" lengthAdjust="spacing" textLength="479.8956" x="799.1469" y="776.6457">bootstrap-flux is rendered under flux/generated/clusters/&lt;cluster-id&gt;/bootstrap-flux/</text><line style="stroke:#181818;stroke-width:1.5;" x1="779.1469" x2="789.1469" y1="823.3338" y2="823.3338"/><rect fill="#F1F1F1" height="36.3441" style="stroke:#181818;stroke-width:1.5;" width="243.7296" x="789.1469" y="805.1617"/><text fill="#000000" font-family="sans-serif" font-size="12" lengthAdjust="spacing" textLength="223.7296" x="799.1469" y="827.9898">the shell wrapper only applies that path</text><line style="stroke:#181818;stroke-width:1.5;" x1="779.1469" x2="779.1469" y1="379.4088" y2="823.3338"/><line style="stroke:#181818;stroke-width:1.5;" x1="704.9725" x2="714.9725" y1="874.6779" y2="874.6779"/><rect fill="#F1F1F1" height="36.3441" style="stroke:#181818;stroke-width:1.5;" width="150.9809" x="714.9725" y="856.5058"/><text fill="#000000" font-family="sans-serif" font-size="12" lengthAdjust="spacing" textLength="130.9809" x="724.9725" y="879.3339">platform-infrastructure</text><line style="stroke:#181818;stroke-width:1.5;" x1="790.463" x2="800.463" y1="926.022" y2="926.022"/><rect fill="#F1F1F1" height="36.3441" style="stroke:#181818;stroke-width:1.5;" width="208.1374" x="800.463" y="907.8499"/><text fill="#000000" font-family="sans-serif" font-size="12" lengthAdjust="spacing" textLength="188.1374" x="810.463" y="930.678">selects infrastructure profile path</text><line style="stroke:#181818;stroke-width:1.5;" x1="790.463" x2="800.463" y1="977.3661" y2="977.3661"/><rect fill="#F1F1F1" height="36.3441" style="stroke:#181818;stroke-width:1.5;" width="150.6929" x="800.463" y="959.1941"/><text fill="#000000" font-family="sans-serif" font-size="12" lengthAdjust="spacing" textLength="130.6929" x="810.463" y="982.0221">selects runtime overlay</text><line style="stroke:#181818;stroke-width:1.5;" x1="875.8095" x2="885.8095" y1="1028.7102" y2="1028.7102"/><rect fill="#F1F1F1" height="36.3441" style="stroke:#181818;stroke-width:1.5;" width="48.8602" x="885.8095" y="1010.5382"/><text fill="#000000" font-family="sans-serif" font-size="12" lengthAdjust="spacing" textLength="28.8602" x="895.8095" y="1033.3663">none</text><line style="stroke:#181818;stroke-width:1.5;" x1="875.8095" x2="885.8095" y1="1080.0543" y2="1080.0543"/><rect fill="#F1F1F1" height="36.3441" style="stroke:#181818;stroke-width:1.5;" width="58.1363" x="885.8095" y="1061.8823"/><text fill="#000000" font-family="sans-serif" font-size="12" lengthAdjust="spacing" textLength="38.1363" x="895.8095" y="1084.7104">ollama</text><line style="stroke:#181818;stroke-width:1.5;" x1="875.8095" x2="885.8095" y1="1131.3985" y2="1131.3985"/><rect fill="#F1F1F1" height="36.3441" style="stroke:#181818;stroke-width:1.5;" width="43.5082" x="885.8095" y="1113.2264"/><text fill="#000000" font-family="sans-serif" font-size="12" lengthAdjust="spacing" textLength="23.5082" x="895.8095" y="1136.0545">vllm</text><line style="stroke:#181818;stroke-width:1.5;" x1="875.8095" x2="875.8095" y1="995.5382" y2="1131.3985"/><line style="stroke:#181818;stroke-width:1.5;" x1="790.463" x2="800.463" y1="1182.7426" y2="1182.7426"/><rect fill="#F1F1F1" height="36.3441" style="stroke:#181818;stroke-width:1.5;" width="269.4458" x="800.463" y="1164.5705"/><text fill="#000000" font-family="sans-serif" font-size="12" lengthAdjust="spacing" textLength="249.4458" x="810.463" y="1187.3986">staged dependency to platform-applications</text><line style="stroke:#181818;stroke-width:1.5;" x1="790.463" x2="800.463" y1="1234.0867" y2="1234.0867"/><rect fill="#F1F1F1" height="36.3441" style="stroke:#181818;stroke-width:1.5;" width="244.4136" x="800.463" y="1215.9146"/><text fill="#000000" font-family="sans-serif" font-size="12" lengthAdjust="spacing" textLength="224.4136" x="810.463" y="1238.7427">optional dependency to platform-ops-ui</text><line style="stroke:#181818;stroke-width:1.5;" x1="790.463" x2="790.463" y1="892.8499" y2="1234.0867"/><line style="stroke:#181818;stroke-width:1.5;" x1="704.9725" x2="714.9725" y1="1285.4308" y2="1285.4308"/><rect fill="#F1F1F1" height="36.3441" style="stroke:#181818;stroke-width:1.5;" width="140.9969" x="714.9725" y="1267.2587"/><text fill="#000000" font-family="sans-serif" font-size="12" lengthAdjust="spacing" textLength="120.9969" x="724.9725" y="1290.0868">platform-applications</text><line style="stroke:#181818;stroke-width:1.5;" x1="785.471" x2="795.471" y1="1336.7749" y2="1336.7749"/><rect fill="#F1F1F1" height="36.3441" style="stroke:#181818;stroke-width:1.5;" width="248.6856" x="795.471" y="1318.6029"/><text fill="#000000" font-family="sans-serif" font-size="12" lengthAdjust="spacing" textLength="228.6856" x="805.471" y="1341.4309">applies profile applications + env overlay</text><line style="stroke:#181818;stroke-width:1.5;" x1="785.471" x2="795.471" y1="1388.119" y2="1388.119"/><rect fill="#F1F1F1" height="36.3441" style="stroke:#181818;stroke-width:1.5;" width="293.3739" x="795.471" y="1369.947"/><text fill="#000000" font-family="sans-serif" font-size="12" lengthAdjust="spacing" textLength="273.3739" x="805.471" y="1392.7751">may render MetalLB values for host-based paths</text><line style="stroke:#181818;stroke-width:1.5;" x1="785.471" x2="795.471" y1="1439.4631" y2="1439.4631"/><rect fill="#F1F1F1" height="36.3441" style="stroke:#181818;stroke-width:1.5;" width="256.3417" x="795.471" y="1421.2911"/><text fill="#000000" font-family="sans-serif" font-size="12" lengthAdjust="spacing" textLength="236.3417" x="805.471" y="1444.1192">optional dependency to platform-samples</text><line style="stroke:#181818;stroke-width:1.5;" x1="785.471" x2="785.471" y1="1303.6029" y2="1439.4631"/><line style="stroke:#181818;stroke-width:1.5;" x1="704.9725" x2="714.9725" y1="1490.8073" y2="1490.8073"/><rect fill="#F1F1F1" height="36.3441" style="stroke:#181818;stroke-width:1.5;" width="131.2288" x="714.9725" y="1472.6352"/><text fill="#000000" font-family="sans-serif" font-size="12" lengthAdjust="spacing" textLength="111.2288" x="724.9725" y="1495.4633">Optional child roots</text><line style="stroke:#181818;stroke-width:1.5;" x1="780.5869" x2="790.5869" y1="1542.1514" y2="1542.1514"/><rect fill="#F1F1F1" height="36.3441" style="stroke:#181818;stroke-width:1.5;" width="107.7326" x="790.5869" y="1523.9793"/><text fill="#000000" font-family="sans-serif" font-size="12" lengthAdjust="spacing" textLength="87.7326" x="800.5869" y="1546.8074">platform-ops-ui</text><line style="stroke:#181818;stroke-width:1.5;" x1="844.4532" x2="854.4532" y1="1593.4955" y2="1593.4955"/><rect fill="#F1F1F1" height="36.3441" style="stroke:#181818;stroke-width:1.5;" width="175.3291" x="854.4532" y="1575.3234"/><text fill="#000000" font-family="sans-serif" font-size="12" lengthAdjust="spacing" textLength="155.3291" x="864.4532" y="1598.1515">suspend=true until enabled</text><line style="stroke:#181818;stroke-width:1.5;" x1="844.4532" x2="854.4532" y1="1644.8396" y2="1644.8396"/><rect fill="#F1F1F1" height="36.3441" style="stroke:#181818;stroke-width:1.5;" width="184.3052" x="854.4532" y="1626.6675"/><text fill="#000000" font-family="sans-serif" font-size="12" lengthAdjust="spacing" textLength="164.3052" x="864.4532" y="1649.4956">deploys weave-gitops bundle</text><line style="stroke:#181818;stroke-width:1.5;" x1="844.4532" x2="844.4532" y1="1560.3234" y2="1644.8396"/><line style="stroke:#181818;stroke-width:1.5;" x1="780.5869" x2="790.5869" y1="1696.1837" y2="1696.1837"/><rect fill="#F1F1F1" height="36.3441" style="stroke:#181818;stroke-width:1.5;" width="119.6607" x="790.5869" y="1678.0117"/><text fill="#000000" font-family="sans-serif" font-size="12" lengthAdjust="spacing" textLength="99.6607" x="800.5869" y="1700.8397">platform-samples</text><line style="stroke:#181818;stroke-width:1.5;" x1="850.4173" x2="860.4173" y1="1747.5278" y2="1747.5278"/><rect fill="#F1F1F1" height="36.3441" style="stroke:#181818;stroke-width:1.5;" width="175.3291" x="860.4173" y="1729.3558"/><text fill="#000000" font-family="sans-serif" font-size="12" lengthAdjust="spacing" textLength="155.3291" x="870.4173" y="1752.1839">suspend=true until enabled</text><line style="stroke:#181818;stroke-width:1.5;" x1="850.4173" x2="860.4173" y1="1798.8719" y2="1798.8719"/><rect fill="#F1F1F1" height="36.3441" style="stroke:#181818;stroke-width:1.5;" width="215.4334" x="860.4173" y="1780.6999"/><text fill="#000000" font-family="sans-serif" font-size="12" lengthAdjust="spacing" textLength="195.4334" x="870.4173" y="1803.528">deploys samples-echo-mcp bundle</text><line style="stroke:#181818;stroke-width:1.5;" x1="850.4173" x2="850.4173" y1="1714.3558" y2="1798.8719"/><line style="stroke:#181818;stroke-width:1.5;" x1="780.5869" x2="780.5869" y1="1508.9793" y2="1696.1837"/><line style="stroke:#181818;stroke-width:1.5;" x1="704.9725" x2="704.9725" y1="122.6882" y2="1490.8073"/><line style="stroke:#181818;stroke-width:1.5;" x1="1346.7987" x2="1346.7987" y1="66.3441" y2="86.3441"/><rect fill="#F1F1F1" height="36.3441" style="stroke:#181818;stroke-width:1.5;" width="75.5124" x="1309.0425" y="86.3441"/><text fill="#000000" font-family="sans-serif" font-size="12" lengthAdjust="spacing" textLength="55.5124" x="1319.0425" y="109.1722">3. Profiles</text><line style="stroke:#181818;stroke-width:1.5;" x1="1346.7987" x2="1356.7987" y1="155.8603" y2="155.8603"/><rect fill="#F1F1F1" height="36.3441" style="stroke:#181818;stroke-width:1.5;" width="131.2528" x="1356.7987" y="137.6882"/><text fill="#000000" font-family="sans-serif" font-size="12" lengthAdjust="spacing" textLength="111.2528" x="1366.7987" y="160.5163">platform-profile-full</text><line style="stroke:#181818;stroke-width:1.5;" x1="1422.4251" x2="1432.4251" y1="207.2044" y2="207.2044"/><rect fill="#F1F1F1" height="36.3441" style="stroke:#181818;stroke-width:1.5;" width="46.6282" x="1432.4251" y="189.0323"/><text fill="#000000" font-family="sans-serif" font-size="12" lengthAdjust="spacing" textLength="26.6282" x="1442.4251" y="211.8604">base</text><line style="stroke:#181818;stroke-width:1.5;" x1="1422.4251" x2="1432.4251" y1="258.5485" y2="258.5485"/><rect fill="#F1F1F1" height="36.3441" style="stroke:#181818;stroke-width:1.5;" width="66.5723" x="1432.4251" y="240.3765"/><text fill="#000000" font-family="sans-serif" font-size="12" lengthAdjust="spacing" textLength="46.5723" x="1442.4251" y="263.2045">network</text><line style="stroke:#181818;stroke-width:1.5;" x1="1422.4251" x2="1432.4251" y1="309.8926" y2="309.8926"/><rect fill="#F1F1F1" height="36.3441" style="stroke:#181818;stroke-width:1.5;" width="101.6966" x="1432.4251" y="291.7206"/><text fill="#000000" font-family="sans-serif" font-size="12" lengthAdjust="spacing" textLength="81.6966" x="1442.4251" y="314.5487">agent-runtime</text><line style="stroke:#181818;stroke-width:1.5;" x1="1422.4251" x2="1432.4251" y1="361.2367" y2="361.2367"/><rect fill="#F1F1F1" height="36.3441" style="stroke:#181818;stroke-width:1.5;" width="61.4603" x="1432.4251" y="343.0647"/><text fill="#000000" font-family="sans-serif" font-size="12" lengthAdjust="spacing" textLength="41.4603" x="1442.4251" y="365.8928">serving</text><line style="stroke:#181818;stroke-width:1.5;" x1="1422.4251" x2="1432.4251" y1="412.5809" y2="412.5809"/><rect fill="#F1F1F1" height="36.3441" style="stroke:#181818;stroke-width:1.5;" width="62.2163" x="1432.4251" y="394.4088"/><text fill="#000000" font-family="sans-serif" font-size="12" lengthAdjust="spacing" textLength="42.2163" x="1442.4251" y="417.2369">context</text><line style="stroke:#181818;stroke-width:1.5;" x1="1422.4251" x2="1432.4251" y1="463.925" y2="463.925"/><rect fill="#F1F1F1" height="36.3441" style="stroke:#181818;stroke-width:1.5;" width="92.0605" x="1432.4251" y="445.7529"/><text fill="#000000" font-family="sans-serif" font-size="12" lengthAdjust="spacing" textLength="72.0605" x="1442.4251" y="468.581">observability</text><line style="stroke:#181818;stroke-width:1.5;" x1="1422.4251" x2="1432.4251" y1="515.2691" y2="515.2691"/><rect fill="#F1F1F1" height="36.3441" style="stroke:#181818;stroke-width:1.5;" width="62.6243" x="1432.4251" y="497.097"/><text fill="#000000" font-family="sans-serif" font-size="12" lengthAdjust="spacing" textLength="42.6243" x="1442.4251" y="519.9251">metallb</text><line style="stroke:#181818;stroke-width:1.5;" x1="1422.4251" x2="1432.4251" y1="566.6132" y2="566.6132"/><rect fill="#F1F1F1" height="36.3441" style="stroke:#181818;stroke-width:1.5;" width="125.6008" x="1432.4251" y="548.4411"/><text fill="#000000" font-family="sans-serif" font-size="12" lengthAdjust="spacing" textLength="105.6008" x="1442.4251" y="571.2692">host-based default</text><line style="stroke:#181818;stroke-width:1.5;" x1="1422.4251" x2="1422.4251" y1="174.0323" y2="566.6132"/><line style="stroke:#181818;stroke-width:1.5;" x1="1346.7987" x2="1356.7987" y1="617.9573" y2="617.9573"/><rect fill="#F1F1F1" height="36.3441" style="stroke:#181818;stroke-width:1.5;" width="134.4568" x="1356.7987" y="599.7853"/><text fill="#000000" font-family="sans-serif" font-size="12" lengthAdjust="spacing" textLength="114.4568" x="1366.7987" y="622.6133">platform-profile-fast</text><line style="stroke:#181818;stroke-width:1.5;" x1="1424.0271" x2="1434.0271" y1="669.3014" y2="669.3014"/><rect fill="#F1F1F1" height="36.3441" style="stroke:#181818;stroke-width:1.5;" width="46.6282" x="1434.0271" y="651.1294"/><text fill="#000000" font-family="sans-serif" font-size="12" lengthAdjust="spacing" textLength="26.6282" x="1444.0271" y="673.9575">base</text><line style="stroke:#181818;stroke-width:1.5;" x1="1424.0271" x2="1434.0271" y1="720.6455" y2="720.6455"/><rect fill="#F1F1F1" height="36.3441" style="stroke:#181818;stroke-width:1.5;" width="66.5723" x="1434.0271" y="702.4735"/><text fill="#000000" font-family="sans-serif" font-size="12" lengthAdjust="spacing" textLength="46.5723" x="1444.0271" y="725.3016">network</text><line style="stroke:#181818;stroke-width:1.5;" x1="1424.0271" x2="1434.0271" y1="771.9897" y2="771.9897"/><rect fill="#F1F1F1" height="36.3441" style="stroke:#181818;stroke-width:1.5;" width="101.6966" x="1434.0271" y="753.8176"/><text fill="#000000" font-family="sans-serif" font-size="12" lengthAdjust="spacing" textLength="81.6966" x="1444.0271" y="776.6457">agent-runtime</text><line style="stroke:#181818;stroke-width:1.5;" x1="1424.0271" x2="1434.0271" y1="823.3338" y2="823.3338"/><rect fill="#F1F1F1" height="36.3441" style="stroke:#181818;stroke-width:1.5;" width="62.6243" x="1434.0271" y="805.1617"/><text fill="#000000" font-family="sans-serif" font-size="12" lengthAdjust="spacing" textLength="42.6243" x="1444.0271" y="827.9898">metallb</text><line style="stroke:#181818;stroke-width:1.5;" x1="1424.0271" x2="1434.0271" y1="874.6779" y2="874.6779"/><rect fill="#F1F1F1" height="36.3441" style="stroke:#181818;stroke-width:1.5;" width="110.2767" x="1434.0271" y="856.5058"/><text fill="#000000" font-family="sans-serif" font-size="12" lengthAdjust="spacing" textLength="90.2767" x="1444.0271" y="879.3339">explicit override</text><line style="stroke:#181818;stroke-width:1.5;" x1="1424.0271" x2="1424.0271" y1="636.1294" y2="874.6779"/><line style="stroke:#181818;stroke-width:1.5;" x1="1346.7987" x2="1356.7987" y1="926.022" y2="926.022"/><rect fill="#F1F1F1" height="36.3441" style="stroke:#181818;stroke-width:1.5;" width="179.7812" x="1356.7987" y="907.8499"/><text fill="#000000" font-family="sans-serif" font-size="12" lengthAdjust="spacing" textLength="159.7812" x="1366.7987" y="930.678">platform-profile-fast-serving</text><line style="stroke:#181818;stroke-width:1.5;" x1="1446.6893" x2="1456.6893" y1="977.3661" y2="977.3661"/><rect fill="#F1F1F1" height="36.3441" style="stroke:#181818;stroke-width:1.5;" width="189.0212" x="1456.6893" y="959.1941"/><text fill="#000000" font-family="sans-serif" font-size="12" lengthAdjust="spacing" textLength="169.0212" x="1466.6893" y="982.0221">platform-profile-fast + serving</text><line style="stroke:#181818;stroke-width:1.5;" x1="1446.6893" x2="1456.6893" y1="1028.7102" y2="1028.7102"/><rect fill="#F1F1F1" height="36.3441" style="stroke:#181818;stroke-width:1.5;" width="110.2767" x="1456.6893" y="1010.5382"/><text fill="#000000" font-family="sans-serif" font-size="12" lengthAdjust="spacing" textLength="90.2767" x="1466.6893" y="1033.3663">explicit override</text><line style="stroke:#181818;stroke-width:1.5;" x1="1446.6893" x2="1446.6893" y1="944.1941" y2="1028.7102"/><line style="stroke:#181818;stroke-width:1.5;" x1="1346.7987" x2="1356.7987" y1="1080.0543" y2="1080.0543"/><rect fill="#F1F1F1" height="36.3441" style="stroke:#181818;stroke-width:1.5;" width="180.5372" x="1356.7987" y="1061.8823"/><text fill="#000000" font-family="sans-serif" font-size="12" lengthAdjust="spacing" textLength="160.5372" x="1366.7987" y="1084.7104">platform-profile-fast-context</text><line style="stroke:#181818;stroke-width:1.5;" x1="1447.0673" x2="1457.0673" y1="1131.3985" y2="1131.3985"/><rect fill="#F1F1F1" height="36.3441" style="stroke:#181818;stroke-width:1.5;" width="189.7772" x="1457.0673" y="1113.2264"/><text fill="#000000" font-family="sans-serif" font-size="12" lengthAdjust="spacing" textLength="169.7772" x="1467.0673" y="1136.0545">platform-profile-fast + context</text><line style="stroke:#181818;stroke-width:1.5;" x1="1447.0673" x2="1457.0673" y1="1182.7426" y2="1182.7426"/><rect fill="#F1F1F1" height="36.3441" style="stroke:#181818;stroke-width:1.5;" width="110.2767" x="1457.0673" y="1164.5705"/><text fill="#000000" font-family="sans-serif" font-size="12" lengthAdjust="spacing" textLength="90.2767" x="1467.0673" y="1187.3986">explicit override</text><line style="stroke:#181818;stroke-width:1.5;" x1="1447.0673" x2="1447.0673" y1="1098.2264" y2="1182.7426"/><line style="stroke:#181818;stroke-width:1.5;" x1="1346.7987" x2="1356.7987" y1="1234.0867" y2="1234.0867"/><rect fill="#F1F1F1" height="36.3441" style="stroke:#181818;stroke-width:1.5;" width="173.9611" x="1356.7987" y="1215.9146"/><text fill="#000000" font-family="sans-serif" font-size="12" lengthAdjust="spacing" textLength="153.9611" x="1366.7987" y="1238.7427">platform-profile-workspace</text><line style="stroke:#181818;stroke-width:1.5;" x1="1443.7793" x2="1453.7793" y1="1285.4308" y2="1285.4308"/><rect fill="#F1F1F1" height="36.3441" style="stroke:#181818;stroke-width:1.5;" width="274.7619" x="1453.7793" y="1267.2587"/><text fill="#000000" font-family="sans-serif" font-size="12" lengthAdjust="spacing" textLength="254.7619" x="1463.7793" y="1290.0868">currently aliases platform-profile-fast-serving</text><line style="stroke:#181818;stroke-width:1.5;" x1="1443.7793" x2="1453.7793" y1="1336.7749" y2="1336.7749"/><rect fill="#F1F1F1" height="36.3441" style="stroke:#181818;stroke-width:1.5;" width="164.301" x="1453.7793" y="1318.6029"/><text fill="#000000" font-family="sans-serif" font-size="12" lengthAdjust="spacing" textLength="144.301" x="1463.7793" y="1341.4309">github-workspace default</text><line style="stroke:#181818;stroke-width:1.5;" x1="1443.7793" x2="1443.7793" y1="1252.2587" y2="1336.7749"/><line style="stroke:#181818;stroke-width:1.5;" x1="1346.7987" x2="1346.7987" y1="122.6882" y2="1234.0867"/><line style="stroke:#181818;stroke-width:1.5;" x1="1811.9415" x2="1811.9415" y1="66.3441" y2="86.3441"/><rect fill="#F1F1F1" height="36.3441" style="stroke:#181818;stroke-width:1.5;" width="126.8007" x="1748.5411" y="86.3441"/><text fill="#000000" font-family="sans-serif" font-size="12" lengthAdjust="spacing" textLength="106.8007" x="1758.5411" y="109.1722">4. Bundle mapping</text><line style="stroke:#181818;stroke-width:1.5;" x1="1811.9415" x2="1821.9415" y1="155.8603" y2="155.8603"/><rect fill="#F1F1F1" height="36.3441" style="stroke:#181818;stroke-width:1.5;" width="128.7688" x="1821.9415" y="137.6882"/><text fill="#000000" font-family="sans-serif" font-size="12" lengthAdjust="spacing" textLength="108.7688" x="1831.9415" y="160.5163">Applications profile</text><line style="stroke:#181818;stroke-width:1.5;" x1="1886.3259" x2="1896.3259" y1="207.2044" y2="207.2044"/><rect fill="#F1F1F1" height="36.3441" style="stroke:#181818;stroke-width:1.5;" width="100.2086" x="1896.3259" y="189.0323"/><text fill="#000000" font-family="sans-serif" font-size="12" lengthAdjust="spacing" textLength="80.2086" x="1906.3259" y="211.8604">platform-apps</text><line style="stroke:#181818;stroke-width:1.5;" x1="1886.3259" x2="1886.3259" y1="174.0323" y2="207.2044"/><line style="stroke:#181818;stroke-width:1.5;" x1="1811.9415" x2="1821.9415" y1="258.5485" y2="258.5485"/><rect fill="#F1F1F1" height="36.3441" style="stroke:#181818;stroke-width:1.5;" width="193.4253" x="1821.9415" y="240.3765"/><text fill="#000000" font-family="sans-serif" font-size="12" lengthAdjust="spacing" textLength="173.4253" x="1831.9415" y="263.2045">platform-profile-full -&gt; bundles</text><line style="stroke:#181818;stroke-width:1.5;" x1="1918.6541" x2="1928.6541" y1="309.8926" y2="309.8926"/><rect fill="#F1F1F1" height="36.3441" style="stroke:#181818;stroke-width:1.5;" width="99.5966" x="1928.6541" y="291.7206"/><text fill="#000000" font-family="sans-serif" font-size="12" lengthAdjust="spacing" textLength="79.5966" x="1938.6541" y="314.5487">platform-base</text><line style="stroke:#181818;stroke-width:1.5;" x1="1918.6541" x2="1928.6541" y1="361.2367" y2="361.2367"/><rect fill="#F1F1F1" height="36.3441" style="stroke:#181818;stroke-width:1.5;" width="119.5407" x="1928.6541" y="343.0647"/><text fill="#000000" font-family="sans-serif" font-size="12" lengthAdjust="spacing" textLength="99.5407" x="1938.6541" y="365.8928">platform-network</text><line style="stroke:#181818;stroke-width:1.5;" x1="1918.6541" x2="1928.6541" y1="412.5809" y2="412.5809"/><rect fill="#F1F1F1" height="36.3441" style="stroke:#181818;stroke-width:1.5;" width="154.6649" x="1928.6541" y="394.4088"/><text fill="#000000" font-family="sans-serif" font-size="12" lengthAdjust="spacing" textLength="134.6649" x="1938.6541" y="417.2369">platform-agent-runtime</text><line style="stroke:#181818;stroke-width:1.5;" x1="1918.6541" x2="1928.6541" y1="463.925" y2="463.925"/><rect fill="#F1F1F1" height="36.3441" style="stroke:#181818;stroke-width:1.5;" width="114.4287" x="1928.6541" y="445.7529"/><text fill="#000000" font-family="sans-serif" font-size="12" lengthAdjust="spacing" textLength="94.4287" x="1938.6541" y="468.581">platform-serving</text><line style="stroke:#181818;stroke-width:1.5;" x1="1918.6541" x2="1928.6541" y1="515.2691" y2="515.2691"/><rect fill="#F1F1F1" height="36.3441" style="stroke:#181818;stroke-width:1.5;" width="115.1847" x="1928.6541" y="497.097"/><text fill="#000000" font-family="sans-serif" font-size="12" lengthAdjust="spacing" textLength="95.1847" x="1938.6541" y="519.9251">platform-context</text><line style="stroke:#181818;stroke-width:1.5;" x1="1918.6541" x2="1928.6541" y1="566.6132" y2="566.6132"/><rect fill="#F1F1F1" height="36.3441" style="stroke:#181818;stroke-width:1.5;" width="145.0289" x="1928.6541" y="548.4411"/><text fill="#000000" font-family="sans-serif" font-size="12" lengthAdjust="spacing" textLength="125.0289" x="1938.6541" y="571.2692">platform-observability</text><line style="stroke:#181818;stroke-width:1.5;" x1="1918.6541" x2="1918.6541" y1="276.7206" y2="566.6132"/><line style="stroke:#181818;stroke-width:1.5;" x1="1811.9415" x2="1821.9415" y1="617.9573" y2="617.9573"/><rect fill="#F1F1F1" height="36.3441" style="stroke:#181818;stroke-width:1.5;" width="196.6293" x="1821.9415" y="599.7853"/><text fill="#000000" font-family="sans-serif" font-size="12" lengthAdjust="spacing" textLength="176.6293" x="1831.9415" y="622.6133">platform-profile-fast -&gt; bundles</text><line style="stroke:#181818;stroke-width:1.5;" x1="1920.2561" x2="1930.2561" y1="669.3014" y2="669.3014"/><rect fill="#F1F1F1" height="36.3441" style="stroke:#181818;stroke-width:1.5;" width="99.5966" x="1930.2561" y="651.1294"/><text fill="#000000" font-family="sans-serif" font-size="12" lengthAdjust="spacing" textLength="79.5966" x="1940.2561" y="673.9575">platform-base</text><line style="stroke:#181818;stroke-width:1.5;" x1="1920.2561" x2="1930.2561" y1="720.6455" y2="720.6455"/><rect fill="#F1F1F1" height="36.3441" style="stroke:#181818;stroke-width:1.5;" width="119.5407" x="1930.2561" y="702.4735"/><text fill="#000000" font-family="sans-serif" font-size="12" lengthAdjust="spacing" textLength="99.5407" x="1940.2561" y="725.3016">platform-network</text><line style="stroke:#181818;stroke-width:1.5;" x1="1920.2561" x2="1930.2561" y1="771.9897" y2="771.9897"/><rect fill="#F1F1F1" height="36.3441" style="stroke:#181818;stroke-width:1.5;" width="154.6649" x="1930.2561" y="753.8176"/><text fill="#000000" font-family="sans-serif" font-size="12" lengthAdjust="spacing" textLength="134.6649" x="1940.2561" y="776.6457">platform-agent-runtime</text><line style="stroke:#181818;stroke-width:1.5;" x1="1920.2561" x2="1920.2561" y1="636.1294" y2="771.9897"/><line style="stroke:#181818;stroke-width:1.5;" x1="1811.9415" x2="1821.9415" y1="823.3338" y2="823.3338"/><rect fill="#F1F1F1" height="36.3441" style="stroke:#181818;stroke-width:1.5;" width="241.9536" x="1821.9415" y="805.1617"/><text fill="#000000" font-family="sans-serif" font-size="12" lengthAdjust="spacing" textLength="221.9536" x="1831.9415" y="827.9898">platform-profile-fast-serving -&gt; bundles</text><line style="stroke:#181818;stroke-width:1.5;" x1="1942.9183" x2="1952.9183" y1="874.6779" y2="874.6779"/><rect fill="#F1F1F1" height="36.3441" style="stroke:#181818;stroke-width:1.5;" width="180.4052" x="1952.9183" y="856.5058"/><text fill="#000000" font-family="sans-serif" font-size="12" lengthAdjust="spacing" textLength="160.4052" x="1962.9183" y="879.3339">inherits platform-profile-fast</text><line style="stroke:#181818;stroke-width:1.5;" x1="1942.9183" x2="1952.9183" y1="926.022" y2="926.022"/><rect fill="#F1F1F1" height="36.3441" style="stroke:#181818;stroke-width:1.5;" width="114.4287" x="1952.9183" y="907.8499"/><text fill="#000000" font-family="sans-serif" font-size="12" lengthAdjust="spacing" textLength="94.4287" x="1962.9183" y="930.678">platform-serving</text><line style="stroke:#181818;stroke-width:1.5;" x1="1942.9183" x2="1942.9183" y1="841.5058" y2="926.022"/><line style="stroke:#181818;stroke-width:1.5;" x1="1811.9415" x2="1821.9415" y1="977.3661" y2="977.3661"/><rect fill="#F1F1F1" height="36.3441" style="stroke:#181818;stroke-width:1.5;" width="242.7096" x="1821.9415" y="959.1941"/><text fill="#000000" font-family="sans-serif" font-size="12" lengthAdjust="spacing" textLength="222.7096" x="1831.9415" y="982.0221">platform-profile-fast-context -&gt; bundles</text><line style="stroke:#181818;stroke-width:1.5;" x1="1943.2963" x2="1953.2963" y1="1028.7102" y2="1028.7102"/><rect fill="#F1F1F1" height="36.3441" style="stroke:#181818;stroke-width:1.5;" width="180.4052" x="1953.2963" y="1010.5382"/><text fill="#000000" font-family="sans-serif" font-size="12" lengthAdjust="spacing" textLength="160.4052" x="1963.2963" y="1033.3663">inherits platform-profile-fast</text><line style="stroke:#181818;stroke-width:1.5;" x1="1943.2963" x2="1953.2963" y1="1080.0543" y2="1080.0543"/><rect fill="#F1F1F1" height="36.3441" style="stroke:#181818;stroke-width:1.5;" width="115.1847" x="1953.2963" y="1061.8823"/><text fill="#000000" font-family="sans-serif" font-size="12" lengthAdjust="spacing" textLength="95.1847" x="1963.2963" y="1084.7104">platform-context</text><line style="stroke:#181818;stroke-width:1.5;" x1="1943.2963" x2="1943.2963" y1="995.5382" y2="1080.0543"/><line style="stroke:#181818;stroke-width:1.5;" x1="1811.9415" x2="1821.9415" y1="1131.3985" y2="1131.3985"/><rect fill="#F1F1F1" height="36.3441" style="stroke:#181818;stroke-width:1.5;" width="236.1336" x="1821.9415" y="1113.2264"/><text fill="#000000" font-family="sans-serif" font-size="12" lengthAdjust="spacing" textLength="216.1336" x="1831.9415" y="1136.0545">platform-profile-workspace -&gt; bundles</text><line style="stroke:#181818;stroke-width:1.5;" x1="1940.0083" x2="1950.0083" y1="1182.7426" y2="1182.7426"/><rect fill="#F1F1F1" height="36.3441" style="stroke:#181818;stroke-width:1.5;" width="220.8215" x="1950.0083" y="1164.5705"/><text fill="#000000" font-family="sans-serif" font-size="12" lengthAdjust="spacing" textLength="200.8215" x="1960.0083" y="1187.3986">aliases platform-profile-fast-serving</text><line style="stroke:#181818;stroke-width:1.5;" x1="1940.0083" x2="1940.0083" y1="1149.5705" y2="1182.7426"/><line style="stroke:#181818;stroke-width:1.5;" x1="1811.9415" x2="1821.9415" y1="1234.0867" y2="1234.0867"/><rect fill="#F1F1F1" height="36.3441" style="stroke:#181818;stroke-width:1.5;" width="117.0087" x="1821.9415" y="1215.9146"/><text fill="#000000" font-family="sans-serif" font-size="12" lengthAdjust="spacing" textLength="97.0087" x="1831.9415" y="1238.7427">Optional bundles</text><line style="stroke:#181818;stroke-width:1.5;" x1="1880.4458" x2="1890.4458" y1="1285.4308" y2="1285.4308"/><rect fill="#F1F1F1" height="36.3441" style="stroke:#181818;stroke-width:1.5;" width="242.1336" x="1890.4458" y="1267.2587"/><text fill="#000000" font-family="sans-serif" font-size="12" lengthAdjust="spacing" textLength="222.1336" x="1900.4458" y="1290.0868">weave-gitops bundle -&gt; platform-ops-ui</text><line style="stroke:#181818;stroke-width:1.5;" x1="1880.4458" x2="1890.4458" y1="1336.7749" y2="1336.7749"/><rect fill="#F1F1F1" height="36.3441" style="stroke:#181818;stroke-width:1.5;" width="285.1899" x="1890.4458" y="1318.6029"/><text fill="#000000" font-family="sans-serif" font-size="12" lengthAdjust="spacing" textLength="265.1899" x="1900.4458" y="1341.4309">samples-echo-mcp bundle -&gt; platform-samples</text><line style="stroke:#181818;stroke-width:1.5;" x1="1880.4458" x2="1880.4458" y1="1252.2587" y2="1336.7749"/><line style="stroke:#181818;stroke-width:1.5;" x1="1811.9415" x2="1811.9415" y1="122.6882" y2="1234.0867"/><line style="stroke:#181818;stroke-width:1.5;" x1="104.4386" x2="1811.9415" y1="66.3441" y2="66.3441"/><rect fill="#F1F1F1" height="36.3441" style="stroke:#181818;stroke-width:1.5;" width="428.9511" x="743.7145" y="10"/><text fill="#000000" font-family="sans-serif" font-size="12" lengthAdjust="spacing" textLength="408.9511" x="753.7145" y="32.8281">AgenticNativePlatform - Current GitOps Staging And Profile Composition</text><line style="stroke:#181818;stroke-width:1.5;" x1="958.19" x2="958.19" y1="46.3441" y2="66.3441"/><!--SRC=[jLVRRjiu47ttLynZwrtPJPekkaQtYEEaQR9n4pX9NmjAeYoY52cGb1F__Sv8f6N5bpeeziaIEJnpEMU6ygbrpBYdsFRwC9vpvKJoZJcnu7UIkKoR0YAOLCRW3bmATrjQk7TiBjGSnYg5EwCp8JbCT55gAvpGgjVlmz40xdLb4WuCZH2M6qPxa4dzX0Pzk2rfIHjwwGDFXRDGC2KoRl69JYKv1cP1A32ynjPc2RP1rHauKxcyFjr7rEfvc5082kEqmxvVRo1MhxMPNd0ZsJAi0XuhX7TPLZRd5fn6buLsd39Uy-vXBgyUVimkxcv_FCvkuBH-FPkDlqs-rebTDido52ClAsTxhUjvs1f-ShhKKi-NduTRznDPMSUD7NxoJv58WsbfT5ebY1-7W0hsazS8qOB9YjlrPIGknUC1ncZjwZ0liemdnFEAaZxCTjOPeiyRYT7QR6kPI0770_Y24O5Tejy2TnEj4Y45ynBfqw7MuR3qSciYgOyQpb8a8-U1ZTWmbUGTYmOLEVCcwr9n6EoVeBG3gHCcuKcRdwHRPpXlGDgKMkaLM2Y8kTS5xQsKaTPnXqYZ66jfdM5b0xPwnQFAeGuz3J6p71Ghk2rPiYBd4jq-iIMCxwvWCZiFor-vB8QtaojFG5XUAGCRJMLYFcLbsB8yCPpAdt7aEXoXxETedlAI1A2I9Qbw5RfGcM4OR9Muol0NyKSa9H3MQmTHAlezJADT52zPuX3h9v43tC7E1wta4l1H2kgtd3aeMTFE-uEqNA9iQIgixr5Fr6CeWBI6fiAHLg2IcxRtHLCuAFoZbf8LpByif2mEgLyTUL9hsTTRb_I2AjjnGfSsgaGtmKsKK96Gpxe5_05SBJg9e6oNdYMOSiVapHaq8m3G0UJQkeZabzQ5EJ1IoufIDZB2AUrjarp856XwU9GjYL7LAakO_o0n7AZo4cDciMnQ1mtGfzHB2q-SBNWqnqx52oL6VKd-0dSjZDS0-sCHJt8T5KaPm6aclH-4-yfsYV3bZh9AojwgQPidnHqD3iyFtP2HrrGGcbdWL0cN2NR-i_E5ZccFnJZrNE2BI99nyx96JyepLact8oeK-ckZwZZYpwGYdD6a7IDIljjFr4bdgmdgi6Fq6lHEVNQXTumEHATYrFFLyz1yiT2CmIl7KaVzEbjKOrx5BTIA5TBEoG3EQYLXpvMbFmFZzVxqo2-IG-izQgDBj57eoxvgkLujTKXl7MootpRHLZQtix0Xrnq4_GyHxsTdmwDGEJVqpRQdLRQLOByeVy_DMattg7F3ny7oR4Tnv_oMEKe-jatdNQEnOn-cxYaEM_fJqCE_0SezJcy0sy_I5_pHuFZTyOV1oPjxlBIlAmN77-7e_UZTtwFZ3p2vk7y0sd_RUpEzUWYVaQd0grh45MNmjdVD5Wnc3ViZ-YEWhi__3GjmeHR2Q5NG1zJrzsbhyDT9T8Ppu1vhWjVTzsdll6bFF97e5CiqWiU7Bz77tWrJymerDi8heZVHY6kM8r3ORVy1]--></g></svg>