<svg xmlns="http://www.w3.org/2000/svg" xmlns:xlink="http://www.w3.org/1999/xlink" contentStyleType="text/css" data-diagram-type="WBS" height="1879px" preserveAspectRatio="none" style="width:1915px;height:1879px;background:#FFFFFF;" version="1.1" viewBox="0 0 1915 1879" width="1915px" zoomAndPan="magnify"><defs/><g><line style="stroke:#181818;stroke-width:1.5;" x1="77.0004" x2="77.0004" y1="66.3441" y2="86.3441"/><rect fill="#F1F1F1" height="36.3441" style="stroke:#181818;stroke-width:1.5;" width="134.0008" x="10" y="86.3441"/><text fill="#000000" font-family="sans-serif" font-size="12" lengthAdjust="spacing" textLength="114.0008" x="20" y="109.1722">1. Flux control plane</text><line style="stroke:#181818;stroke-width:1.5;" x1="77.0004" x2="87.0004" y1="155.8603" y2="155.8603"/><rect fill="#F1F1F1" height="36.3441" style="stroke:#181818;stroke-width:1.5;" width="97.9646" x="87.0004" y="137.6882"/><text fill="#000000" font-family="sans-serif" font-size="12" lengthAdjust="spacing" textLength="77.9646" x="97.0004" y="160.5163">Flux Operator</text><line style="stroke:#181818;stroke-width:1.5;" x1="135.9827" x2="145.9827" y1="207.2044" y2="207.2044"/><rect fill="#F1F1F1" height="36.3441" style="stroke:#181818;stroke-width:1.5;" width="203.9373" x="145.9827" y="189.0323"/><text fill="#000000" font-family="sans-serif" font-size="12" lengthAdjust="spacing" textLength="183.9373" x="155.9827" y="211.8604">manages Flux controller lifecycle</text><line style="stroke:#181818;stroke-width:1.5;" x1="135.9827" x2="135.9827" y1="174.0323" y2="207.2044"/><line style="stroke:#181818;stroke-width:1.5;" x1="77.0004" x2="87.0004" y1="258.5485" y2="258.5485"/><rect fill="#F1F1F1" height="36.3441" style="stroke:#181818;stroke-width:1.5;" width="116.7807" x="87.0004" y="240.3765"/><text fill="#000000" font-family="sans-serif" font-size="12" lengthAdjust="spacing" textLength="96.7807" x="97.0004" y="263.2045">FluxInstance/flux</text><line style="stroke:#181818;stroke-width:1.5;" x1="145.3907" x2="155.3907" y1="309.8926" y2="309.8926"/><rect fill="#F1F1F1" height="36.3441" style="stroke:#181818;stroke-width:1.5;" width="162.213" x="155.3907" y="291.7206"/><text fill="#000000" font-family="sans-serif" font-size="12" lengthAdjust="spacing" textLength="142.213" x="165.3907" y="314.5487">sync.kind = GitRepository</text><line style="stroke:#181818;stroke-width:1.5;" x1="145.3907" x2="155.3907" y1="361.2367" y2="361.2367"/><rect fill="#F1F1F1" height="36.3441" style="stroke:#181818;stroke-width:1.5;" width="244.8816" x="155.3907" y="343.0647"/><text fill="#000000" font-family="sans-serif" font-size="12" lengthAdjust="spacing" textLength="224.8816" x="165.3907" y="365.8928">sync.path = ./clusters/&lt;topology&gt;-&lt;env&gt;</text><line style="stroke:#181818;stroke-width:1.5;" x1="145.3907" x2="145.3907" y1="276.7206" y2="361.2367"/><line style="stroke:#181818;stroke-width:1.5;" x1="77.0004" x2="87.0004" y1="412.5809" y2="412.5809"/><rect fill="#F1F1F1" height="36.3441" style="stroke:#181818;stroke-width:1.5;" width="150.117" x="87.0004" y="394.4088"/><text fill="#000000" font-family="sans-serif" font-size="12" lengthAdjust="spacing" textLength="130.117" x="97.0004" y="417.2369">GitRepository/platform</text><line style="stroke:#181818;stroke-width:1.5;" x1="162.0589" x2="172.0589" y1="463.925" y2="463.925"/><rect fill="#F1F1F1" height="36.3441" style="stroke:#181818;stroke-width:1.5;" width="158.073" x="172.0589" y="445.7529"/><text fill="#000000" font-family="sans-serif" font-size="12" lengthAdjust="spacing" textLength="138.073" x="182.0589" y="468.581">reads remote Git branch</text><line style="stroke:#181818;stroke-width:1.5;" x1="162.0589" x2="162.0589" y1="430.7529" y2="463.925"/><line style="stroke:#181818;stroke-width:1.5;" x1="77.0004" x2="87.0004" y1="515.2691" y2="515.2691"/><rect fill="#F1F1F1" height="36.3441" style="stroke:#181818;stroke-width:1.5;" width="149.0249" x="87.0004" y="497.097"/><text fill="#000000" font-family="sans-serif" font-size="12" lengthAdjust="spacing" textLength="129.0249" x="97.0004" y="519.9251">Staged Kustomizations</text><line style="stroke:#181818;stroke-width:1.5;" x1="161.5129" x2="171.5129" y1="566.6132" y2="566.6132"/><rect fill="#F1F1F1" height="36.3441" style="stroke:#181818;stroke-width:1.5;" width="150.9809" x="171.5129" y="548.4411"/><text fill="#000000" font-family="sans-serif" font-size="12" lengthAdjust="spacing" textLength="130.9809" x="181.5129" y="571.2692">platform-infrastructure</text><line style="stroke:#181818;stroke-width:1.5;" x1="161.5129" x2="171.5129" y1="617.9573" y2="617.9573"/><rect fill="#F1F1F1" height="36.3441" style="stroke:#181818;stroke-width:1.5;" width="113.0487" x="171.5129" y="599.7853"/><text fill="#000000" font-family="sans-serif" font-size="12" lengthAdjust="spacing" textLength="93.0487" x="181.5129" y="622.6133">platform-secrets</text><line style="stroke:#181818;stroke-width:1.5;" x1="161.5129" x2="171.5129" y1="669.3014" y2="669.3014"/><rect fill="#F1F1F1" height="36.3441" style="stroke:#181818;stroke-width:1.5;" width="140.9969" x="171.5129" y="651.1294"/><text fill="#000000" font-family="sans-serif" font-size="12" lengthAdjust="spacing" textLength="120.9969" x="181.5129" y="673.9575">platform-applications</text><line style="stroke:#181818;stroke-width:1.5;" x1="161.5129" x2="161.5129" y1="533.4411" y2="669.3014"/><line style="stroke:#181818;stroke-width:1.5;" x1="77.0004" x2="77.0004" y1="122.6882" y2="515.2691"/><line style="stroke:#181818;stroke-width:1.5;" x1="504.0488" x2="504.0488" y1="66.3441" y2="86.3441"/><rect fill="#F1F1F1" height="36.3441" style="stroke:#181818;stroke-width:1.5;" width="167.5531" x="420.2723" y="86.3441"/><text fill="#000000" font-family="sans-serif" font-size="12" lengthAdjust="spacing" textLength="147.5531" x="430.2723" y="109.1722">2. North-south traffic path</text><line style="stroke:#181818;stroke-width:1.5;" x1="504.0488" x2="514.0488" y1="155.8603" y2="155.8603"/><rect fill="#F1F1F1" height="36.3441" style="stroke:#181818;stroke-width:1.5;" width="99.9086" x="514.0488" y="137.6882"/><text fill="#000000" font-family="sans-serif" font-size="12" lengthAdjust="spacing" textLength="79.9086" x="524.0488" y="160.5163">External client</text><line style="stroke:#181818;stroke-width:1.5;" x1="564.0031" x2="574.0031" y1="207.2044" y2="207.2044"/><rect fill="#F1F1F1" height="36.3441" style="stroke:#181818;stroke-width:1.5;" width="162.813" x="574.0031" y="189.0323"/><text fill="#000000" font-family="sans-serif" font-size="12" lengthAdjust="spacing" textLength="142.813" x="584.0031" y="211.8604">sends HTTP /v1 and /mcp</text><line style="stroke:#181818;stroke-width:1.5;" x1="564.0031" x2="564.0031" y1="174.0323" y2="207.2044"/><line style="stroke:#181818;stroke-width:1.5;" x1="504.0488" x2="514.0488" y1="258.5485" y2="258.5485"/><rect fill="#F1F1F1" height="36.3441" style="stroke:#181818;stroke-width:1.5;" width="162.513" x="514.0488" y="240.3765"/><text fill="#000000" font-family="sans-serif" font-size="12" lengthAdjust="spacing" textLength="142.513" x="524.0488" y="263.2045">kgateway public-gateway</text><line style="stroke:#181818;stroke-width:1.5;" x1="595.3053" x2="605.3053" y1="309.8926" y2="309.8926"/><rect fill="#F1F1F1" height="36.3441" style="stroke:#181818;stroke-width:1.5;" width="152.7329" x="605.3053" y="291.7206"/><text fill="#000000" font-family="sans-serif" font-size="12" lengthAdjust="spacing" textLength="132.7329" x="615.3053" y="314.5487">north-south entry point</text><line style="stroke:#181818;stroke-width:1.5;" x1="595.3053" x2="605.3053" y1="361.2367" y2="361.2367"/><rect fill="#F1F1F1" height="36.3441" style="stroke:#181818;stroke-width:1.5;" width="226.6175" x="605.3053" y="343.0647"/><text fill="#000000" font-family="sans-serif" font-size="12" lengthAdjust="spacing" textLength="206.6175" x="615.3053" y="365.8928">routes traffic to agentgateway-proxy</text><line style="stroke:#181818;stroke-width:1.5;" x1="595.3053" x2="595.3053" y1="276.7206" y2="361.2367"/><line style="stroke:#181818;stroke-width:1.5;" x1="504.0488" x2="514.0488" y1="412.5809" y2="412.5809"/><rect fill="#F1F1F1" height="36.3441" style="stroke:#181818;stroke-width:1.5;" width="136.0528" x="514.0488" y="394.4088"/><text fill="#000000" font-family="sans-serif" font-size="12" lengthAdjust="spacing" textLength="116.0528" x="524.0488" y="417.2369">agentgateway-proxy</text><line style="stroke:#181818;stroke-width:1.5;" x1="582.0752" x2="592.0752" y1="463.925" y2="463.925"/><rect fill="#F1F1F1" height="36.3441" style="stroke:#181818;stroke-width:1.5;" width="171.2611" x="592.0752" y="445.7529"/><text fill="#000000" font-family="sans-serif" font-size="12" lengthAdjust="spacing" textLength="151.2611" x="602.0752" y="468.581">protocol-aware AI gateway</text><line style="stroke:#181818;stroke-width:1.5;" x1="582.0752" x2="592.0752" y1="515.2691" y2="515.2691"/><rect fill="#F1F1F1" height="36.3441" style="stroke:#181818;stroke-width:1.5;" width="198.4773" x="592.0752" y="497.097"/><text fill="#000000" font-family="sans-serif" font-size="12" lengthAdjust="spacing" textLength="178.4773" x="602.0752" y="519.9251">/v1 -&gt; litellm-upstream backend</text><line style="stroke:#181818;stroke-width:1.5;" x1="582.0752" x2="592.0752" y1="566.6132" y2="566.6132"/><rect fill="#F1F1F1" height="36.3441" style="stroke:#181818;stroke-width:1.5;" width="216.3214" x="592.0752" y="548.4411"/><text fill="#000000" font-family="sans-serif" font-size="12" lengthAdjust="spacing" textLength="196.3214" x="602.0752" y="571.2692">/mcp -&gt; kagent-tools-mcp-backend</text><line style="stroke:#181818;stroke-width:1.5;" x1="582.0752" x2="582.0752" y1="430.7529" y2="566.6132"/><line style="stroke:#181818;stroke-width:1.5;" x1="504.0488" x2="514.0488" y1="617.9573" y2="617.9573"/><rect fill="#F1F1F1" height="36.3441" style="stroke:#181818;stroke-width:1.5;" width="63.9443" x="514.0488" y="599.7853"/><text fill="#000000" font-family="sans-serif" font-size="12" lengthAdjust="spacing" textLength="43.9443" x="524.0488" y="622.6133">LiteLLM</text><line style="stroke:#181818;stroke-width:1.5;" x1="546.021" x2="556.021" y1="669.3014" y2="669.3014"/><rect fill="#F1F1F1" height="36.3441" style="stroke:#181818;stroke-width:1.5;" width="184.2692" x="556.021" y="651.1294"/><text fill="#000000" font-family="sans-serif" font-size="12" lengthAdjust="spacing" textLength="164.2692" x="566.021" y="673.9575">remote provider default path</text><line style="stroke:#181818;stroke-width:1.5;" x1="546.021" x2="556.021" y1="720.6455" y2="720.6455"/><rect fill="#F1F1F1" height="36.3441" style="stroke:#181818;stroke-width:1.5;" width="204.5733" x="556.021" y="702.4735"/><text fill="#000000" font-family="sans-serif" font-size="12" lengthAdjust="spacing" textLength="184.5733" x="566.021" y="725.3016">optional external LM Studio path</text><line style="stroke:#181818;stroke-width:1.5;" x1="546.021" x2="556.021" y1="771.9897" y2="771.9897"/><rect fill="#F1F1F1" height="36.3441" style="stroke:#181818;stroke-width:1.5;" width="199.4493" x="556.021" y="753.8176"/><text fill="#000000" font-family="sans-serif" font-size="12" lengthAdjust="spacing" textLength="179.4493" x="566.021" y="776.6457">optional in-cluster runtime path</text><line style="stroke:#181818;stroke-width:1.5;" x1="546.021" x2="546.021" y1="636.1294" y2="771.9897"/><line style="stroke:#181818;stroke-width:1.5;" x1="504.0488" x2="514.0488" y1="823.3338" y2="823.3338"/><rect fill="#F1F1F1" height="36.3441" style="stroke:#181818;stroke-width:1.5;" width="153.3089" x="514.0488" y="805.1617"/><text fill="#000000" font-family="sans-serif" font-size="12" lengthAdjust="spacing" textLength="133.3089" x="524.0488" y="827.9898">agentregistry-inventory</text><line style="stroke:#181818;stroke-width:1.5;" x1="590.7033" x2="600.7033" y1="874.6779" y2="874.6779"/><rect fill="#F1F1F1" height="36.3441" style="stroke:#181818;stroke-width:1.5;" width="186.6812" x="600.7033" y="856.5058"/><text fill="#000000" font-family="sans-serif" font-size="12" lengthAdjust="spacing" textLength="166.6812" x="610.7033" y="879.3339">internal control-plane catalog</text><line style="stroke:#181818;stroke-width:1.5;" x1="590.7033" x2="600.7033" y1="926.022" y2="926.022"/><rect fill="#F1F1F1" height="36.3441" style="stroke:#181818;stroke-width:1.5;" width="194.2893" x="600.7033" y="907.8499"/><text fill="#000000" font-family="sans-serif" font-size="12" lengthAdjust="spacing" textLength="174.2893" x="610.7033" y="930.678">default access via port-forward</text><line style="stroke:#181818;stroke-width:1.5;" x1="590.7033" x2="600.7033" y1="977.3661" y2="977.3661"/><rect fill="#F1F1F1" height="36.3441" style="stroke:#181818;stroke-width:1.5;" width="238.2575" x="600.7033" y="959.1941"/><text fill="#000000" font-family="sans-serif" font-size="12" lengthAdjust="spacing" textLength="218.2575" x="610.7033" y="982.0221">not on the default public gateway path</text><line style="stroke:#181818;stroke-width:1.5;" x1="590.7033" x2="590.7033" y1="841.5058" y2="977.3661"/><line style="stroke:#181818;stroke-width:1.5;" x1="504.0488" x2="504.0488" y1="122.6882" y2="823.3338"/><line style="stroke:#181818;stroke-width:1.5;" x1="932.3513" x2="932.3513" y1="66.3441" y2="86.3441"/><rect fill="#F1F1F1" height="36.3441" style="stroke:#181818;stroke-width:1.5;" width="146.7809" x="858.9608" y="86.3441"/><text fill="#000000" font-family="sans-serif" font-size="12" lengthAdjust="spacing" textLength="126.7809" x="868.9608" y="109.1722">3. Cluster components</text><line style="stroke:#181818;stroke-width:1.5;" x1="932.3513" x2="942.3513" y1="155.8603" y2="155.8603"/><rect fill="#F1F1F1" height="36.3441" style="stroke:#181818;stroke-width:1.5;" width="126.6087" x="942.3513" y="137.6882"/><text fill="#000000" font-family="sans-serif" font-size="12" lengthAdjust="spacing" textLength="106.6087" x="952.3513" y="160.5163">platform plumbing</text><line style="stroke:#181818;stroke-width:1.5;" x1="1005.6557" x2="1015.6557" y1="207.2044" y2="207.2044"/><rect fill="#F1F1F1" height="36.3441" style="stroke:#181818;stroke-width:1.5;" width="204.8853" x="1015.6557" y="189.0323"/><text fill="#000000" font-family="sans-serif" font-size="12" lengthAdjust="spacing" textLength="184.8853" x="1025.6557" y="211.8604">namespaces from apps/platform</text><line style="stroke:#181818;stroke-width:1.5;" x1="1005.6557" x2="1015.6557" y1="258.5485" y2="258.5485"/><rect fill="#F1F1F1" height="36.3441" style="stroke:#181818;stroke-width:1.5;" width="298.33" x="1015.6557" y="240.3765"/><text fill="#000000" font-family="sans-serif" font-size="12" lengthAdjust="spacing" textLength="278.33" x="1025.6557" y="263.2045">cluster wrappers from clusters/&lt;topology&gt;-&lt;env&gt;</text><line style="stroke:#181818;stroke-width:1.5;" x1="1005.6557" x2="1005.6557" y1="174.0323" y2="258.5485"/><line style="stroke:#181818;stroke-width:1.5;" x1="932.3513" x2="942.3513" y1="309.8926" y2="309.8926"/><rect fill="#F1F1F1" height="36.3441" style="stroke:#181818;stroke-width:1.5;" width="117.7047" x="942.3513" y="291.7206"/><text fill="#000000" font-family="sans-serif" font-size="12" lengthAdjust="spacing" textLength="97.7047" x="952.3513" y="314.5487">kgateway-system</text><line style="stroke:#181818;stroke-width:1.5;" x1="1001.2036" x2="1011.2036" y1="361.2367" y2="361.2367"/><rect fill="#F1F1F1" height="36.3441" style="stroke:#181818;stroke-width:1.5;" width="131.9248" x="1011.2036" y="343.0647"/><text fill="#000000" font-family="sans-serif" font-size="12" lengthAdjust="spacing" textLength="111.9248" x="1021.2036" y="365.8928">kgateway controller</text><line style="stroke:#181818;stroke-width:1.5;" x1="1001.2036" x2="1011.2036" y1="412.5809" y2="412.5809"/><rect fill="#F1F1F1" height="36.3441" style="stroke:#181818;stroke-width:1.5;" width="105.4886" x="1011.2036" y="394.4088"/><text fill="#000000" font-family="sans-serif" font-size="12" lengthAdjust="spacing" textLength="85.4886" x="1021.2036" y="417.2369">public-gateway</text><line style="stroke:#181818;stroke-width:1.5;" x1="1001.2036" x2="1001.2036" y1="328.0647" y2="412.5809"/><line style="stroke:#181818;stroke-width:1.5;" x1="932.3513" x2="942.3513" y1="463.925" y2="463.925"/><rect fill="#F1F1F1" height="36.3441" style="stroke:#181818;stroke-width:1.5;" width="143.9249" x="942.3513" y="445.7529"/><text fill="#000000" font-family="sans-serif" font-size="12" lengthAdjust="spacing" textLength="123.9249" x="952.3513" y="468.581">agentgateway-system</text><line style="stroke:#181818;stroke-width:1.5;" x1="1014.3137" x2="1024.3137" y1="515.2691" y2="515.2691"/><rect fill="#F1F1F1" height="36.3441" style="stroke:#181818;stroke-width:1.5;" width="158.145" x="1024.3137" y="497.097"/><text fill="#000000" font-family="sans-serif" font-size="12" lengthAdjust="spacing" textLength="138.145" x="1034.3137" y="519.9251">agentgateway controller</text><line style="stroke:#181818;stroke-width:1.5;" x1="1014.3137" x2="1024.3137" y1="566.6132" y2="566.6132"/><rect fill="#F1F1F1" height="36.3441" style="stroke:#181818;stroke-width:1.5;" width="136.0528" x="1024.3137" y="548.4411"/><text fill="#000000" font-family="sans-serif" font-size="12" lengthAdjust="spacing" textLength="116.0528" x="1034.3137" y="571.2692">agentgateway-proxy</text><line style="stroke:#181818;stroke-width:1.5;" x1="1014.3137" x2="1024.3137" y1="617.9573" y2="617.9573"/><rect fill="#F1F1F1" height="36.3441" style="stroke:#181818;stroke-width:1.5;" width="207.8253" x="1024.3137" y="599.7853"/><text fill="#000000" font-family="sans-serif" font-size="12" lengthAdjust="spacing" textLength="187.8253" x="1034.3137" y="622.6133">AgentgatewayBackend resources</text><line style="stroke:#181818;stroke-width:1.5;" x1="1014.3137" x2="1024.3137" y1="669.3014" y2="669.3014"/><rect fill="#F1F1F1" height="36.3441" style="stroke:#181818;stroke-width:1.5;" width="133.6528" x="1024.3137" y="651.1294"/><text fill="#000000" font-family="sans-serif" font-size="12" lengthAdjust="spacing" textLength="113.6528" x="1034.3137" y="673.9575">AgentgatewayPolicy</text><line style="stroke:#181818;stroke-width:1.5;" x1="1014.3137" x2="1014.3137" y1="482.097" y2="669.3014"/><line style="stroke:#181818;stroke-width:1.5;" x1="932.3513" x2="942.3513" y1="720.6455" y2="720.6455"/><rect fill="#F1F1F1" height="36.3441" style="stroke:#181818;stroke-width:1.5;" width="59.0363" x="942.3513" y="702.4735"/><text fill="#000000" font-family="sans-serif" font-size="12" lengthAdjust="spacing" textLength="39.0363" x="952.3513" y="725.3016">kagent</text><line style="stroke:#181818;stroke-width:1.5;" x1="971.8694" x2="981.8694" y1="771.9897" y2="771.9897"/><rect fill="#F1F1F1" height="36.3441" style="stroke:#181818;stroke-width:1.5;" width="117.8007" x="981.8694" y="753.8176"/><text fill="#000000" font-family="sans-serif" font-size="12" lengthAdjust="spacing" textLength="97.8007" x="991.8694" y="776.6457">kagent-controller</text><line style="stroke:#181818;stroke-width:1.5;" x1="971.8694" x2="981.8694" y1="823.3338" y2="823.3338"/><rect fill="#F1F1F1" height="36.3441" style="stroke:#181818;stroke-width:1.5;" width="73.4124" x="981.8694" y="805.1617"/><text fill="#000000" font-family="sans-serif" font-size="12" lengthAdjust="spacing" textLength="53.4124" x="991.8694" y="827.9898">kagent-ui</text><line style="stroke:#181818;stroke-width:1.5;" x1="971.8694" x2="981.8694" y1="874.6779" y2="874.6779"/><rect fill="#F1F1F1" height="36.3441" style="stroke:#181818;stroke-width:1.5;" width="90.5965" x="981.8694" y="856.5058"/><text fill="#000000" font-family="sans-serif" font-size="12" lengthAdjust="spacing" textLength="70.5965" x="991.8694" y="879.3339">kagent-tools</text><line style="stroke:#181818;stroke-width:1.5;" x1="971.8694" x2="981.8694" y1="926.022" y2="926.022"/><rect fill="#F1F1F1" height="36.3441" style="stroke:#181818;stroke-width:1.5;" width="139.6048" x="981.8694" y="907.8499"/><text fill="#000000" font-family="sans-serif" font-size="12" lengthAdjust="spacing" textLength="119.6048" x="991.8694" y="930.678">Agent: k8s-a2a-agent</text><line style="stroke:#181818;stroke-width:1.5;" x1="971.8694" x2="981.8694" y1="977.3661" y2="977.3661"/><rect fill="#F1F1F1" height="36.3441" style="stroke:#181818;stroke-width:1.5;" width="236.0136" x="981.8694" y="959.1941"/><text fill="#000000" font-family="sans-serif" font-size="12" lengthAdjust="spacing" textLength="216.0136" x="991.8694" y="982.0221">RemoteMCPServer: kagent-tool-server</text><line style="stroke:#181818;stroke-width:1.5;" x1="971.8694" x2="971.8694" y1="738.8176" y2="977.3661"/><line style="stroke:#181818;stroke-width:1.5;" x1="932.3513" x2="942.3513" y1="1028.7102" y2="1028.7102"/><rect fill="#F1F1F1" height="36.3441" style="stroke:#181818;stroke-width:1.5;" width="81.1884" x="942.3513" y="1010.5382"/><text fill="#000000" font-family="sans-serif" font-size="12" lengthAdjust="spacing" textLength="61.1884" x="952.3513" y="1033.3663">ai-gateway</text><line style="stroke:#181818;stroke-width:1.5;" x1="982.9455" x2="992.9455" y1="1080.0543" y2="1080.0543"/><rect fill="#F1F1F1" height="36.3441" style="stroke:#181818;stroke-width:1.5;" width="63.9443" x="992.9455" y="1061.8823"/><text fill="#000000" font-family="sans-serif" font-size="12" lengthAdjust="spacing" textLength="43.9443" x="1002.9455" y="1084.7104">LiteLLM</text><line style="stroke:#181818;stroke-width:1.5;" x1="982.9455" x2="982.9455" y1="1046.8823" y2="1080.0543"/><line style="stroke:#181818;stroke-width:1.5;" x1="932.3513" x2="942.3513" y1="1131.3985" y2="1131.3985"/><rect fill="#F1F1F1" height="36.3441" style="stroke:#181818;stroke-width:1.5;" width="75.1644" x="942.3513" y="1113.2264"/><text fill="#000000" font-family="sans-serif" font-size="12" lengthAdjust="spacing" textLength="55.1644" x="952.3513" y="1136.0545">ai-models</text><line style="stroke:#181818;stroke-width:1.5;" x1="979.9335" x2="989.9335" y1="1182.7426" y2="1182.7426"/><rect fill="#F1F1F1" height="36.3441" style="stroke:#181818;stroke-width:1.5;" width="108.5966" x="989.9335" y="1164.5705"/><text fill="#000000" font-family="sans-serif" font-size="12" lengthAdjust="spacing" textLength="88.5966" x="999.9335" y="1187.3986">tei-embeddings</text><line style="stroke:#181818;stroke-width:1.5;" x1="979.9335" x2="989.9335" y1="1234.0867" y2="1234.0867"/><rect fill="#F1F1F1" height="36.3441" style="stroke:#181818;stroke-width:1.5;" width="136.3168" x="989.9335" y="1215.9146"/><text fill="#000000" font-family="sans-serif" font-size="12" lengthAdjust="spacing" textLength="116.3168" x="999.9335" y="1238.7427">KServe control plane</text><line style="stroke:#181818;stroke-width:1.5;" x1="979.9335" x2="989.9335" y1="1285.4308" y2="1285.4308"/><rect fill="#F1F1F1" height="36.3441" style="stroke:#181818;stroke-width:1.5;" width="186.9332" x="989.9335" y="1267.2587"/><text fill="#000000" font-family="sans-serif" font-size="12" lengthAdjust="spacing" textLength="166.9332" x="999.9335" y="1290.0868">optional Ollama or vLLM path</text><line style="stroke:#181818;stroke-width:1.5;" x1="979.9335" x2="979.9335" y1="1149.5705" y2="1285.4308"/><line style="stroke:#181818;stroke-width:1.5;" x1="932.3513" x2="942.3513" y1="1336.7749" y2="1336.7749"/><rect fill="#F1F1F1" height="36.3441" style="stroke:#181818;stroke-width:1.5;" width="62.2163" x="942.3513" y="1318.6029"/><text fill="#000000" font-family="sans-serif" font-size="12" lengthAdjust="spacing" textLength="42.2163" x="952.3513" y="1341.4309">context</text><line style="stroke:#181818;stroke-width:1.5;" x1="973.4594" x2="983.4594" y1="1388.119" y2="1388.119"/><rect fill="#F1F1F1" height="36.3441" style="stroke:#181818;stroke-width:1.5;" width="60.1883" x="983.4594" y="1369.947"/><text fill="#000000" font-family="sans-serif" font-size="12" lengthAdjust="spacing" textLength="40.1883" x="993.4594" y="1392.7751">Qdrant</text><line style="stroke:#181818;stroke-width:1.5;" x1="973.4594" x2="983.4594" y1="1439.4631" y2="1439.4631"/><rect fill="#F1F1F1" height="36.3441" style="stroke:#181818;stroke-width:1.5;" width="85.9525" x="983.4594" y="1421.2911"/><text fill="#000000" font-family="sans-serif" font-size="12" lengthAdjust="spacing" textLength="65.9525" x="993.4594" y="1444.1192">PostgreSQL</text><line style="stroke:#181818;stroke-width:1.5;" x1="973.4594" x2="983.4594" y1="1490.8073" y2="1490.8073"/><rect fill="#F1F1F1" height="36.3441" style="stroke:#181818;stroke-width:1.5;" width="50.4562" x="983.4594" y="1472.6352"/><text fill="#000000" font-family="sans-serif" font-size="12" lengthAdjust="spacing" textLength="30.4562" x="993.4594" y="1495.4633">Redis</text><line style="stroke:#181818;stroke-width:1.5;" x1="973.4594" x2="973.4594" y1="1354.947" y2="1490.8073"/><line style="stroke:#181818;stroke-width:1.5;" x1="932.3513" x2="942.3513" y1="1542.1514" y2="1542.1514"/><rect fill="#F1F1F1" height="36.3441" style="stroke:#181818;stroke-width:1.5;" width="95.9845" x="942.3513" y="1523.9793"/><text fill="#000000" font-family="sans-serif" font-size="12" lengthAdjust="spacing" textLength="75.9845" x="952.3513" y="1546.8074">agentregistry</text><line style="stroke:#181818;stroke-width:1.5;" x1="990.3436" x2="1000.3436" y1="1593.4955" y2="1593.4955"/><rect fill="#F1F1F1" height="36.3441" style="stroke:#181818;stroke-width:1.5;" width="153.3089" x="1000.3436" y="1575.3234"/><text fill="#000000" font-family="sans-serif" font-size="12" lengthAdjust="spacing" textLength="133.3089" x="1010.3436" y="1598.1515">agentregistry-inventory</text><line style="stroke:#181818;stroke-width:1.5;" x1="990.3436" x2="1000.3436" y1="1644.8396" y2="1644.8396"/><rect fill="#F1F1F1" height="36.3441" style="stroke:#181818;stroke-width:1.5;" width="141.8369" x="1000.3436" y="1626.6675"/><text fill="#000000" font-family="sans-serif" font-size="12" lengthAdjust="spacing" textLength="121.8369" x="1010.3436" y="1649.4956">DiscoveryConfig/local</text><line style="stroke:#181818;stroke-width:1.5;" x1="990.3436" x2="990.3436" y1="1560.3234" y2="1644.8396"/><line style="stroke:#181818;stroke-width:1.5;" x1="932.3513" x2="942.3513" y1="1696.1837" y2="1696.1837"/><rect fill="#F1F1F1" height="36.3441" style="stroke:#181818;stroke-width:1.5;" width="92.0605" x="942.3513" y="1678.0117"/><text fill="#000000" font-family="sans-serif" font-size="12" lengthAdjust="spacing" textLength="72.0605" x="952.3513" y="1700.8397">observability</text><line style="stroke:#181818;stroke-width:1.5;" x1="988.3815" x2="998.3815" y1="1747.5278" y2="1747.5278"/><rect fill="#F1F1F1" height="36.3441" style="stroke:#181818;stroke-width:1.5;" width="89.1445" x="998.3815" y="1729.3558"/><text fill="#000000" font-family="sans-serif" font-size="12" lengthAdjust="spacing" textLength="69.1445" x="1008.3815" y="1752.1839">Prometheus</text><line style="stroke:#181818;stroke-width:1.5;" x1="988.3815" x2="998.3815" y1="1798.8719" y2="1798.8719"/><rect fill="#F1F1F1" height="36.3441" style="stroke:#181818;stroke-width:1.5;" width="65.4323" x="998.3815" y="1780.6999"/><text fill="#000000" font-family="sans-serif" font-size="12" lengthAdjust="spacing" textLength="45.4323" x="1008.3815" y="1803.528">Grafana</text><line style="stroke:#181818;stroke-width:1.5;" x1="988.3815" x2="998.3815" y1="1850.2161" y2="1850.2161"/><rect fill="#F1F1F1" height="36.3441" style="stroke:#181818;stroke-width:1.5;" width="43.0522" x="998.3815" y="1832.044"/><text fill="#000000" font-family="sans-serif" font-size="12" lengthAdjust="spacing" textLength="23.0522" x="1008.3815" y="1854.8721">Loki</text><line style="stroke:#181818;stroke-width:1.5;" x1="988.3815" x2="988.3815" y1="1714.3558" y2="1850.2161"/><line style="stroke:#181818;stroke-width:1.5;" x1="932.3513" x2="932.3513" y1="122.6882" y2="1696.1837"/><line style="stroke:#181818;stroke-width:1.5;" x1="1417.3602" x2="1417.3602" y1="66.3441" y2="86.3441"/><rect fill="#F1F1F1" height="36.3441" style="stroke:#181818;stroke-width:1.5;" width="166.749" x="1333.9857" y="86.3441"/><text fill="#000000" font-family="sans-serif" font-size="12" lengthAdjust="spacing" textLength="146.749" x="1343.9857" y="109.1722">4. Request and data paths</text><line style="stroke:#181818;stroke-width:1.5;" x1="1417.3602" x2="1427.3602" y1="155.8603" y2="155.8603"/><rect fill="#F1F1F1" height="36.3441" style="stroke:#181818;stroke-width:1.5;" width="122.2167" x="1427.3602" y="137.6882"/><text fill="#000000" font-family="sans-serif" font-size="12" lengthAdjust="spacing" textLength="102.2167" x="1437.3602" y="160.5163">UI and agent path</text><line style="stroke:#181818;stroke-width:1.5;" x1="1488.4685" x2="1498.4685" y1="207.2044" y2="207.2044"/><rect fill="#F1F1F1" height="36.3441" style="stroke:#181818;stroke-width:1.5;" width="188.1812" x="1498.4685" y="189.0323"/><text fill="#000000" font-family="sans-serif" font-size="12" lengthAdjust="spacing" textLength="168.1812" x="1508.4685" y="211.8604">kagent-ui -&gt; kagent-controller</text><line style="stroke:#181818;stroke-width:1.5;" x1="1488.4685" x2="1498.4685" y1="258.5485" y2="258.5485"/><rect fill="#F1F1F1" height="36.3441" style="stroke:#181818;stroke-width:1.5;" width="214.4734" x="1498.4685" y="240.3765"/><text fill="#000000" font-family="sans-serif" font-size="12" lengthAdjust="spacing" textLength="194.4734" x="1508.4685" y="263.2045">k8s-a2a-agent -&gt; kagent-controller</text><line style="stroke:#181818;stroke-width:1.5;" x1="1488.4685" x2="1498.4685" y1="309.8926" y2="309.8926"/><rect fill="#F1F1F1" height="36.3441" style="stroke:#181818;stroke-width:1.5;" width="235.4375" x="1498.4685" y="291.7206"/><text fill="#000000" font-family="sans-serif" font-size="12" lengthAdjust="spacing" textLength="215.4375" x="1508.4685" y="314.5487">kagent-controller -&gt; agentgateway /v1</text><line style="stroke:#181818;stroke-width:1.5;" x1="1488.4685" x2="1488.4685" y1="174.0323" y2="309.8926"/><line style="stroke:#181818;stroke-width:1.5;" x1="1417.3602" x2="1427.3602" y1="361.2367" y2="361.2367"/><rect fill="#F1F1F1" height="36.3441" style="stroke:#181818;stroke-width:1.5;" width="74.7084" x="1427.3602" y="343.0647"/><text fill="#000000" font-family="sans-serif" font-size="12" lengthAdjust="spacing" textLength="54.7084" x="1437.3602" y="365.8928">MCP path</text><line style="stroke:#181818;stroke-width:1.5;" x1="1464.7144" x2="1474.7144" y1="412.5809" y2="412.5809"/><rect fill="#F1F1F1" height="36.3441" style="stroke:#181818;stroke-width:1.5;" width="329.7703" x="1474.7144" y="394.4088"/><text fill="#000000" font-family="sans-serif" font-size="12" lengthAdjust="spacing" textLength="309.7703" x="1484.7144" y="417.2369">RemoteMCPServer -&gt; agentgateway /mcp/kagent-tools</text><line style="stroke:#181818;stroke-width:1.5;" x1="1464.7144" x2="1474.7144" y1="463.925" y2="463.925"/><rect fill="#F1F1F1" height="36.3441" style="stroke:#181818;stroke-width:1.5;" width="238.6535" x="1474.7144" y="445.7529"/><text fill="#000000" font-family="sans-serif" font-size="12" lengthAdjust="spacing" textLength="218.6535" x="1484.7144" y="468.581">agentgateway -&gt; kagent-tools backend</text><line style="stroke:#181818;stroke-width:1.5;" x1="1464.7144" x2="1464.7144" y1="379.4088" y2="463.925"/><line style="stroke:#181818;stroke-width:1.5;" x1="1417.3602" x2="1427.3602" y1="515.2691" y2="515.2691"/><rect fill="#F1F1F1" height="36.3441" style="stroke:#181818;stroke-width:1.5;" width="72.4404" x="1427.3602" y="497.097"/><text fill="#000000" font-family="sans-serif" font-size="12" lengthAdjust="spacing" textLength="52.4404" x="1437.3602" y="519.9251">LLM path</text><line style="stroke:#181818;stroke-width:1.5;" x1="1463.5804" x2="1473.5804" y1="566.6132" y2="566.6132"/><rect fill="#F1F1F1" height="36.3441" style="stroke:#181818;stroke-width:1.5;" width="161.037" x="1473.5804" y="548.4411"/><text fill="#000000" font-family="sans-serif" font-size="12" lengthAdjust="spacing" textLength="141.037" x="1483.5804" y="571.2692">agentgateway -&gt; LiteLLM</text><line style="stroke:#181818;stroke-width:1.5;" x1="1463.5804" x2="1473.5804" y1="617.9573" y2="617.9573"/><rect fill="#F1F1F1" height="36.3441" style="stroke:#181818;stroke-width:1.5;" width="391.9067" x="1473.5804" y="599.7853"/><text fill="#000000" font-family="sans-serif" font-size="12" lengthAdjust="spacing" textLength="371.9067" x="1483.5804" y="622.6133">LiteLLM -&gt; Gemini / OpenAI / Anthropic / Bedrock / Vertex / others</text><line style="stroke:#181818;stroke-width:1.5;" x1="1463.5804" x2="1473.5804" y1="669.3014" y2="669.3014"/><rect fill="#F1F1F1" height="36.3441" style="stroke:#181818;stroke-width:1.5;" width="241.1376" x="1473.5804" y="651.1294"/><text fill="#000000" font-family="sans-serif" font-size="12" lengthAdjust="spacing" textLength="221.1376" x="1483.5804" y="673.9575">LiteLLM -&gt; optional LM Studio endpoint</text><line style="stroke:#181818;stroke-width:1.5;" x1="1463.5804" x2="1473.5804" y1="720.6455" y2="720.6455"/><rect fill="#F1F1F1" height="36.3441" style="stroke:#181818;stroke-width:1.5;" width="247.8456" x="1473.5804" y="702.4735"/><text fill="#000000" font-family="sans-serif" font-size="12" lengthAdjust="spacing" textLength="227.8456" x="1483.5804" y="725.3016">LiteLLM -&gt; optional Ollama or vLLM path</text><line style="stroke:#181818;stroke-width:1.5;" x1="1463.5804" x2="1463.5804" y1="533.4411" y2="720.6455"/><line style="stroke:#181818;stroke-width:1.5;" x1="1417.3602" x2="1427.3602" y1="771.9897" y2="771.9897"/><rect fill="#F1F1F1" height="36.3441" style="stroke:#181818;stroke-width:1.5;" width="93.0205" x="1427.3602" y="753.8176"/><text fill="#000000" font-family="sans-serif" font-size="12" lengthAdjust="spacing" textLength="73.0205" x="1437.3602" y="776.6457">Context path</text><line style="stroke:#181818;stroke-width:1.5;" x1="1473.8704" x2="1483.8704" y1="823.3338" y2="823.3338"/><rect fill="#F1F1F1" height="36.3441" style="stroke:#181818;stroke-width:1.5;" width="223.3655" x="1483.8704" y="805.1617"/><text fill="#000000" font-family="sans-serif" font-size="12" lengthAdjust="spacing" textLength="203.3655" x="1493.8704" y="827.9898">kagent-controller -&gt; tei-embeddings</text><line style="stroke:#181818;stroke-width:1.5;" x1="1473.8704" x2="1483.8704" y1="874.6779" y2="874.6779"/><rect fill="#F1F1F1" height="36.3441" style="stroke:#181818;stroke-width:1.5;" width="174.9571" x="1483.8704" y="856.5058"/><text fill="#000000" font-family="sans-serif" font-size="12" lengthAdjust="spacing" textLength="154.9571" x="1493.8704" y="879.3339">kagent-controller -&gt; Qdrant</text><line style="stroke:#181818;stroke-width:1.5;" x1="1473.8704" x2="1483.8704" y1="926.022" y2="926.022"/><rect fill="#F1F1F1" height="36.3441" style="stroke:#181818;stroke-width:1.5;" width="200.7213" x="1483.8704" y="907.8499"/><text fill="#000000" font-family="sans-serif" font-size="12" lengthAdjust="spacing" textLength="180.7213" x="1493.8704" y="930.678">kagent-controller -&gt; PostgreSQL</text><line style="stroke:#181818;stroke-width:1.5;" x1="1473.8704" x2="1483.8704" y1="977.3661" y2="977.3661"/><rect fill="#F1F1F1" height="36.3441" style="stroke:#181818;stroke-width:1.5;" width="165.2251" x="1483.8704" y="959.1941"/><text fill="#000000" font-family="sans-serif" font-size="12" lengthAdjust="spacing" textLength="145.2251" x="1493.8704" y="982.0221">kagent-controller -&gt; Redis</text><line style="stroke:#181818;stroke-width:1.5;" x1="1473.8704" x2="1473.8704" y1="790.1617" y2="977.3661"/><line style="stroke:#181818;stroke-width:1.5;" x1="1417.3602" x2="1427.3602" y1="1028.7102" y2="1028.7102"/><rect fill="#F1F1F1" height="36.3441" style="stroke:#181818;stroke-width:1.5;" width="103.4126" x="1427.3602" y="1010.5382"/><text fill="#000000" font-family="sans-serif" font-size="12" lengthAdjust="spacing" textLength="83.4126" x="1437.3602" y="1033.3663">Inventory path</text><line style="stroke:#181818;stroke-width:1.5;" x1="1479.0665" x2="1489.0665" y1="1080.0543" y2="1080.0543"/><rect fill="#F1F1F1" height="36.3441" style="stroke:#181818;stroke-width:1.5;" width="301.906" x="1489.0665" y="1061.8823"/><text fill="#000000" font-family="sans-serif" font-size="12" lengthAdjust="spacing" textLength="281.906" x="1499.0665" y="1084.7104">agentregistry-inventory -&gt; catalogs kagent Agents</text><line style="stroke:#181818;stroke-width:1.5;" x1="1479.0665" x2="1489.0665" y1="1131.3985" y2="1131.3985"/><rect fill="#F1F1F1" height="36.3441" style="stroke:#181818;stroke-width:1.5;" width="415.7389" x="1489.0665" y="1113.2264"/><text fill="#000000" font-family="sans-serif" font-size="12" lengthAdjust="spacing" textLength="395.7389" x="1499.0665" y="1136.0545">agentregistry-inventory -&gt; catalogs MCPServer and RemoteMCPServer</text><line style="stroke:#181818;stroke-width:1.5;" x1="1479.0665" x2="1489.0665" y1="1182.7426" y2="1182.7426"/><rect fill="#F1F1F1" height="36.3441" style="stroke:#181818;stroke-width:1.5;" width="374.0625" x="1489.0665" y="1164.5705"/><text fill="#000000" font-family="sans-serif" font-size="12" lengthAdjust="spacing" textLength="354.0625" x="1499.0665" y="1187.3986">operator -&gt; port-forward -&gt; inventory UI and public catalog API</text><line style="stroke:#181818;stroke-width:1.5;" x1="1479.0665" x2="1479.0665" y1="1046.8823" y2="1182.7426"/><line style="stroke:#181818;stroke-width:1.5;" x1="1417.3602" x2="1417.3602" y1="122.6882" y2="1028.7102"/><line style="stroke:#181818;stroke-width:1.5;" x1="77.0004" x2="1417.3602" y1="66.3441" y2="66.3441"/><rect fill="#F1F1F1" height="36.3441" style="stroke:#181818;stroke-width:1.5;" width="482.4594" x="505.9506" y="10"/><text fill="#000000" font-family="sans-serif" font-size="12" lengthAdjust="spacing" textLength="462.4594" x="515.9506" y="32.8281">AgenticNativePlatform - Runtime Flow With Flux Operator And Static Cluster Roots</text><line style="stroke:#181818;stroke-width:1.5;" x1="747.1803" x2="747.1803" y1="46.3441" y2="66.3441"/><!--SRC=[ZLPHSzeu47xdL-nZcndZXgOtEQRDD25fZmHQ6fBSix05qM1BFaacuNxzVP9bi37ft0k3fTrFk_jzkz9NOvcsBmlJEw7B5PTM93-O5Hi-ovXTAfrJHFSbbdDEtpBrGdyB-un_vIlzBBXcLccwb2dDBRmI6cMbiLpJlL8Ma2Tqsg-C4oMjLXaL6PCS6oTj3BToGZcJRCLDooC3MYQMFDacsTvnB16tJ7Yyn4VbRBOowQy5Olb2tuMzvuKo0j3RndR14FmNwiT95QU9FrjLg4ojjXVHPout5_w4bdjSX4fKE9gprE0tLvOxGrfe1FBi_L245K_f3jWg5_-Y8agQogq6YOHSQcQiBXDRQdwmQNYYkJrqOKMHYIIWkQ8E-lH3QViS6LKY8QlPSedYk-ny73Ulo4soZ99CWD9G02uH-5yF3pEADwV4KAWuJmhli5unor_ObefoWQEYy5avoiPHGDEmKg96rLW6OtK8LX5pAWe0KQ7LguTvOnbPQcLLehA8lJ3DwN9ChSDTgD45561vbkLHMQ1qdEMqOCaQ2GKZvE6irlwGo2gLcGXhKSEA9e2OJAOrYvu_7BuHAHIMyYKhCxihuGcfmjKRDUHrCITJ45ocGXsp4Z8AcY8TscL7XuzAyvL0x5i8O8FFdIvHoS1LfVV8TmY1RWPPLZPrT2n9k36q4GmKQ1j17IXQMjDaIKcoptoVZMUJTkIwW9n-FlPtZPgel50I0NdHxJI7FsM-438485dEJS5mEYsroWcAD0TzKMV_eh69pgeCVzzdjUmYiuLL0DffSJy0Wb8wscoBgWdItEW0lIN5oyRwLQKS20N2rqYyQp9J2AUAen9UYByIuU6XORaKhKylrGRqaDRd9c835ZKGxxrOfwFPdEiDryEcCqQ6Mwkg8TgDsr2ysyjLokl3B1SHpnSyJS5nMBlpyDr9tL3vponZEIFC_0s0zmftFkYJolfNYeaO_i-KiIlDvxycTIgfCDscQF3oLfzS2vCePBeTARaKgpXJ2Siyabgu6h25m908nZDeZwCJof3QTumdt2sXB6ejV1kSzH7FFoKtra_352tdKwe2V1pxLHzKe-DtF3O6JeVh9eU_ipjSThOjwMBy-M10VYE60q5qlJ3xugx2MZO7uv9QexB1RTUjDKZ3Xrl_pdCX1SNkKfUOup4U1lPPgm8ZAAOhdcgLhF7lYMk81NyK6DAcWxDJstxW8h36dNFCzYrbZYfbTWbi5_rOFnmrR8hxgC6XueyQxTjWNAlyiE3TFd2EuLem0ROQ6kR_k-qruxHzeAEwsSEp3dxDMyPzxq53TuGR9k3JvMpS-mgot7koXnUaj8_J2G7QW2My1GSV1f_wP-_cpD9jAMbmJgSVXn_-70u-qUXc_a1k_ttltNJyGDNOfTHb8nQbe_bzxvPjMFqS7NgTtLxVxTwdDt8Zj9Av6votJzEzmHzdqHLUQY7pfsdlEboGDp9HZl4XFJvyYyvx4oPN9UeuXE9w8rMwrmxsvly1]--></g></svg>